<svg width="217" height="58" viewBox="0 0 217 58" fill="none" xmlns="http://www.w3.org/2000/svg">
<rect width="217" height="58" rx="10" fill="white"/>
<path d="M91.4453 39C91.2853 39 91.1813 38.92 91.1333 38.76L90.3413 36.192C90.3093 36.128 90.2693 36.096 90.2213 36.096H83.8853C83.8373 36.096 83.7973 36.128 83.7653 36.192L82.9733 38.76C82.9253 38.92 82.8213 39 82.6613 39H80.2613C80.1653 39 80.0933 38.976 80.0453 38.928C79.9973 38.864 79.9893 38.776 80.0213 38.664L85.2293 22.44C85.2773 22.28 85.3813 22.2 85.5413 22.2H88.5413C88.7013 22.2 88.8053 22.28 88.8533 22.44L94.0853 38.664C94.1013 38.696 94.1093 38.736 94.1093 38.784C94.1093 38.928 94.0213 39 93.8453 39H91.4453ZM84.5093 33.768C84.4933 33.864 84.5253 33.912 84.6053 33.912H89.4773C89.5733 33.912 89.6053 33.864 89.5733 33.768L87.1013 25.728C87.0853 25.664 87.0613 25.632 87.0293 25.632C86.9973 25.632 86.9733 25.664 86.9573 25.728L84.5093 33.768ZM106.72 29.904C107.008 30.72 107.152 31.72 107.152 32.904C107.152 34.04 107.016 35.016 106.744 35.832C106.392 36.888 105.824 37.712 105.04 38.304C104.272 38.896 103.296 39.192 102.112 39.192C100.976 39.192 100.064 38.784 99.3758 37.968C99.3438 37.936 99.3118 37.928 99.2798 37.944C99.2478 37.96 99.2318 37.992 99.2318 38.04V43.248C99.2318 43.328 99.1998 43.392 99.1358 43.44C99.0878 43.504 99.0238 43.536 98.9438 43.536H96.7358C96.6558 43.536 96.5838 43.504 96.5198 43.44C96.4718 43.392 96.4478 43.328 96.4478 43.248V27.024C96.4478 26.944 96.4718 26.88 96.5198 26.832C96.5838 26.768 96.6558 26.736 96.7358 26.736H98.9438C99.0238 26.736 99.0878 26.768 99.1358 26.832C99.1998 26.88 99.2318 26.944 99.2318 27.024V27.744C99.2318 27.792 99.2478 27.824 99.2798 27.84C99.3118 27.856 99.3438 27.84 99.3758 27.792C100.08 26.96 101 26.544 102.136 26.544C103.272 26.544 104.232 26.84 105.016 27.432C105.8 28.024 106.368 28.848 106.72 29.904ZM103.6 35.784C104.08 35.048 104.32 34.072 104.32 32.856C104.32 31.688 104.128 30.768 103.744 30.096C103.296 29.312 102.616 28.92 101.704 28.92C100.872 28.92 100.248 29.304 99.8318 30.072C99.4638 30.696 99.2798 31.624 99.2798 32.856C99.2798 34.12 99.4798 35.08 99.8798 35.736C100.296 36.44 100.896 36.792 101.68 36.792C102.528 36.792 103.168 36.456 103.6 35.784ZM120.243 29.904C120.531 30.72 120.675 31.72 120.675 32.904C120.675 34.04 120.539 35.016 120.267 35.832C119.915 36.888 119.347 37.712 118.563 38.304C117.795 38.896 116.819 39.192 115.635 39.192C114.499 39.192 113.587 38.784 112.899 37.968C112.867 37.936 112.835 37.928 112.803 37.944C112.771 37.96 112.755 37.992 112.755 38.04V43.248C112.755 43.328 112.723 43.392 112.659 43.44C112.611 43.504 112.547 43.536 112.467 43.536H110.259C110.179 43.536 110.107 43.504 110.043 43.44C109.995 43.392 109.971 43.328 109.971 43.248V27.024C109.971 26.944 109.995 26.88 110.043 26.832C110.107 26.768 110.179 26.736 110.259 26.736H112.467C112.547 26.736 112.611 26.768 112.659 26.832C112.723 26.88 112.755 26.944 112.755 27.024V27.744C112.755 27.792 112.771 27.824 112.803 27.84C112.835 27.856 112.867 27.84 112.899 27.792C113.603 26.96 114.523 26.544 115.659 26.544C116.795 26.544 117.755 26.84 118.539 27.432C119.323 28.024 119.891 28.848 120.243 29.904ZM117.123 35.784C117.603 35.048 117.843 34.072 117.843 32.856C117.843 31.688 117.651 30.768 117.267 30.096C116.819 29.312 116.139 28.92 115.227 28.92C114.395 28.92 113.771 29.304 113.355 30.072C112.987 30.696 112.803 31.624 112.803 32.856C112.803 34.12 113.003 35.08 113.403 35.736C113.819 36.44 114.419 36.792 115.203 36.792C116.051 36.792 116.691 36.456 117.123 35.784ZM133.867 39.192C132.619 39.192 131.531 38.992 130.603 38.592C129.675 38.192 128.955 37.632 128.443 36.912C127.947 36.192 127.699 35.344 127.699 34.368V33.768C127.699 33.688 127.723 33.624 127.771 33.576C127.835 33.512 127.907 33.48 127.987 33.48H130.123C130.203 33.48 130.267 33.512 130.315 33.576C130.379 33.624 130.411 33.688 130.411 33.768V34.224C130.411 34.96 130.739 35.576 131.395 36.072C132.051 36.552 132.947 36.792 134.083 36.792C135.059 36.792 135.795 36.584 136.291 36.168C136.787 35.752 137.035 35.216 137.035 34.56C137.035 34.112 136.899 33.736 136.627 33.432C136.355 33.112 135.963 32.824 135.451 32.568C134.955 32.312 134.203 31.992 133.195 31.608C132.059 31.192 131.139 30.8 130.435 30.432C129.731 30.064 129.139 29.568 128.659 28.944C128.195 28.304 127.963 27.512 127.963 26.568C127.963 25.16 128.475 24.048 129.499 23.232C130.523 22.416 131.891 22.008 133.603 22.008C134.803 22.008 135.859 22.216 136.771 22.632C137.699 23.048 138.419 23.632 138.931 24.384C139.443 25.12 139.699 25.976 139.699 26.952V27.36C139.699 27.44 139.667 27.512 139.603 27.576C139.555 27.624 139.491 27.648 139.411 27.648H137.251C137.171 27.648 137.099 27.624 137.035 27.576C136.987 27.512 136.963 27.44 136.963 27.36V27.096C136.963 26.344 136.651 25.712 136.027 25.2C135.419 24.672 134.571 24.408 133.483 24.408C132.603 24.408 131.915 24.592 131.419 24.96C130.939 25.328 130.699 25.848 130.699 26.52C130.699 27 130.827 27.392 131.083 27.696C131.339 28 131.723 28.28 132.235 28.536C132.747 28.776 133.539 29.088 134.611 29.472C135.747 29.904 136.651 30.296 137.323 30.648C138.011 31 138.595 31.496 139.075 32.136C139.571 32.76 139.819 33.544 139.819 34.488C139.819 35.928 139.283 37.072 138.211 37.92C137.155 38.768 135.707 39.192 133.867 39.192ZM148.863 28.704C148.863 28.784 148.831 28.856 148.767 28.92C148.719 28.968 148.655 28.992 148.575 28.992H146.127C146.047 28.992 146.007 29.032 146.007 29.112V34.896C146.007 35.504 146.135 35.944 146.391 36.216C146.663 36.488 147.087 36.624 147.663 36.624H148.383C148.463 36.624 148.527 36.656 148.575 36.72C148.639 36.768 148.671 36.832 148.671 36.912V38.712C148.671 38.888 148.575 38.992 148.383 39.024L147.135 39.048C145.871 39.048 144.927 38.832 144.303 38.4C143.679 37.968 143.359 37.152 143.343 35.952V29.112C143.343 29.032 143.303 28.992 143.223 28.992H141.855C141.775 28.992 141.703 28.968 141.639 28.92C141.591 28.856 141.567 28.784 141.567 28.704V27.024C141.567 26.944 141.591 26.88 141.639 26.832C141.703 26.768 141.775 26.736 141.855 26.736H143.223C143.303 26.736 143.343 26.696 143.343 26.616V23.808C143.343 23.728 143.367 23.664 143.415 23.616C143.479 23.552 143.551 23.52 143.631 23.52H145.719C145.799 23.52 145.863 23.552 145.911 23.616C145.975 23.664 146.007 23.728 146.007 23.808V26.616C146.007 26.696 146.047 26.736 146.127 26.736H148.575C148.655 26.736 148.719 26.768 148.767 26.832C148.831 26.88 148.863 26.944 148.863 27.024V28.704ZM156.309 39.192C155.045 39.192 153.957 38.872 153.045 38.232C152.149 37.592 151.517 36.704 151.149 35.568C150.877 34.704 150.741 33.792 150.741 32.832C150.741 31.808 150.869 30.896 151.125 30.096C151.493 28.976 152.133 28.104 153.045 27.48C153.957 26.856 155.053 26.544 156.333 26.544C157.549 26.544 158.597 26.856 159.477 27.48C160.373 28.104 161.005 28.968 161.373 30.072C161.661 30.84 161.805 31.752 161.805 32.808C161.805 33.816 161.669 34.728 161.397 35.544C161.029 36.68 160.397 37.576 159.501 38.232C158.605 38.872 157.541 39.192 156.309 39.192ZM156.309 36.792C156.901 36.792 157.405 36.624 157.821 36.288C158.253 35.952 158.565 35.48 158.757 34.872C158.917 34.344 158.997 33.672 158.997 32.856C158.997 31.992 158.917 31.32 158.757 30.84C158.581 30.232 158.277 29.768 157.845 29.448C157.413 29.112 156.885 28.944 156.261 28.944C155.669 28.944 155.157 29.112 154.725 29.448C154.293 29.768 153.981 30.232 153.789 30.84C153.629 31.4 153.549 32.072 153.549 32.856C153.549 33.64 153.629 34.312 153.789 34.872C153.965 35.48 154.269 35.952 154.701 36.288C155.149 36.624 155.685 36.792 156.309 36.792ZM170.149 26.592C170.661 26.592 171.109 26.696 171.493 26.904C171.621 26.968 171.669 27.088 171.637 27.264L171.229 29.424C171.213 29.616 171.101 29.672 170.893 29.592C170.653 29.512 170.373 29.472 170.053 29.472C169.845 29.472 169.685 29.48 169.573 29.496C168.901 29.528 168.341 29.768 167.893 30.216C167.445 30.648 167.221 31.216 167.221 31.92V38.712C167.221 38.792 167.189 38.864 167.125 38.928C167.077 38.976 167.013 39 166.933 39H164.725C164.645 39 164.573 38.976 164.509 38.928C164.461 38.864 164.437 38.792 164.437 38.712V27.024C164.437 26.944 164.461 26.88 164.509 26.832C164.573 26.768 164.645 26.736 164.725 26.736H166.933C167.013 26.736 167.077 26.768 167.125 26.832C167.189 26.88 167.221 26.944 167.221 27.024V28.104C167.221 28.168 167.229 28.208 167.245 28.224C167.277 28.224 167.309 28.2 167.341 28.152C168.013 27.112 168.949 26.592 170.149 26.592ZM183.57 31.488C183.634 31.888 183.666 32.336 183.666 32.832L183.642 33.576C183.642 33.768 183.546 33.864 183.354 33.864H175.842C175.762 33.864 175.722 33.904 175.722 33.984C175.77 34.512 175.842 34.872 175.938 35.064C176.322 36.216 177.258 36.8 178.746 36.816C179.834 36.816 180.698 36.368 181.338 35.472C181.402 35.376 181.482 35.328 181.578 35.328C181.642 35.328 181.698 35.352 181.746 35.4L183.234 36.624C183.378 36.736 183.402 36.864 183.306 37.008C182.81 37.712 182.146 38.256 181.314 38.64C180.498 39.024 179.586 39.216 178.578 39.216C177.33 39.216 176.266 38.936 175.386 38.376C174.522 37.816 173.89 37.032 173.49 36.024C173.122 35.16 172.938 33.96 172.938 32.424C172.938 31.496 173.034 30.744 173.226 30.168C173.546 29.048 174.146 28.168 175.026 27.528C175.922 26.872 176.994 26.544 178.242 26.544C181.394 26.544 183.17 28.192 183.57 31.488ZM178.242 28.944C177.65 28.944 177.154 29.096 176.754 29.4C176.37 29.688 176.098 30.096 175.938 30.624C175.842 30.896 175.778 31.248 175.746 31.68C175.714 31.76 175.746 31.8 175.842 31.8H180.714C180.794 31.8 180.834 31.76 180.834 31.68C180.802 31.28 180.754 30.976 180.69 30.768C180.546 30.192 180.258 29.744 179.826 29.424C179.41 29.104 178.882 28.944 178.242 28.944Z" fill="#4B008B"/>
<path d="M43.641 42.509C42.6979 42.4577 41.8103 42.0465 41.1615 41.36C40.3854 40.6133 39.6929 39.7845 39.096 38.888C38.1638 37.553 37.4268 36.0918 36.9075 34.5485C36.3193 32.8883 36.0097 31.1422 35.991 29.381C35.9458 27.6528 36.3743 25.9452 37.23 24.443C37.8564 23.3601 38.7498 22.4559 39.825 21.8165C40.8884 21.1799 42.1018 20.8372 43.341 20.8235C44.2753 20.8788 45.1933 21.0923 46.056 21.455C46.7439 21.7576 47.4678 21.9704 48.21 22.088C49.0291 21.9164 49.8294 21.6652 50.5995 21.338C51.511 20.9821 52.4761 20.7828 53.454 20.7485C53.5845 20.7485 53.7135 20.7485 53.838 20.7635C55.9823 20.8257 57.9767 21.8783 59.238 23.6135C57.2325 24.6858 56.001 26.7954 56.0535 29.069C56.0337 30.7934 56.7527 32.4438 58.029 33.6035C58.6034 34.1507 59.2722 34.5893 60.003 34.898C59.853 35.348 59.6805 35.783 59.4975 36.221C59.0816 37.1889 58.5684 38.1122 57.966 38.9765C57.3973 39.8423 56.7354 40.6431 55.992 41.3645C55.3135 42.0378 54.409 42.435 53.454 42.479C52.6446 42.4431 51.8494 42.2532 51.111 41.9195C50.3148 41.5726 49.4592 41.3827 48.591 41.36C47.6984 41.3775 46.8174 41.5665 45.996 41.9165C45.2866 42.2366 44.5287 42.4358 43.7535 42.506L43.641 42.509ZM48.366 20.7485C48.2535 20.7485 48.141 20.7485 48.0285 20.735C48.0049 20.5565 47.9923 20.3766 47.991 20.1965C48.0401 18.6982 48.6256 17.2674 49.641 16.1645C50.2086 15.5309 50.8964 15.0164 51.6645 14.651C52.3813 14.282 53.1647 14.0602 53.9685 13.9985C53.991 14.195 53.991 14.387 53.991 14.57C53.9698 16.0447 53.4157 17.462 52.431 18.56C51.4659 19.8542 49.9778 20.6553 48.366 20.7485Z" fill="#4B008B"/>
</svg>
