<svg width="31" height="30" viewBox="0 0 31 30" fill="none" xmlns="http://www.w3.org/2000/svg">
<circle cx="15.5" cy="15" r="15" fill="url(#paint0_linear_3288_40484)"/>
<path d="M9.77 15.0947L9.77224 15.1053C10.0908 16.6178 11.1101 17.9163 12.5527 18.572L15.5 19.9117V18.3333H17.1667C19.4679 18.3333 21.3333 16.4679 21.3333 14.1667V13.3333C21.3333 11.0321 19.4679 9.16667 17.1667 9.16667H13.8333C11.5321 9.16667 9.66667 11.0321 9.66667 13.3333V14.1667C9.66667 14.4836 9.70176 14.7904 9.76762 15.0841L9.77 15.0947ZM17.1667 22.5L11.863 20.0893C9.93155 19.2113 8.56772 17.4731 8.14136 15.4488C8.04882 15.0362 8 14.6072 8 14.1667V13.3333C8 10.1117 10.6117 7.5 13.8333 7.5H17.1667C20.3883 7.5 23 10.1117 23 13.3333V14.1667C23 17.3883 20.3883 20 17.1667 20V22.5Z" fill="#FCFCFC"/>
<defs>
<linearGradient id="paint0_linear_3288_40484" x1="-6.14773" y1="-7.5" x2="92.2672" y2="41.4695" gradientUnits="userSpaceOnUse">
<stop stop-color="#4B008B"/>
<stop offset="1" stop-color="#FF2692"/>
</linearGradient>
</defs>
</svg>
