<svg width="20" height="21" viewBox="0 0 20 21" fill="none" xmlns="http://www.w3.org/2000/svg">
<path d="M13.3335 17.5679H4.16683C3.70659 17.5679 3.3335 17.1948 3.3335 16.7345V10.1845C3.3335 9.96841 3.41746 9.76075 3.56766 9.60536L8.151 4.85536C8.30804 4.69266 8.52445 4.60077 8.75058 4.60077C8.9767 4.60077 9.19312 4.69266 9.35016 4.85536L11.6835 7.27203L10.4918 8.44036L8.75016 6.63453L5.00016 10.5179V15.897H14.1668V16.7304C14.1679 16.9521 14.0806 17.1651 13.9242 17.3223C13.7678 17.4795 13.5552 17.5679 13.3335 17.5679ZM16.6668 12.5679H10.0002V10.9012H16.6668V12.5679Z" fill="#121212"/>
</svg>
