<svg width="13" height="11" viewBox="0 0 13 11" fill="none" xmlns="http://www.w3.org/2000/svg">
<path d="M12.2556 4.55961L2.17025 0.679628C1.74537 0.516153 1.26537 0.588067 0.917588 0.86721C0.56981 1.1464 0.424351 1.57657 0.538023 1.98983L1.4357 5.25372H5.83087C6.03312 5.25372 6.1971 5.40574 6.1971 5.59327C6.1971 5.78079 6.03314 5.93283 5.83087 5.93283H1.4357L0.538023 9.1967C0.424351 9.60998 0.569786 10.0401 0.917588 10.3193C1.26607 10.599 1.74613 10.6701 2.17027 10.5069L12.2556 6.62693C12.7148 6.45028 13 6.0542 13 5.59327C13 5.13234 12.7148 4.73624 12.2556 4.55961Z" fill="#FCFCFC"/>
</svg>
