<svg width="16" height="17" viewBox="0 0 16 17" fill="none" xmlns="http://www.w3.org/2000/svg">
<path d="M8 16.9012C3.58172 16.9012 0 13.3195 0 8.90118C0 4.48291 3.58172 0.901184 8 0.901184C12.4183 0.901184 16 4.48291 16 8.90118C15.9952 13.3175 12.4163 16.8963 8 16.9012ZM7.2 12.9012V14.5012H8.8V12.9012H7.2ZM8 4.90118C8.88366 4.90118 9.6 5.61753 9.6 6.50118C9.60281 6.92577 9.43236 7.33313 9.128 7.62918L8.136 8.63718C7.53715 9.23856 7.20065 10.0525 7.2 10.9012V11.3012H8.8C8.73782 10.4412 9.08469 9.6022 9.736 9.03718L10.456 8.30118C10.9345 7.82464 11.2024 7.17647 11.2 6.50118C11.2 4.73387 9.76731 3.30118 8 3.30118C6.23269 3.30118 4.8 4.73387 4.8 6.50118H6.4C6.4 5.61753 7.11634 4.90118 8 4.90118Z" fill="#222222"/>
</svg>
