<svg width="18" height="19" viewBox="0 0 18 19" fill="none" xmlns="http://www.w3.org/2000/svg">
<path d="M6.75 3.15118C4.67893 3.15118 3 4.83012 3 6.90118C3 8.97225 4.67893 10.6512 6.75 10.6512C8.82107 10.6512 10.5 8.97225 10.5 6.90118C10.5 4.83012 8.82107 3.15118 6.75 3.15118ZM4.5 6.90118C4.5 5.65854 5.50736 4.65118 6.75 4.65118C7.99264 4.65118 9 5.65854 9 6.90118C9 8.14382 7.99264 9.15118 6.75 9.15118C5.50736 9.15118 4.5 8.14382 4.5 6.90118Z" fill="#222222"/>
<path d="M12.6813 7.06489C12.4703 6.95731 12.2368 6.90123 12 6.90123V5.40123C12.4737 5.40123 12.9407 5.51336 13.3627 5.72852C13.4092 5.75222 13.4549 5.77709 13.5 5.80311C13.864 6.01329 14.1804 6.29795 14.428 6.6391C14.7062 7.02248 14.8897 7.46629 14.9634 7.93421C15.0372 8.40213 14.999 8.88087 14.8522 9.33122C14.7053 9.78158 14.4539 10.1908 14.1185 10.5253C13.7831 10.8598 13.3733 11.1101 12.9226 11.2558C12.5215 11.3854 12.0981 11.4289 11.6802 11.3841C11.6284 11.3785 11.5768 11.3716 11.5253 11.3634C11.0579 11.2885 10.6148 11.104 10.2323 10.8251L10.2316 10.8245L11.1158 9.61286C11.3071 9.75247 11.5288 9.84476 11.7626 9.88224C11.9965 9.91972 12.2359 9.90129 12.4613 9.82845C12.6866 9.75562 12.8915 9.63045 13.0592 9.4632C13.2269 9.29595 13.3526 9.09136 13.4261 8.86619C13.4995 8.64102 13.5185 8.40166 13.4817 8.1677C13.4448 7.93375 13.3531 7.71185 13.214 7.52017C13.0748 7.32849 12.8923 7.17247 12.6813 7.06489Z" fill="#222222"/>
<path d="M14.9986 16.6512C14.9986 16.2574 14.921 15.8675 14.7703 15.5037C14.6196 15.1399 14.3988 14.8093 14.1203 14.5309C13.8419 14.2524 13.5113 14.0316 13.1475 13.8809C12.7837 13.7302 12.3938 13.6526 12 13.6526V12.1512C12.5116 12.1512 13.0188 12.2384 13.5 12.4085C13.5747 12.4349 13.6487 12.4633 13.7221 12.4937C14.268 12.7199 14.7641 13.0513 15.182 13.4692C15.5998 13.8871 15.9313 14.3831 16.1575 14.9291C16.1878 15.0025 16.2162 15.0765 16.2426 15.1512C16.4128 15.6324 16.5 16.1396 16.5 16.6512H14.9986Z" fill="#222222"/>
<path d="M12 16.6512H10.5C10.5 14.5801 8.82107 12.9012 6.75 12.9012C4.67893 12.9012 3 14.5801 3 16.6512H1.5C1.5 13.7517 3.85051 11.4012 6.75 11.4012C9.6495 11.4012 12 13.7517 12 16.6512Z" fill="#222222"/>
</svg>
