<svg width="18" height="19" viewBox="0 0 18 19" fill="none" xmlns="http://www.w3.org/2000/svg">
<path d="M10.3651 17.4012H7.63506C7.28265 17.4012 6.97773 17.1559 6.90231 16.8117L6.59706 15.3987C6.18985 15.2203 5.80373 14.9972 5.44581 14.7334L4.06806 15.1722C3.73206 15.2793 3.3668 15.1379 3.19056 14.8324L1.82256 12.4692C1.64825 12.1636 1.7083 11.778 1.96731 11.5399L3.03606 10.5649C2.98746 10.1233 2.98746 9.6776 3.03606 9.23593L1.96731 8.26318C1.70792 8.02496 1.64785 7.63897 1.82256 7.33318L3.18756 4.96843C3.3638 4.66296 3.72906 4.52154 4.06506 4.62868L5.44281 5.06743C5.62586 4.9318 5.81641 4.8066 6.01356 4.69243C6.20282 4.5857 6.39759 4.48907 6.59706 4.40293L6.90306 2.99143C6.97811 2.64716 7.2827 2.40155 7.63506 2.40118H10.3651C10.7174 2.40155 11.022 2.64716 11.0971 2.99143L11.4061 4.40368C11.6167 4.49632 11.8217 4.60099 12.0203 4.71718C12.2055 4.82429 12.3845 4.94173 12.5566 5.06893L13.9351 4.63018C14.2708 4.52344 14.6356 4.6648 14.8118 4.96993L16.1768 7.33468C16.3511 7.6403 16.2911 8.02582 16.0321 8.26393L14.9633 9.23893C15.0119 9.6806 15.0119 10.1263 14.9633 10.5679L16.0321 11.5429C16.2911 11.781 16.3511 12.1666 16.1768 12.4722L14.8118 14.8369C14.6356 15.1421 14.2708 15.2834 13.9351 15.1767L12.5566 14.7379C12.3821 14.8664 12.2009 14.9853 12.0136 15.0942C11.8169 15.2081 11.6141 15.311 11.4061 15.4024L11.0971 16.8117C11.0217 17.1557 10.7172 17.4009 10.3651 17.4012ZM5.71506 13.0729L6.33006 13.5229C6.4687 13.625 6.6132 13.719 6.76281 13.8042C6.90359 13.8857 7.04854 13.9598 7.19706 14.0262L7.89681 14.3329L8.23956 15.9012H9.76206L10.1048 14.3322L10.8046 14.0254C11.11 13.8907 11.4 13.7232 11.6693 13.5259L12.2851 13.0759L13.8158 13.5634L14.5771 12.2449L13.3898 11.1627L13.4738 10.4037C13.5107 10.0717 13.5107 9.73666 13.4738 9.40468L13.3898 8.64568L14.5778 7.56118L13.8158 6.24193L12.2851 6.72943L11.6693 6.27943C11.3999 6.08122 11.11 5.9125 10.8046 5.77618L10.1048 5.46943L9.76206 3.90118H8.23956L7.89531 5.47018L7.19706 5.77618C7.04842 5.84147 6.90345 5.91483 6.76281 5.99593C6.61411 6.08093 6.47038 6.17433 6.33231 6.27568L5.71656 6.72568L4.18656 6.23818L3.42381 7.56118L4.61106 8.64193L4.52706 9.40168C4.49016 9.73366 4.49016 10.0687 4.52706 10.4007L4.61106 11.1597L3.42381 12.2419L4.18506 13.5604L5.71506 13.0729ZM8.99706 12.9012C7.34021 12.9012 5.99706 11.558 5.99706 9.90118C5.99706 8.24433 7.34021 6.90118 8.99706 6.90118C10.6539 6.90118 11.9971 8.24433 11.9971 9.90118C11.995 11.5572 10.6531 12.8991 8.99706 12.9012ZM8.99706 8.40118C8.17761 8.40201 7.51048 9.06032 7.49873 9.87969C7.48699 10.6991 8.13498 11.3762 8.95408 11.4005C9.77317 11.4248 10.4602 10.7873 10.4971 9.96868V10.2687V9.90118C10.4971 9.07276 9.82549 8.40118 8.99706 8.40118Z" fill="#222222"/>
</svg>
