<svg width="33" height="33" viewBox="0 0 33 33" fill="none" xmlns="http://www.w3.org/2000/svg">
<path d="M6.89732 16.4891L6.90093 16.5063C7.41555 18.9494 9.06212 21.047 11.3924 22.1063L16.1535 24.2704V21.7208H18.8458C22.5631 21.7208 25.5765 18.7073 25.5765 14.99V13.6438C25.5765 9.92654 22.5631 6.91307 18.8458 6.91307H13.4612C9.74386 6.91307 6.73039 9.92654 6.73039 13.6438V14.99C6.73039 15.502 6.78709 15.9976 6.89348 16.472L6.89732 16.4891ZM18.8458 28.4515L10.2784 24.5572C7.15829 23.139 4.95518 20.3311 4.26643 17.0612C4.11696 16.3947 4.03809 15.7016 4.03809 14.99V13.6438C4.03809 8.43962 8.25694 4.22076 13.4612 4.22076H18.8458C24.05 4.22076 28.2689 8.43962 28.2689 13.6438V14.99C28.2689 20.1942 24.05 24.4131 18.8458 24.4131V28.4515Z" fill="#FCFCFC"/>
</svg>
