<svg width="342" height="446" viewBox="0 0 342 446" fill="none" xmlns="http://www.w3.org/2000/svg">
<rect x="0.541016" y="230.981" width="340.92" height="214.736" rx="50" fill="url(#paint0_linear_3551_43288)"/>
<g clip-path="url(#clip0_3551_43288)">
<path d="M163.442 77.0707C163.383 76.9803 163.298 76.9098 163.198 76.8687C163.098 76.8275 162.988 76.8176 162.882 76.8402C162.776 76.8628 162.68 76.9169 162.605 76.9953C162.531 77.0737 162.482 77.1728 162.466 77.2794C160.908 84.671 157.563 91.5714 152.721 97.3807C148.33 103.129 143.332 108.391 137.814 113.077L162.907 111.129C162.95 110.904 163.055 110.696 163.21 110.527C166.025 107.571 168.264 104.12 169.814 100.348C171.07 96.1212 170.857 91.5953 169.21 87.504C167.735 83.7981 165.798 80.2926 163.442 77.0707Z" fill="#CAE814"/>
<path d="M227.814 101.229C222.372 101.948 216.86 102.18 211.395 102.713C210.907 102.713 208.046 103.27 207.535 103.316C207.535 103.316 210.116 102.736 210.209 102.667C216.903 98.3159 222.238 92.1786 225.605 84.9536C225.814 84.4899 225.209 84.0957 224.767 84.4203C221.856 86.2891 218.659 87.675 215.302 88.524C205.209 91.5381 196.907 92.2569 186.698 94.9463C182.302 96.1056 175.581 98.9805 172.744 102.319L186.372 112.126L185.209 112.428C187.964 111.898 190.688 111.224 193.372 110.411L197.721 118.989C197.397 119.107 197.062 119.192 196.721 119.244C214.163 116.161 236.256 112.613 245.837 97.0329C246.093 96.6388 245.628 96.1751 245.163 96.3374C239.548 98.5107 233.739 100.149 227.814 101.229Z" fill="#CAE814"/>
<path d="M158.046 109.692C158.067 109.523 158.067 109.351 158.046 109.182C153.392 92.4944 155.497 74.6524 163.907 59.4965C168.764 51.4899 174.704 44.1878 181.558 37.7954C187.79 31.4659 194.953 24.6726 198.093 16.5347C198.864 14.886 199.241 13.0809 199.193 11.2621C199.144 9.44332 198.672 7.66069 197.814 6.05511C195.488 2.22959 190.511 0.444298 185.883 0.212448C176.232 -0.251252 168.116 5.33632 161.86 11.434C148.473 24.2332 138.965 40.5258 134.418 58.4531C132.058 68.2567 131.498 78.4057 132.767 88.4081C133.465 93.7639 134.511 99.0732 135.232 104.429C135.953 109.785 135.744 115.025 137.558 120.009C137.671 120.304 137.855 120.566 138.093 120.774C138.229 121.169 138.482 121.513 138.818 121.761C139.154 122.01 139.558 122.151 139.976 122.165C143.563 122.052 147.064 121.048 150.162 119.244C151.755 118.327 153.257 117.264 154.651 116.068C155.302 115.488 155.93 114.885 156.535 114.283C157.39 113.585 158.068 112.695 158.511 111.686C158.633 111.344 158.653 110.974 158.571 110.621C158.488 110.268 158.306 109.945 158.046 109.692Z" fill="#C6362E"/>
<path d="M155.721 87.7589C148.014 86.9994 140.515 84.8218 133.605 81.3367L156.186 82.9133C156.434 80.9503 156.783 79.0028 157.233 77.0707L132.14 75.3318C132.016 79.4199 132.195 83.5116 132.674 87.5735C136.303 89.2461 140.079 90.581 143.953 91.5613C140.419 92.0714 136.977 92.4423 133.372 92.6742C133.651 94.6217 133.977 96.546 134.302 98.4704C141.492 97.902 148.643 96.9267 155.721 95.5491C155.559 92.9549 155.559 90.3532 155.721 87.7589Z" fill="#A21C26"/>
<path d="M140.396 41.1803C139.536 43.0119 138.745 44.8435 138.071 46.7215C144.745 49.666 151.583 52.3323 158.49 54.7899C150.948 54.5507 143.432 53.7759 136.001 52.4714C135.396 54.3726 134.862 56.2737 134.396 58.1981C143.894 59.8665 153.52 60.7043 163.164 60.702L163.838 59.4269C165.291 56.8162 166.931 54.3134 168.745 51.9381C159.086 48.8313 149.637 45.2454 140.396 41.1803Z" fill="#A21C26"/>
<path d="M133.325 63.1597C132.977 65.1073 132.698 67.0548 132.488 69.0255C140.936 71.0524 149.54 72.3631 158.209 72.9437C158.767 70.9962 159.442 69.0718 160.186 67.1707C151.128 66.6619 142.136 65.3192 133.325 63.1597Z" fill="#A21C26"/>
<path d="M171.42 23.6061C166.942 20.9444 162.87 17.6574 159.327 13.8452C157.885 15.3522 156.489 16.8824 155.141 18.4822C158.632 22.0579 162.535 25.2098 166.769 27.8722C171.85 31.1422 177.123 34.1074 182.559 36.752C184.001 35.2913 185.489 33.7843 186.955 32.2541C181.617 29.6662 176.43 26.7788 171.42 23.6061Z" fill="#A21C26"/>
<path d="M169.884 4.87264C168.116 5.99593 166.429 7.24331 164.838 8.60539C173.21 15.5609 183.884 19.6647 194.791 22.6323C195.884 20.9361 196.818 19.1433 197.582 17.2766C187.722 14.6335 177.675 11.1094 169.884 4.87264Z" fill="#A21C26"/>
<path d="M151.652 22.841C150.396 24.464 149.327 26.1101 148.048 27.7794C153.788 31.7665 159.734 35.4503 165.862 38.8155C158.781 37.2289 151.838 35.0892 145.094 32.4164C144.048 34.1553 143.071 35.9173 142.141 37.7026C152.271 41.8275 162.907 44.5876 173.769 45.9101C175.792 43.5916 177.885 41.4586 180.001 39.3024C170.092 34.6425 160.607 29.1348 151.652 22.841Z" fill="#A21C26"/>
<path style="mix-blend-mode:multiply" d="M135.117 104.429C135.675 108.51 135.675 112.706 136.582 116.74C138.675 115.952 140.791 115.187 142.954 114.422C142.605 111.129 142.629 107.768 142.326 104.452C141.791 99.0733 140.954 93.7407 140.466 88.3618C139.577 78.3137 140.522 68.1882 143.256 58.4763C148.5 40.7079 158.616 24.7524 172.466 12.4078C178.047 7.33026 185.001 2.69329 192.977 1.99774C190.721 0.920699 188.268 0.313221 185.768 0.212448C176.117 -0.251252 168.001 5.33632 161.745 11.434C148.358 24.2332 138.849 40.5258 134.303 58.4531C131.942 68.2567 131.383 78.4057 132.652 88.4081C133.349 93.7639 134.396 99.0732 135.117 104.429Z" fill="url(#paint1_linear_3551_43288)"/>
<path d="M295.256 23.3974C292.326 15.4682 281.814 12.5469 273.582 14.1235C264.047 16.0478 255.512 22.0064 248.326 27.7794C240.87 33.8166 234.205 40.7647 228.489 48.4604C214.372 67.4257 206.465 89.4283 200.907 111.593C200.845 111.832 200.837 112.082 200.882 112.325C200.928 112.568 201.026 112.798 201.17 112.999C201.314 113.2 201.5 113.368 201.716 113.489C201.932 113.611 202.172 113.684 202.419 113.703C203.459 115.339 204.979 116.615 206.773 117.357C208.566 118.1 210.546 118.273 212.442 117.853C214.573 117.348 216.542 116.317 218.167 114.854C219.793 113.392 221.023 111.545 221.744 109.483C223.651 104.707 223.651 99.5369 225.349 94.7145C226.951 90.2737 229.217 86.0996 232.07 82.3337C244.326 65.9187 264.186 56.7143 281.628 45.7014C289.442 40.8094 298.814 33.1583 295.256 23.3974Z" fill="#C6362E"/>
<path d="M219.885 61.6526C218.862 63.4379 217.862 65.2231 216.932 67.0316C222.467 70.7412 228.094 74.358 233.978 77.6039L235.373 78.3226C236.746 76.7924 238.164 75.2854 239.676 73.848L238.025 72.9669C231.722 69.5124 225.746 65.6405 219.885 61.6526Z" fill="#A21C26"/>
<path d="M245.209 69.0255C246.884 67.6808 248.605 66.4056 250.372 65.1536C242.687 60.1072 235.402 54.4799 228.582 48.3213L228.419 48.5299C227.233 50.1297 226.093 51.7295 225.023 53.3757C231.387 59.0445 238.131 64.2733 245.209 69.0255Z" fill="#A21C26"/>
<path d="M209.652 83.3074C208.931 85.1622 208.256 87.0402 207.582 88.9182C213.352 91.2659 219.253 93.2786 225.256 94.9463C225.256 94.9463 225.256 94.8304 225.256 94.784C225.906 92.9547 226.683 91.1729 227.582 89.4515C221.489 87.7566 215.502 85.7049 209.652 83.3074Z" fill="#A21C26"/>
<path d="M237.325 37.9576C235.883 39.4646 234.511 41.018 233.186 42.5946C240.347 49.6234 248.418 55.6664 257.186 60.5629C259.139 59.3109 261.116 58.0822 263.093 56.8765C253.58 51.9267 244.889 45.5455 237.325 37.9576Z" fill="#A21C26"/>
<path d="M265.024 17.0448C263.06 17.9308 261.15 18.9294 259.303 20.0356C267.674 28.3883 276.993 35.741 287.07 41.9454C288.752 40.6733 290.31 39.2449 291.721 37.6794C282.077 31.8172 273.122 24.8958 265.024 17.0448Z" fill="#A21C26"/>
<path d="M228.675 84.7913C229.163 84.7913 229.675 84.9767 230.163 85.0695C230.768 84.1653 231.373 83.2611 232.024 82.4032C232.675 81.5454 233.442 80.5716 234.163 79.6906C232.954 79.5283 231.838 79.3428 230.512 79.1341C224.724 77.9375 219.074 76.1506 213.652 73.8016C212.838 75.61 212.024 77.4416 211.326 79.2732C216.918 81.6638 222.728 83.5117 228.675 84.7913Z" fill="#A21C26"/>
<path d="M249.744 26.6897L248.255 27.849C247.116 28.7764 245.93 29.7502 244.953 30.7007C252.074 39.1229 260.098 46.742 268.883 53.422L274.604 50.037C265.434 43.246 257.091 35.4104 249.744 26.6897Z" fill="#A21C26"/>
<path style="mix-blend-mode:multiply" d="M210.558 105.843C216.907 86.2983 225.465 67.217 238.86 50.7789C244.913 43.3011 251.891 36.6171 259.627 30.8862C267.069 25.3913 275.907 19.7574 285.488 18.204C287.404 17.9093 289.348 17.847 291.279 18.0185C288.757 16.165 285.869 14.8657 282.806 14.2063C279.744 13.5468 276.576 13.5423 273.511 14.193C263.976 16.1173 255.441 22.0759 248.255 27.849C240.799 33.8861 234.135 40.8342 228.418 48.5299C215.604 65.7564 207.907 85.4637 202.441 105.542C205.139 105.588 207.837 105.681 210.558 105.843Z" fill="url(#paint2_linear_3551_43288)"/>
<path d="M276.256 238.74C283.232 246.692 290.558 256.383 290.86 266.909C290.904 269.097 290.143 271.225 288.721 272.891C287.298 274.557 285.312 275.646 283.139 275.951C277.349 277.064 272.209 273.633 268.814 269.715C265.418 265.796 259.837 257.798 256.953 253.972L249.721 215.021C258.186 222.093 269.093 230.532 276.256 238.74Z" fill="#A0BF38"/>
<path d="M276.256 238.74C283.232 246.692 290.558 256.383 290.86 266.909C290.904 269.097 290.143 271.225 288.721 272.891C287.298 274.557 285.312 275.646 283.139 275.951C277.349 277.064 272.209 273.633 268.814 269.715C265.418 265.796 259.837 257.798 256.953 253.972L249.721 215.021C258.186 222.093 269.093 230.532 276.256 238.74Z" fill="#CAE814"/>
<path style="mix-blend-mode:multiply" d="M276.256 238.74C283.232 246.692 290.558 256.383 290.86 266.909C290.904 269.097 290.143 271.225 288.721 272.891C287.298 274.557 285.312 275.646 283.139 275.951C277.349 277.064 272.209 273.633 268.814 269.715C265.418 265.796 259.837 257.798 256.953 253.972L249.721 215.021C258.186 222.093 269.093 230.532 276.256 238.74Z" fill="url(#paint3_linear_3551_43288)"/>
<path d="M144.884 189.054C147.21 174.494 184.187 184.672 184.187 184.672C186.14 185.113 188.094 185.484 190.047 185.831C215.861 197.053 248.396 193.413 248.396 193.413C233.094 200.484 209.698 203.568 208.094 203.753C140.024 210.639 144.884 189.054 144.884 189.054Z" fill="#386639"/>
<path d="M211.536 192.091C204.178 190.884 196.988 188.814 190.117 185.924C188.164 185.576 186.21 185.205 184.257 184.765C184.257 184.765 147.21 174.587 144.955 189.147C144.955 189.147 142.396 200.739 167.815 204.217C173.629 200.345 187.792 193.158 211.536 192.091Z" fill="#264526"/>
<path d="M248.953 195.059C295.186 369.48 251.883 371.845 251.883 371.845C238.953 375.948 231.07 362.2 231.07 362.2C215.674 337.832 194.535 333.752 183.209 333.52C148.953 332.685 136.465 356.427 134.372 359.464C127.395 369.688 122.209 372.749 118.395 373.143C76.7904 377.247 81.6509 243.307 81.6509 243.307C81.6509 101.415 172.674 99.166 172.674 99.166C247.395 95.8042 265.697 171.039 268.023 182.748C268.144 183.236 268.068 183.753 267.811 184.186C267.555 184.619 267.138 184.935 266.651 185.066C258.628 187.825 222.767 193.436 184.116 184.858C184.116 184.858 147.07 174.679 144.814 189.24C144.814 189.24 139.953 210.848 208.023 203.939C209.628 203.753 233.023 200.67 248.325 193.598L248.953 195.059Z" fill="#A0BF38"/>
<path d="M248.953 195.059C295.186 369.48 251.883 371.845 251.883 371.845C238.953 375.948 231.07 362.2 231.07 362.2C215.674 337.832 194.535 333.752 183.209 333.52C148.953 332.685 136.465 356.427 134.372 359.464C127.395 369.688 122.209 372.749 118.395 373.143C76.7904 377.247 81.6509 243.307 81.6509 243.307C81.6509 101.415 172.674 99.166 172.674 99.166C252.349 94.529 266.511 171.248 268.186 182.817C268.249 183.281 268.142 183.751 267.886 184.143C267.63 184.534 267.241 184.821 266.79 184.95C260.046 187.269 246.302 193.923 205.79 188.428C199.279 187.547 180.465 183.791 175.349 182.817C164.232 180.8 146.395 179.177 144.86 189.147C144.86 189.147 140 210.755 208.07 203.846C209.674 203.661 233.069 200.577 248.372 193.506L248.953 195.059Z" fill="#CAE814"/>
<path d="M266.907 279.731C266.907 278.965 266.697 278.2 266.581 277.412C266.395 276.176 266.209 274.924 266.023 273.656C246.93 279.429 154.023 305.002 81.9766 278.548C83.6742 317.963 90.8603 375.809 118.418 373.097C122.232 372.702 127.325 369.642 134.395 359.417C136.465 356.38 148.953 332.639 183.232 333.473C194.558 333.728 215.791 337.809 231.093 362.176C231.093 362.176 238.977 375.925 251.907 371.821C251.907 371.821 279.372 370.314 267.209 281.609L266.907 279.731Z" fill="#4D8B3F"/>
<path d="M92.2795 215.531C81.419 219.496 70.4656 228.585 62.9074 236.977C52.2097 248.871 42.3028 268.509 47.3493 284.159C49.047 289.422 54.7446 294.407 61.14 293.433C63.4091 292.928 65.5213 291.881 67.2955 290.383C69.0696 288.884 70.4527 286.98 71.326 284.831C80.233 266.283 82.7679 239.18 103.07 226.591L92.2795 215.531Z" fill="#CAE814"/>
<g style="mix-blend-mode:multiply" opacity="0.5">
<path style="mix-blend-mode:multiply" opacity="0.5" d="M94.8844 233.477C94.8844 237.789 95.0704 242.217 95.303 246.808C95.303 246.808 97.0239 347.639 124.443 370.523C122.731 371.896 120.685 372.792 118.512 373.12C85.2565 376.389 81.6751 291.509 81.582 257.195C84.4128 248.495 88.9327 240.436 94.8844 233.477Z" fill="url(#paint4_linear_3551_43288)"/>
</g>
<path d="M158.768 115.303C158.977 115.581 159.489 114.978 159.116 115.001H158.721C158.698 115.104 158.715 115.212 158.768 115.303Z" fill="#A0BF38"/>
<path d="M165.535 99.5601C165.535 99.5601 177.675 94.2276 180.233 86.6925C180.257 86.649 180.292 86.6127 180.335 86.5875C180.378 86.5622 180.427 86.5489 180.477 86.5489C180.527 86.5489 180.576 86.5622 180.619 86.5875C180.662 86.6127 180.697 86.649 180.721 86.6925C182.003 89.2176 182.544 92.0524 182.28 94.8704C182.017 97.6884 180.961 100.375 179.233 102.621L165.535 99.5601Z" fill="#CAE814"/>
<path d="M245.303 96.3374C239.658 98.5164 233.817 100.154 227.861 101.229C222.419 101.948 216.907 102.18 211.442 102.713C211 102.713 208.558 103.2 207.768 103.293L206.791 103.594C205.558 103.919 204.303 104.267 203.024 104.475C201.887 104.824 200.672 104.824 199.535 104.475C199.151 104.219 198.835 103.875 198.612 103.472C198.39 103.068 198.268 102.617 198.256 102.157C198.019 99.9376 198.168 97.6943 198.698 95.5259C198.954 94.3899 199.256 93.2074 199.512 92.1641C195.419 92.9524 191.256 93.7639 186.745 94.9463C182.233 96.1287 175.628 98.9805 172.791 102.319L186.419 112.126L185.256 112.428C188.01 111.898 190.735 111.224 193.419 110.411L197.768 118.989C197.444 119.107 197.109 119.192 196.768 119.244C214.21 116.161 236.303 112.613 245.884 97.0329C246.233 96.6388 245.768 96.1751 245.303 96.3374Z" fill="#CAE814"/>
<path d="M201.117 101.508C201.117 101.508 218.629 102.597 227.861 101.229L221.931 107.605L207.024 109.924L201.117 101.508Z" fill="#CAE814"/>
<path d="M142.117 105.704C141.043 102.066 138.895 98.8349 135.954 96.4301C133.15 94.1035 130.015 92.2049 126.652 90.7962C126.396 90.7962 126.117 90.9121 126.21 91.1439C127.734 95.8567 128.518 100.776 128.535 105.727C128.312 112.865 125.378 119.653 120.326 124.716L127.466 122.884C131.16 123.284 134.897 123.001 138.489 122.05C138.923 121.961 139.33 121.77 139.675 121.493C139.923 121.23 140.107 120.912 140.21 120.566C141.977 115.766 143.396 110.619 142.117 105.704Z" fill="#CAE814"/>
<path d="M151.885 201.11C154.185 197.318 157.24 194.036 160.862 191.465C162.213 195.445 162.689 199.667 162.257 203.846L151.885 201.11Z" fill="white"/>
<path d="M164.535 181.38C164.792 185.5 165.935 189.516 167.884 193.158C170.956 190.221 173.414 186.706 175.117 182.817C171.62 182.135 168.087 181.655 164.535 181.38Z" fill="white"/>
<path d="M150.419 198.63C154.965 201.365 160.035 203.118 165.303 203.777L164.536 206.443L155.722 204.518L148.605 200.763L150.419 198.63Z" fill="#CAE814"/>
<path d="M208.094 203.684L209.861 203.452C208.837 199.805 207.133 196.384 204.838 193.367C202.349 196.643 200.574 200.402 199.629 204.403C202.234 204.287 205.117 204.055 208.094 203.684Z" fill="white"/>
<path style="mix-blend-mode:multiply" opacity="0.5" d="M173.814 175.468C189.349 173.752 200.419 160.908 198.512 146.765C196.605 132.622 182.512 122.56 166.977 124.275C151.442 125.991 140.396 138.766 142.28 152.978C144.163 167.191 158.28 177.183 173.814 175.468Z" fill="url(#paint5_linear_3551_43288)"/>
<path d="M173.814 172.036C189.349 170.321 200.419 157.476 198.512 143.333C196.605 129.19 182.512 119.128 166.977 120.844C151.442 122.56 140.396 135.404 142.28 149.547C144.163 163.69 158.28 173.752 173.814 172.036Z" fill="#D8D9DA"/>
<path d="M173.698 171.712C189.116 169.996 200.093 157.244 198.232 143.194C196.372 129.144 182.325 119.175 166.93 120.867C151.535 122.56 140.511 135.335 142.395 149.385C144.279 163.435 158.279 173.404 173.698 171.712Z" fill="#D9DADB"/>
<path d="M173.581 171.364C188.883 169.672 199.79 157.012 197.93 143.078C196.07 129.144 182.163 119.221 166.86 120.913C151.558 122.606 140.651 135.265 142.511 149.199C144.372 163.133 158.279 173.057 173.581 171.364Z" fill="#DADBDC"/>
<path d="M173.466 171.016C188.652 169.347 199.466 156.781 197.629 142.939C195.792 129.098 181.978 119.267 166.792 120.937C151.606 122.606 140.792 135.195 142.629 149.014C144.466 162.832 158.28 172.709 173.466 171.016Z" fill="#DBDCDD"/>
<path d="M173.35 170.668C188.42 169.022 199.164 156.549 197.327 142.846C195.49 129.144 181.792 119.337 166.722 121.006C151.653 122.675 140.908 135.149 142.746 148.828C144.583 162.507 158.28 172.338 173.35 170.668Z" fill="#DCDDDE"/>
<path d="M173.233 170.344C188.186 168.675 198.814 156.294 197.024 142.684C195.233 129.075 181.605 119.36 166.652 121.029C151.698 122.699 141.07 134.94 142.861 148.666C144.652 162.391 158.279 171.99 173.233 170.344Z" fill="#DDDEDF"/>
<path d="M173.116 169.996C187.953 168.35 198.535 156.085 196.721 142.545C194.907 129.005 181.418 119.36 166.488 121.053C151.558 122.745 141.07 134.964 142.884 148.504C144.698 162.044 158.256 171.642 173.116 169.996Z" fill="#DEDFE0"/>
<path d="M173.001 169.648C187.722 168.025 198.21 155.737 196.42 142.429C194.629 129.121 181.257 119.453 166.513 121.099C151.768 122.745 141.303 135.01 143.094 148.318C144.885 161.626 158.257 171.225 173.001 169.648Z" fill="#DFE0E0"/>
<path d="M172.884 169.324C187.489 167.701 197.907 155.598 196.14 142.29C194.372 128.982 181.093 119.522 166.465 121.122C151.837 122.722 141.442 134.848 143.209 148.156C144.977 161.464 158.256 170.923 172.884 169.324Z" fill="#E0E1E1"/>
<path d="M172.767 168.906C187.256 167.307 197.581 155.297 195.837 142.105C194.093 128.912 180.884 119.499 166.395 121.099C151.907 122.699 141.558 134.778 143.325 148.04C145.093 161.302 158.256 170.576 172.767 168.906Z" fill="#E1E2E2"/>
<path d="M172.651 168.628C187.023 167.028 197.279 155.135 195.535 142.035C193.791 128.935 180.698 119.615 166.326 121.169C151.953 122.722 141.767 134.709 143.442 147.785C145.116 160.861 158.256 170.228 172.651 168.628Z" fill="#E2E3E3"/>
<path d="M172.536 168.28C186.792 166.704 196.954 154.903 195.233 141.919C193.512 128.935 180.512 119.662 166.257 121.238C152.001 122.815 141.768 134.616 143.559 147.623C145.35 160.629 158.257 169.857 172.536 168.28Z" fill="#E3E3E4"/>
<path d="M172.418 167.956C186.558 166.379 196.651 154.671 194.93 141.78C193.209 128.889 180.348 119.708 166.186 121.284C152.023 122.861 141.953 134.546 143.674 147.437C145.395 160.328 158.255 169.509 172.418 167.956Z" fill="#E4E4E5"/>
<path d="M172.302 167.608C186.255 166.055 196.325 154.439 194.628 141.641C192.93 128.843 180.162 119.754 166.116 121.308C152.069 122.861 142.069 134.477 143.79 147.275C145.511 160.073 158.255 169.161 172.302 167.608Z" fill="#E5E5E6"/>
<path d="M172.163 167.26C186.116 165.73 196.023 154.207 194.326 141.525C192.628 128.843 179.977 119.801 166.047 121.354C152.116 122.907 142.209 134.407 143.884 147.089C145.558 159.772 158.256 168.906 172.163 167.26Z" fill="#E6E6E7"/>
<path d="M172 166.913C185.814 165.406 195.651 153.975 193.976 141.409C192.302 128.843 179.744 119.87 165.93 121.4C152.116 122.931 142.279 134.361 143.953 146.904C145.628 159.447 158.232 168.443 172 166.913Z" fill="#E7E7E8"/>
<path d="M172 166.588C185.698 165.058 195.466 153.72 193.791 141.27C192.117 128.819 179.675 119.893 165.884 121.423C152.093 122.954 142.466 134.268 144.093 146.742C145.721 159.215 158.233 168.095 172 166.588Z" fill="#E8E8E9"/>
<path d="M171.814 166.24C185.395 164.733 195.069 153.488 193.441 141.131C191.814 128.773 179.488 119.963 165.86 121.447C152.232 122.931 142.604 134.198 144.232 146.556C145.86 158.914 158.232 167.747 171.814 166.24Z" fill="#E9E9EA"/>
<path d="M171.698 165.892C185.163 164.409 194.767 153.257 193.139 140.992C191.511 128.727 179.186 120.125 165.791 121.493C152.395 122.861 142.721 134.129 144.349 146.394C145.977 158.659 158.232 167.399 171.698 165.892Z" fill="#EAEAEB"/>
<path d="M171.582 165.568C184.954 164.084 194.466 153.025 192.838 140.876C191.21 128.727 179.07 120.009 165.721 121.516C152.373 123.023 142.861 134.059 144.466 146.208C146.07 158.357 158.233 167.028 171.582 165.568Z" fill="#EBEBEC"/>
<path d="M171.465 165.22C184.721 163.759 194.14 152.793 192.535 140.737C190.93 128.68 178.977 120.218 165.651 121.563C152.326 122.907 142.977 133.99 144.581 146.046C146.186 158.102 158.233 166.588 171.465 165.22Z" fill="#EBECEC"/>
<path d="M171.349 164.872C184.489 163.435 193.838 152.561 192.28 140.621C190.721 128.68 178.745 120.148 165.628 121.609C152.512 123.07 143.163 133.92 144.698 145.86C146.233 157.801 158.233 166.333 171.349 164.872Z" fill="#ECEDED"/>
<path d="M171.233 164.524C184.256 163.087 193.512 152.329 191.931 140.482C190.349 128.634 178.536 120.195 165.512 121.632C152.489 123.07 143.233 133.851 144.815 145.698C146.396 157.546 158.233 165.962 171.233 164.524Z" fill="#EDEEEE"/>
<path d="M171.116 164.269C184.023 162.832 193.21 152.167 191.628 140.412C190.047 128.657 178.349 120.311 165.442 121.748C152.535 123.186 143.372 133.851 144.93 145.582C146.489 157.314 158.233 165.614 171.116 164.269Z" fill="#EEEFEF"/>
<path d="M171 163.852C183.791 162.438 192.884 151.865 191.326 140.227C189.768 128.588 178.163 120.287 165.372 121.679C152.582 123.07 143.489 133.688 145.047 145.327C146.605 156.966 158.21 165.266 171 163.852Z" fill="#EFF0F0"/>
<path d="M170.885 163.504C183.559 162.113 192.582 151.634 191.048 140.087C189.513 128.541 177.978 120.357 165.327 121.748C152.676 123.139 143.629 133.619 145.164 145.165C146.699 156.711 158.21 164.919 170.885 163.504Z" fill="#F0F1F1"/>
<path d="M170.768 163.18C183.326 161.789 192.256 151.402 190.745 139.995C189.233 128.588 177.814 120.427 165.163 121.794C152.512 123.162 143.652 133.572 145.186 144.979C146.721 156.386 158.21 164.548 170.768 163.18Z" fill="#F1F2F2"/>
<path d="M170.652 162.832C183.094 161.464 191.955 151.239 190.443 139.832C188.931 128.425 177.629 120.45 165.187 121.818C152.745 123.186 143.885 133.41 145.396 144.817C146.908 156.224 158.21 164.269 170.652 162.832Z" fill="#F2F3F3"/>
<path d="M170.536 162.484C182.861 161.116 191.629 150.892 190.14 139.717C188.652 128.541 177.443 120.496 165.117 121.864C152.791 123.232 144.024 133.457 145.512 144.632C147.001 155.807 158.21 163.852 170.536 162.484Z" fill="#F3F4F4"/>
<path d="M170.42 162.136C182.629 160.792 191.35 150.683 189.839 139.577C188.327 128.472 177.257 120.543 165.048 121.887C152.839 123.232 144.118 133.341 145.629 144.469C147.141 155.598 158.211 163.504 170.42 162.136Z" fill="#F4F5F5"/>
<path d="M170.303 161.812C182.396 160.467 191 150.451 189.535 139.438C188.07 128.425 177.07 120.589 164.977 121.934C152.884 123.278 144.279 133.271 145.745 144.284C147.21 155.297 158.21 163.133 170.303 161.812Z" fill="#F5F5F6"/>
<path d="M170.187 161.464C182.164 160.142 190.698 150.219 189.233 139.322C187.768 128.425 176.908 120.635 164.908 121.957C152.908 123.278 144.396 133.202 145.861 144.122C147.326 155.042 158.21 162.786 170.187 161.464Z" fill="#F6F6F7"/>
<path d="M170.069 161.116C181.93 159.818 190.372 149.987 188.953 139.183C187.535 128.379 176.721 120.635 164.86 122.003C153 123.371 144.535 133.132 145.976 143.936C147.418 154.74 158.209 162.438 170.069 161.116Z" fill="#F7F7F8"/>
<path d="M169.954 160.768C181.582 159.47 190.071 149.756 188.559 139.067C187.048 128.379 176.652 120.728 164.792 122.026C152.931 123.325 144.652 133.062 146.187 143.751C147.722 154.439 158.187 162.067 169.954 160.768Z" fill="#F8F8F9"/>
<path d="M169.837 160.444C181.465 159.146 189.767 149.524 188.442 138.928C187.116 128.333 176.442 120.798 164.814 122.073C153.186 123.348 144.884 132.993 146.209 143.588C147.535 154.184 158.186 161.719 169.837 160.444Z" fill="#F9F9F9"/>
<path d="M169.675 160.096C181.303 158.821 189.396 149.292 188.001 138.789C186.605 128.286 176.117 120.844 164.605 122.119C153.094 123.394 144.931 132.923 146.419 143.403C147.908 153.882 158.187 161.371 169.675 160.096Z" fill="#FAFAFA"/>
<path d="M169.675 159.748C181.07 158.496 189.21 149.06 187.815 138.673C186.419 128.286 176.187 120.89 164.559 122.142C152.931 123.394 145.024 132.854 146.419 143.241C147.815 153.627 158.187 161.023 169.675 159.748Z" fill="#FBFBFB"/>
<path d="M169.489 159.424C180.768 158.172 188.815 148.828 187.443 138.557C186.071 128.286 175.815 120.96 164.512 122.328C153.21 123.696 145.187 132.923 146.559 143.194C147.931 153.465 158.187 160.653 169.489 159.424Z" fill="#FCFCFC"/>
<path d="M169.373 159.076C180.536 157.847 188.513 148.596 187.141 138.418C185.769 128.24 175.513 120.983 164.443 122.189C153.373 123.394 145.303 132.691 146.676 142.87C148.048 153.048 158.187 160.305 169.373 159.076Z" fill="#FDFDFD"/>
<path d="M169.256 158.728C180.303 157.499 188.187 148.341 186.838 138.279C185.489 128.217 175.442 121.029 164.373 122.258C153.303 123.487 145.442 132.645 146.791 142.707C148.14 152.77 158.187 159.957 169.256 158.728Z" fill="#FEFEFE"/>
<path d="M169.139 158.38C180.07 157.175 187.884 148.109 186.558 138.14C185.233 128.17 175.256 121.076 164.326 122.281C153.395 123.487 145.558 132.552 146.907 142.522C148.256 152.491 158.186 159.632 169.139 158.38Z" fill="white"/>
<path d="M166.675 127.73C165.135 126.419 163.169 125.712 161.144 125.742C159.119 125.772 157.175 126.536 155.675 127.892C154.941 128.497 154.346 129.251 153.928 130.103C153.511 130.956 153.281 131.888 153.255 132.837C153.228 133.786 153.406 134.729 153.775 135.604C154.144 136.478 154.697 137.264 155.396 137.908C156.931 139.227 158.896 139.941 160.922 139.916C162.948 139.89 164.895 139.126 166.396 137.769C167.13 137.162 167.726 136.406 168.144 135.551C168.561 134.697 168.791 133.763 168.818 132.812C168.844 131.862 168.666 130.917 168.297 130.04C167.927 129.164 167.374 128.376 166.675 127.73Z" fill="url(#paint6_linear_3551_43288)"/>
<path d="M163.164 130.906C162.594 130.401 161.857 130.122 161.094 130.122C160.331 130.122 159.595 130.401 159.025 130.906C158.754 131.139 158.537 131.427 158.388 131.751C158.239 132.076 158.162 132.428 158.162 132.784C158.162 133.141 158.239 133.493 158.388 133.817C158.537 134.141 158.754 134.429 159.025 134.662C159.595 135.167 160.331 135.446 161.094 135.446C161.857 135.446 162.594 135.167 163.164 134.662C163.431 134.427 163.645 134.138 163.792 133.814C163.939 133.491 164.014 133.139 164.014 132.784C164.014 132.429 163.939 132.078 163.792 131.754C163.645 131.43 163.431 131.141 163.164 130.906Z" fill="#264526"/>
<path d="M169.675 127.776C169.054 127.225 168.251 126.921 167.419 126.921C166.588 126.921 165.785 127.225 165.163 127.776C164.871 128.033 164.638 128.349 164.477 128.703C164.317 129.056 164.234 129.44 164.234 129.828C164.234 130.216 164.317 130.6 164.477 130.954C164.638 131.307 164.871 131.623 165.163 131.88C165.793 132.421 166.601 132.713 167.433 132.7C168.264 132.688 169.062 132.371 169.675 131.81C169.956 131.554 170.18 131.242 170.333 130.895C170.486 130.548 170.565 130.173 170.565 129.793C170.565 129.414 170.486 129.039 170.333 128.691C170.18 128.344 169.956 128.033 169.675 127.776Z" fill="white"/>
<path style="mix-blend-mode:multiply" opacity="0.5" d="M225.838 175.421C239.513 173.914 249.257 162.6 247.606 150.127C245.955 137.653 233.513 128.82 219.838 130.327C206.164 131.834 196.42 143.148 198.071 155.621C199.722 168.095 212.164 176.928 225.838 175.421Z" fill="url(#paint7_linear_3551_43288)"/>
<path d="M225.838 172.407C239.513 170.9 249.257 159.586 247.606 147.136C245.955 134.685 233.513 125.805 219.838 127.313C206.164 128.82 196.42 140.157 198.071 152.677C199.722 165.197 212.164 173.914 225.838 172.407Z" fill="#D8D9DA"/>
<path d="M225.721 172.129C239.302 170.622 248.977 159.401 247.325 147.043C245.674 134.685 233.372 125.875 219.744 127.359C206.116 128.843 196.488 140.111 198.139 152.468C199.79 164.826 212.139 173.543 225.721 172.129Z" fill="#D9DADB"/>
<path d="M225.606 171.851C239.071 170.367 248.675 159.215 247.024 146.927C245.373 134.639 233.071 125.921 219.675 127.428C206.28 128.935 196.606 140.064 198.233 152.329C199.861 164.594 212.117 173.335 225.606 171.851Z" fill="#DADBDC"/>
<path d="M225.49 171.549C238.862 170.089 248.397 159.006 246.769 146.834C245.141 134.662 232.978 125.968 219.606 127.475C206.234 128.982 196.722 140.018 198.327 152.19C199.932 164.362 212.094 173.033 225.49 171.549Z" fill="#DBDCDD"/>
<path d="M225.35 171.225C238.629 169.764 248.071 158.775 246.466 146.695C244.862 134.616 232.792 125.991 219.513 127.475C206.234 128.959 196.792 139.925 198.396 152.005C200.001 164.084 212.071 172.755 225.35 171.225Z" fill="#DCDDDE"/>
<path d="M225.232 170.993C238.395 169.532 247.79 158.635 246.162 146.649C244.535 134.662 232.581 126.107 219.418 127.568C206.255 129.028 196.86 139.925 198.488 151.912C200.116 163.898 212.046 172.454 225.232 170.993Z" fill="#DDDEDF"/>
<path d="M225.094 170.715C238.164 169.254 247.489 158.45 246.024 146.533C244.559 134.616 232.536 126.176 219.466 127.614C206.396 129.051 197.094 139.879 198.675 151.773C200.257 163.667 212.024 172.152 225.094 170.715Z" fill="#DEDFE0"/>
<path d="M224.977 170.413C237.953 168.999 247.186 158.264 245.604 146.44C244.023 134.616 232.256 126.223 219.279 127.66C206.302 129.098 197.07 139.832 198.651 151.634C200.232 163.435 212 171.851 224.977 170.413Z" fill="#DFE0E0"/>
<path d="M224.861 170.135C237.722 168.721 246.885 158.056 245.326 146.347C243.768 134.639 232.071 126.292 219.187 127.799C206.303 129.306 197.164 139.879 198.722 151.587C200.28 163.296 211.978 171.573 224.861 170.135Z" fill="#E0E1E1"/>
<path d="M224.745 169.857C237.512 168.443 246.605 157.87 245.047 146.255C243.489 134.639 231.884 126.339 219.117 127.707C206.349 129.075 197.256 139.693 198.814 151.309C200.373 162.925 211.954 171.225 224.745 169.857Z" fill="#E1E2E2"/>
<path d="M224.606 169.579C237.28 168.164 246.303 157.685 244.768 146.162C243.233 134.639 231.699 126.408 219.047 127.799C206.396 129.19 197.35 139.693 198.885 151.216C200.419 162.739 211.931 170.97 224.606 169.579Z" fill="#E2E3E3"/>
<path d="M224.488 169.277C237.046 167.886 246 157.499 244.488 146.092C242.977 134.685 231.535 126.501 218.907 127.892C206.279 129.283 197.395 139.693 198.93 151.077C200.465 162.461 211.93 170.668 224.488 169.277Z" fill="#E3E3E4"/>
<path d="M224.372 168.906C236.837 167.538 245.721 157.314 244.186 145.861C242.651 134.407 231.349 126.432 218.884 127.799C206.419 129.167 197.535 139.508 199.046 150.845C200.558 162.183 211.907 170.39 224.372 168.906Z" fill="#E4E4E5"/>
<path d="M224.232 168.721C236.604 167.353 245.418 157.128 243.907 145.861C242.395 134.593 231.162 126.571 218.813 127.938C206.465 129.306 197.627 139.531 199.139 150.799C200.651 162.067 211.883 170.089 224.232 168.721Z" fill="#E5E5E6"/>
<path d="M224.116 168.443C236.372 167.075 245.046 156.85 243.627 145.768C242.209 134.685 231 126.64 218.72 127.985C206.441 129.33 197.79 139.577 199.209 150.66C200.627 161.742 211.86 169.787 224.116 168.443Z" fill="#E6E6E7"/>
<path d="M224.001 168.141C236.164 166.797 244.932 156.734 243.35 145.652C241.769 134.569 230.815 126.71 218.652 128.031C206.49 129.353 197.722 139.461 199.304 150.521C200.885 161.58 211.838 169.486 224.001 168.141Z" fill="#E7E7E8"/>
<path d="M223.883 167.863C235.93 166.518 244.535 156.549 243.07 145.559C241.604 134.569 230.628 126.756 218.558 128.101C206.488 129.446 197.907 139.415 199.372 150.382C200.837 161.348 211.814 169.185 223.883 167.863Z" fill="#E8E8E9"/>
<path d="M223.745 167.585C235.722 166.263 244.234 156.363 242.792 145.466C241.35 134.569 230.443 126.918 218.49 128.147C206.536 129.376 198.001 139.369 199.466 150.242C200.932 161.116 211.792 168.906 223.745 167.585Z" fill="#E9E9EA"/>
<path d="M223.628 167.283C235.488 165.985 243.93 156.155 242.488 145.374C241.047 134.593 230.279 126.826 218.419 128.194C206.558 129.561 198.093 139.322 199.535 150.127C200.977 160.931 211.768 168.605 223.628 167.283Z" fill="#EAEAEB"/>
<path d="M223.512 167.005C235.14 165.707 243.652 155.969 242.117 145.281C240.582 134.593 230.001 126.942 218.233 128.24C206.466 129.538 198.094 139.276 199.629 149.987C201.164 160.699 211.745 168.304 223.512 167.005Z" fill="#EBEBEC"/>
<path d="M223.373 166.727C235.001 165.429 243.35 155.784 241.978 145.165C240.606 134.546 229.955 126.988 218.303 128.286C206.652 129.585 198.327 139.23 199.699 149.848C201.071 160.467 211.722 168.002 223.373 166.727Z" fill="#EBECEC"/>
<path d="M223.164 166.449C234.792 165.174 242.955 155.598 241.56 145.072C240.164 134.546 229.653 127.057 218.094 128.333C206.536 129.608 198.304 139.183 199.699 149.709C201.094 160.235 211.699 167.724 223.164 166.449Z" fill="#ECEDED"/>
<path d="M223.164 166.147C234.606 164.895 242.769 155.413 241.397 144.979C240.025 134.546 229.583 127.104 218.141 128.379C206.699 129.654 198.536 139.137 199.908 149.57C201.28 160.003 211.676 167.423 223.164 166.147Z" fill="#EDEEEE"/>
<path d="M223.023 165.869C234.372 164.617 242.465 155.227 241.07 144.887C239.674 134.546 229.442 127.173 218.023 128.425C206.605 129.677 198.581 139.091 199.953 149.431C201.326 159.772 211.651 167.121 223.023 165.869Z" fill="#EEEFEF"/>
<path d="M222.883 165.591C234.139 164.339 242.162 155.019 240.79 144.724C239.418 134.43 229.162 127.173 217.93 128.495C206.697 129.817 198.674 139.067 200.023 149.361C201.372 159.656 211.535 166.82 222.883 165.591Z" fill="#EFF0F0"/>
<path d="M222.767 165.313C233.93 164.061 241.86 154.833 240.512 144.678C239.163 134.523 229.023 127.289 217.86 128.449C206.698 129.608 198.767 138.928 200.116 149.083C201.465 159.238 211.535 166.588 222.767 165.313Z" fill="#F0F1F1"/>
<path d="M222.652 165.011C233.698 163.806 241.582 154.648 240.233 144.585C238.884 134.523 228.838 127.359 217.791 128.565C206.745 129.77 198.861 138.951 200.186 149.014C201.512 159.076 211.535 166.24 222.652 165.011Z" fill="#F1F2F2"/>
<path d="M222.512 164.733C233.466 163.527 241.28 154.462 239.954 144.493C238.629 134.523 228.652 127.405 217.698 128.611C206.745 129.816 198.954 138.905 200.28 148.875C201.605 158.844 211.536 165.939 222.512 164.733Z" fill="#F2F3F3"/>
<path d="M222.395 164.455C233.256 163.249 241 154.277 239.651 144.377C238.302 134.477 228.488 127.475 217.628 128.657C206.767 129.84 199.023 138.859 200.349 148.735C201.674 158.612 211.535 165.637 222.395 164.455Z" fill="#F3F4F4"/>
<path d="M222.28 164.269C233.024 163.087 240.675 154.184 239.373 144.4C238.071 134.616 228.303 127.637 217.559 128.843C206.815 130.048 199.141 138.928 200.443 148.712C201.745 158.496 211.536 165.359 222.28 164.269Z" fill="#F4F5F5"/>
<path d="M222.141 163.875C232.792 162.693 240.397 153.883 239.094 144.191C237.792 134.5 228.118 127.591 217.466 128.773C206.815 129.956 199.234 138.766 200.536 148.457C201.839 158.149 211.536 165.058 222.141 163.875Z" fill="#F5F5F6"/>
<path d="M222.023 163.597C232.581 162.438 240.093 153.697 238.814 144.098C237.535 134.5 227.93 127.637 217.395 128.82C206.86 130.002 199.325 138.72 200.604 148.318C201.883 157.917 211.535 164.756 222.023 163.597Z" fill="#F6F6F7"/>
<path d="M221.907 163.319C232.349 162.16 239.791 153.512 238.535 144.006C237.279 134.5 227.768 127.776 217.303 128.866C206.838 129.956 199.419 138.673 200.698 148.179C201.977 157.685 211.535 164.478 221.907 163.319Z" fill="#F7F7F8"/>
<path d="M221.791 163.017C232.14 161.881 239.512 153.326 238.256 143.89C237 134.453 227.582 127.66 217.326 128.912C207.07 130.164 199.605 138.627 200.861 148.04C202.116 157.453 211.535 164.269 221.791 163.017Z" fill="#F8F8F9"/>
<path d="M221.653 162.739C231.908 161.603 239.211 153.117 237.932 143.797C236.653 134.477 227.373 127.823 217.141 128.959C206.908 130.095 199.583 138.58 200.862 147.901C202.141 157.221 211.536 163.875 221.653 162.739Z" fill="#F9F9F9"/>
<path d="M221.535 162.461C231.674 161.348 238.907 152.932 237.674 143.704C236.442 134.477 227.232 127.892 217.07 129.005C206.907 130.118 199.698 138.534 200.93 147.762C202.163 156.989 211.395 163.574 221.535 162.461Z" fill="#FAFAFA"/>
<path d="M221.418 162.183C231.465 161.07 238.604 152.747 237.395 143.635C236.186 134.523 227.046 127.962 216.999 129.075C206.953 130.188 199.79 138.511 201.023 147.623C202.255 156.734 211.372 163.296 221.418 162.183Z" fill="#FBFBFB"/>
<path d="M221.28 161.951C231.233 160.861 238.326 152.677 237.117 143.565C235.908 134.454 226.861 128.078 216.908 129.167C206.954 130.257 199.884 138.441 201.094 147.553C202.303 156.665 211.349 162.994 221.28 161.951Z" fill="#FCFCFC"/>
<path d="M221.163 161.603C231.023 160.513 238.023 152.329 236.837 143.403C235.651 134.477 226.675 128.054 216.837 129.144C207 130.234 199.977 138.418 201.186 147.344C202.396 156.271 211.326 162.693 221.163 161.603Z" fill="#FDFDFD"/>
<path d="M221.047 161.325C230.792 160.235 237.722 152.19 236.536 143.31C235.35 134.43 226.513 128.124 216.768 129.191C207.024 130.257 200.071 138.349 201.257 147.205C202.443 156.062 211.303 162.391 221.047 161.325Z" fill="#FEFEFE"/>
<path d="M220.838 161.047C230.466 159.98 237.349 151.981 236.163 143.217C234.977 134.454 226.233 128.17 216.582 129.306C206.931 130.443 200.07 138.372 201.256 147.136C202.442 155.9 211.28 162.113 220.838 161.047Z" fill="white"/>
<path d="M217.652 132.019C216.067 131.217 214.241 131.026 212.524 131.484C210.807 131.942 209.321 133.016 208.349 134.5C207.89 135.201 207.585 135.991 207.454 136.817C207.323 137.644 207.369 138.489 207.588 139.297C207.808 140.105 208.196 140.858 208.728 141.506C209.26 142.153 209.924 142.681 210.675 143.055C212.257 143.868 214.087 144.064 215.807 143.606C217.526 143.147 219.013 142.066 219.977 140.574C220.436 139.873 220.742 139.084 220.873 138.257C221.004 137.43 220.958 136.585 220.739 135.777C220.519 134.969 220.13 134.216 219.598 133.569C219.066 132.921 218.403 132.393 217.652 132.019Z" fill="url(#paint8_linear_3551_43288)"/>
<path d="M215.488 135.474C214.892 135.164 214.202 135.088 213.552 135.26C212.903 135.431 212.341 135.838 211.977 136.401C211.816 136.669 211.712 136.966 211.67 137.275C211.627 137.585 211.648 137.899 211.731 138.2C211.813 138.501 211.956 138.782 212.15 139.027C212.344 139.271 212.586 139.474 212.86 139.624C213.46 139.925 214.151 139.995 214.799 139.82C215.447 139.644 216.008 139.236 216.372 138.673C216.528 138.406 216.63 138.111 216.67 137.804C216.71 137.497 216.689 137.186 216.606 136.888C216.524 136.59 216.383 136.311 216.191 136.068C215.999 135.825 215.76 135.623 215.488 135.474Z" fill="#264526"/>
<path d="M220.234 131.393C219.583 131.069 218.835 130.994 218.133 131.182C217.43 131.37 216.821 131.808 216.42 132.413C216.233 132.702 216.108 133.027 216.055 133.367C216.002 133.707 216.021 134.054 216.11 134.387C216.2 134.719 216.359 135.029 216.577 135.296C216.794 135.563 217.066 135.781 217.373 135.937C218.024 136.261 218.772 136.336 219.474 136.149C220.177 135.961 220.786 135.523 221.187 134.917C221.374 134.628 221.499 134.303 221.552 133.963C221.605 133.623 221.586 133.276 221.497 132.944C221.407 132.612 221.248 132.302 221.03 132.035C220.813 131.768 220.541 131.549 220.234 131.393Z" fill="white"/>
</g>
<defs>
<linearGradient id="paint0_linear_3551_43288" x1="-75.0037" y1="177.297" x2="784.131" y2="855.991" gradientUnits="userSpaceOnUse">
<stop stop-color="#4B008B"/>
<stop offset="1" stop-color="#FF2692"/>
</linearGradient>
<linearGradient id="paint1_linear_3551_43288" x1="173.651" y1="-1.99729" x2="139.302" y2="108.401" gradientUnits="userSpaceOnUse">
<stop stop-color="white"/>
<stop offset="1" stop-color="#B0B0AF"/>
</linearGradient>
<linearGradient id="paint2_linear_3551_43288" x1="209.687" y1="55.1831" x2="284.48" y2="65.8737" gradientUnits="userSpaceOnUse">
<stop stop-color="#B0B0AF"/>
<stop offset="1" stop-color="white"/>
</linearGradient>
<linearGradient id="paint3_linear_3551_43288" x1="5799.28" y1="30958.8" x2="4913.37" y2="30229.6" gradientUnits="userSpaceOnUse">
<stop stop-color="white"/>
<stop offset="1" stop-color="#B0B0AF"/>
</linearGradient>
<linearGradient id="paint4_linear_3551_43288" x1="-70575.6" y1="77050" x2="-73581.9" y2="68991" gradientUnits="userSpaceOnUse">
<stop stop-color="white"/>
<stop offset="1" stop-color="#B0B0AF"/>
</linearGradient>
<linearGradient id="paint5_linear_3551_43288" x1="167.562" y1="148.317" x2="199.768" y2="144.401" gradientUnits="userSpaceOnUse">
<stop stop-color="white"/>
<stop offset="0.94" stop-color="#69A742"/>
</linearGradient>
<linearGradient id="paint6_linear_3551_43288" x1="173.228" y1="140.753" x2="160.732" y2="128.04" gradientUnits="userSpaceOnUse">
<stop offset="0.2" stop-color="#A0BF38"/>
<stop offset="0.8" stop-color="#4D8B3F"/>
</linearGradient>
<linearGradient id="paint7_linear_3551_43288" x1="17387.8" y1="35780.6" x2="17387.8" y2="36340.3" gradientUnits="userSpaceOnUse">
<stop stop-color="white"/>
<stop offset="0.94" stop-color="#69A742"/>
</linearGradient>
<linearGradient id="paint8_linear_3551_43288" x1="-8192.85" y1="-8925.57" x2="-8269.09" y2="-8969.52" gradientUnits="userSpaceOnUse">
<stop offset="0.2" stop-color="#A0BF38"/>
<stop offset="0.8" stop-color="#4D8B3F"/>
</linearGradient>
<clipPath id="clip0_3551_43288">
<rect width="250" height="373" fill="white" transform="translate(46 0.18927)"/>
</clipPath>
</defs>
</svg>
