<svg width="452" height="289" viewBox="0 0 452 289" fill="none" xmlns="http://www.w3.org/2000/svg">
<g clip-path="url(#clip0_2261_40245)">
<path d="M179.736 89.9632C170.981 98.7184 158.805 102.529 145.682 104.183C143.284 96.8967 140.106 86.8775 136.276 82.0446L152.169 75.6316C152.811 75.3686 153.388 74.9674 153.857 74.4565C154.326 73.9456 154.677 73.3375 154.885 72.6755C155.093 72.0136 155.152 71.314 155.058 70.6265C154.965 69.9391 154.721 69.2807 154.344 68.6981C149.418 60.9282 148.898 50.4629 151.203 41.336C152.883 34.7201 155.824 28.4906 159.865 22.9893C160.04 22.7441 160.29 22.5631 160.578 22.4741C160.866 22.385 161.175 22.3927 161.457 22.4962C161.74 22.5996 161.981 22.7929 162.144 23.0465C162.306 23.3001 162.38 23.6 162.356 23.9001C160.497 47.5074 176.595 70.7986 179.085 74.4791C182.19 80.6133 183.565 86.134 179.736 89.9632Z" fill="#6DB6E4"/>
<path d="M179.736 89.9632C170.981 98.7184 158.805 102.529 145.682 104.183C143.284 96.8967 140.106 86.8775 136.276 82.0446L152.169 75.6316C152.811 75.3686 153.388 74.9674 153.857 74.4565C154.326 73.9456 154.677 73.3375 154.885 72.6755C155.093 72.0136 155.152 71.314 155.058 70.6265C154.965 69.9391 154.721 69.2807 154.344 68.6981C149.418 60.9282 148.898 50.4629 151.203 41.336C152.883 34.7201 155.824 28.4906 159.865 22.9893C160.04 22.7441 160.29 22.5631 160.578 22.4741C160.866 22.385 161.175 22.3927 161.457 22.4962C161.74 22.5996 161.981 22.7929 162.144 23.0465C162.306 23.3001 162.38 23.6 162.356 23.9001C160.497 47.5074 176.595 70.7986 179.085 74.4791C182.19 80.6133 183.565 86.134 179.736 89.9632Z" fill="url(#paint0_linear_2261_40245)"/>
<path d="M189.793 204.746C188.473 199.17 184.737 193.779 182.357 188.482C179.978 183.184 175.87 176.548 170.963 173.444L176.261 234.228C175.833 234.228 185.22 230.138 184.793 230.138C188.572 226.721 190.917 221.998 191.354 216.922C191.455 212.808 190.928 208.702 189.793 204.746Z" fill="#6DB6E4"/>
<path d="M189.793 204.746C188.473 199.17 184.737 193.779 182.357 188.482C179.978 183.184 175.87 176.548 170.963 173.444L176.261 234.228C175.833 234.228 185.22 230.138 184.793 230.138C188.572 226.721 190.917 221.998 191.354 216.922C191.455 212.808 190.928 208.702 189.793 204.746Z" fill="url(#paint1_linear_2261_40245)"/>
<path d="M143.786 55.7792C132.856 61.0955 130.124 73.3824 129.789 74.3676L143.879 84.7213C142.541 78.773 144.939 63.6235 146.165 57.4707C146.204 57.1734 146.16 56.8712 146.04 56.5965C145.92 56.3218 145.728 56.085 145.483 55.9113C145.239 55.7375 144.952 55.6335 144.653 55.6102C144.354 55.587 144.054 55.6454 143.786 55.7792Z" fill="#6DB6E4"/>
<path d="M143.786 55.7792C132.856 61.0955 130.124 73.3824 129.789 74.3676L143.879 84.7213C142.541 78.773 144.939 63.6235 146.165 57.4707C146.204 57.1734 146.16 56.8712 146.04 56.5965C145.92 56.3218 145.728 56.085 145.483 55.9113C145.239 55.7375 144.952 55.6335 144.653 55.6102C144.354 55.587 144.054 55.6454 143.786 55.7792Z" fill="url(#paint2_linear_2261_40245)"/>
<path d="M87.6866 55.7234C87.6866 55.7234 18.9096 66.4861 20.7685 178.834C20.7685 178.834 19.1513 277.353 58.8375 281.628C58.8375 281.628 69.247 283.729 77.7419 264.75C86.6457 244.916 118.636 244.637 137.225 250.753C146.519 253.857 149.233 259.155 152.43 270.791C152.43 270.791 157.133 282.186 167.803 281.405C168.416 281.405 169.048 281.405 169.661 281.405C181.242 280.457 196.243 254.675 179.327 153.48C179.253 153.443 158.862 44.18 87.6866 55.7234Z" fill="#6DB6E4"/>
<path d="M154.661 141.992L175.387 138.033L176.409 141.639L176.911 147.476C168.751 149.167 160.628 150.468 152.746 151.454L154.661 141.992Z" fill="url(#paint3_linear_2261_40245)"/>
<path d="M39.1148 132.605C38.4192 133.162 37.8516 133.862 37.4507 134.658C37.0498 135.454 36.825 136.327 36.7915 137.218C36.758 138.108 36.9166 138.996 37.2565 139.82C37.5965 140.643 38.1098 141.384 38.7616 141.992C43.1671 146.565 57.2385 154.539 77.7043 153.573C68.0384 148.74 50.5095 124.333 39.1148 132.605Z" fill="#5079E2"/>
<path d="M189.643 144.483C149.976 153.61 77.7041 153.61 77.7041 153.61L185.349 199.486C184.327 173.072 189.643 144.483 189.643 144.483Z" fill="#6DB6E4"/>
<path d="M141.909 152.402L157.561 150.952C163.267 113.942 151.984 94.3315 151.984 94.3315C152.319 108.161 141.909 152.402 141.909 152.402Z" fill="#FAFDEA"/>
<path d="M151.965 94.3315V95.5025C151.965 95.2981 151.965 95.075 152.077 94.8892C152.188 94.7033 158.192 116.024 150.218 151.751L157.653 150.952C163.36 113.942 151.965 94.3315 151.965 94.3315Z" fill="#E8F59A"/>
<path d="M186.521 94.8892C184.702 113.137 180.496 131.066 174.011 148.219L189.309 145.152C195.053 108.719 186.521 94.8892 186.521 94.8892Z" fill="#ECF7AA"/>
<path d="M186.521 94.8892C186.521 94.8892 191.373 112.455 181.168 146.788L189.31 145.152C195.053 108.719 186.521 94.8892 186.521 94.8892Z" fill="#E1F279"/>
<path d="M57.573 51.3738C57.5356 51.0081 57.3905 50.6617 57.1562 50.3784C56.922 50.0951 56.609 49.8876 56.2569 49.7821C55.9047 49.6767 55.5292 49.678 55.1778 49.786C54.8264 49.8939 54.515 50.1036 54.2828 50.3886C42.9067 65.1292 47.5538 87.3981 47.5538 87.3981L66.5325 82.7695C59.8592 75.4085 58.0748 59.2552 57.573 51.3738Z" fill="#6DB6E4"/>
<path d="M25.8056 177.775C9.37351 189.801 1.06449 208.408 1.0459 224.655C1.0459 231.941 5.04245 234.953 7.14294 235.547C9.65149 236.308 12.3552 236.089 14.7084 234.934C17.5331 233.215 19.6145 230.504 20.5451 227.331C24.2628 217.87 24.932 207.832 29.0958 198.519C31.7006 192.832 35.3372 187.676 39.8212 183.314L25.8056 177.775Z" fill="#6DB6E4"/>
<path d="M60.2129 69.2186C60.2129 69.2186 62.239 79.2563 68.02 83.5502C66.4292 77.49 65.8019 71.2171 66.1612 64.9619C64.1085 66.2804 62.1232 67.7011 60.2129 69.2186Z" fill="url(#paint4_linear_2261_40245)"/>
<path d="M72.2766 152.476L71.7561 152.327L52.7588 150.059C76.3474 156.919 109.119 156.361 134.287 155.264C144.511 154.818 161.371 153.405 165.144 153.201C186.818 151.77 188.064 154.372 188.064 154.372L189.606 144.483C131.927 159.614 72.2766 152.476 72.2766 152.476Z" fill="url(#paint5_linear_2261_40245)"/>
<path d="M69.8047 147.624C60.1759 139.111 47.8518 126.266 39.1153 132.605C38.03 133.514 37.2619 134.744 36.9219 136.118C40.8812 139.538 53.5585 149.093 69.8047 147.624Z" fill="#3C5AA8"/>
<path d="M35.8992 194.634C27.3672 209.078 25.8801 225.157 25.6756 232.778C24.5975 227.461 23.8167 222.108 23.0918 216.959C25.0966 208.429 29.5478 200.67 35.8992 194.634Z" fill="url(#paint6_linear_2261_40245)"/>
<path style="mix-blend-mode:multiply" opacity="0.5" d="M90.5303 99.7036C90.5303 104.667 92.002 109.518 94.7594 113.645C97.5168 117.772 101.436 120.988 106.021 122.888C110.607 124.787 115.652 125.284 120.52 124.316C125.388 123.347 129.859 120.957 133.369 117.448C136.878 113.938 139.268 109.467 140.237 104.599C141.205 99.7314 140.708 94.6858 138.809 90.1004C136.909 85.515 133.693 81.5958 129.566 78.8384C125.439 76.081 120.588 74.6092 115.625 74.6092C112.328 74.6068 109.064 75.2542 106.019 76.5144C102.973 77.7747 100.205 79.623 97.8748 81.9537C95.544 84.2844 93.6958 87.0518 92.4355 90.0975C91.1753 93.1432 90.5278 96.4074 90.5303 99.7036Z" fill="url(#paint7_linear_2261_40245)"/>
<path d="M90.5303 95.3167C90.5303 100.28 92.002 105.132 94.7594 109.258C97.5168 113.385 101.436 116.601 106.021 118.501C110.607 120.4 115.652 120.897 120.52 119.929C125.388 118.961 129.859 116.571 133.369 113.061C136.878 109.552 139.268 105.08 140.237 100.212C141.205 95.3445 140.708 90.2989 138.809 85.7135C136.909 81.1281 133.693 77.2089 129.566 74.4515C125.439 71.6941 120.588 70.2224 115.625 70.2224C108.969 70.2224 102.586 72.8662 97.8802 77.5723C93.1741 82.2784 90.5303 88.6613 90.5303 95.3167Z" fill="#D8D9DA"/>
<path d="M90.8652 95.3539C90.8652 100.28 92.3261 105.096 95.063 109.192C97.8 113.288 101.69 116.481 106.242 118.366C110.793 120.251 115.801 120.745 120.633 119.784C125.465 118.823 129.903 116.45 133.387 112.967C136.87 109.483 139.242 105.045 140.204 100.213C141.165 95.3815 140.671 90.3732 138.786 85.8218C136.901 81.2704 133.708 77.3802 129.612 74.6433C125.516 71.9063 120.7 70.4454 115.774 70.4454C109.168 70.4454 102.832 73.0697 98.1607 77.7409C93.4895 82.4122 90.8652 88.7477 90.8652 95.3539Z" fill="#D9DADB"/>
<path d="M91.2373 95.4096C91.2373 100.299 92.6873 105.079 95.4038 109.145C98.1204 113.21 101.982 116.379 106.499 118.25C111.016 120.121 115.987 120.611 120.783 119.657C125.579 118.703 129.984 116.349 133.441 112.891C136.899 109.434 139.253 105.028 140.207 100.233C141.161 95.437 140.672 90.4662 138.8 85.9487C136.929 81.4313 133.761 77.5701 129.695 74.8536C125.629 72.137 120.849 70.6871 115.96 70.6871C109.403 70.6871 103.115 73.2918 98.4783 77.9281C93.8419 82.5645 91.2373 88.8528 91.2373 95.4096Z" fill="#DADBDC"/>
<path d="M91.5898 95.4468C91.5898 100.3 93.0289 105.044 95.725 109.079C98.4212 113.114 102.253 116.259 106.737 118.116C111.22 119.973 116.154 120.459 120.913 119.512C125.673 118.565 130.045 116.228 133.477 112.797C136.908 109.365 139.245 104.993 140.192 100.234C141.138 95.474 140.653 90.5405 138.795 86.057C136.938 81.5735 133.793 77.7414 129.758 75.0453C125.723 72.3492 120.979 70.9101 116.127 70.9101C109.619 70.9101 103.378 73.4952 98.7764 78.0968C94.1749 82.6983 91.5898 88.9393 91.5898 95.4468Z" fill="#DBDCDD"/>
<path d="M91.9434 95.5026C91.9397 100.324 93.3663 105.038 96.0426 109.048C98.7189 113.059 102.525 116.185 106.978 118.032C111.432 119.879 116.333 120.363 121.062 119.423C125.791 118.483 130.135 116.162 133.544 112.753C136.954 109.344 139.275 105 140.215 100.271C141.154 95.5419 140.67 90.6405 138.824 86.1868C136.977 81.7331 133.85 77.9274 129.84 75.251C125.83 72.5747 121.115 71.1481 116.294 71.1518C109.837 71.1567 103.646 73.7238 99.0809 78.2894C94.5153 82.855 91.9483 89.0458 91.9434 95.5026Z" fill="#DCDDDE"/>
<path d="M92.2969 95.5398C92.2969 100.319 93.7141 104.991 96.3693 108.965C99.0246 112.939 102.799 116.036 107.214 117.865C111.63 119.694 116.489 120.173 121.176 119.24C125.864 118.308 130.169 116.006 133.549 112.627C136.928 109.247 139.23 104.942 140.162 100.254C141.095 95.5666 140.616 90.7078 138.787 86.2923C136.958 81.8767 133.861 78.1027 129.887 75.4474C125.913 72.7921 121.241 71.3748 116.462 71.3748C110.053 71.3748 103.906 73.9208 99.3746 78.4526C94.8428 82.9844 92.2969 89.1308 92.2969 95.5398Z" fill="#DDDEDF"/>
<path d="M92.7236 95.5955C92.72 100.343 94.1248 104.986 96.7602 108.935C99.3957 112.884 103.143 115.963 107.529 117.781C111.915 119.6 116.742 120.077 121.398 119.152C126.055 118.226 130.333 115.94 133.69 112.583C137.047 109.226 139.333 104.948 140.259 100.291C141.184 95.6344 140.707 90.8078 138.889 86.4221C137.07 82.0363 133.991 78.2885 130.042 75.6531C126.093 73.0176 121.451 71.6128 116.703 71.6165C110.345 71.6214 104.248 74.1494 99.7524 78.6452C95.2565 83.1411 92.7286 89.2374 92.7236 95.5955Z" fill="#DEDFE0"/>
<path d="M93.0029 95.6327C93.003 100.339 94.3976 104.94 97.0108 108.854C99.624 112.768 103.338 115.82 107.685 117.625C112.032 119.429 116.816 119.905 121.433 118.992C126.05 118.079 130.293 115.819 133.626 112.496C136.959 109.174 139.233 104.938 140.16 100.324C141.087 95.7094 140.626 90.9241 138.835 86.5718C137.044 82.2195 134.004 78.4955 130.098 75.8701C126.192 73.2447 121.595 71.8357 116.889 71.821C113.756 71.8112 110.651 72.4199 107.754 73.6121C104.856 74.8044 102.222 76.5568 100.003 78.7689C97.7844 80.981 96.0238 83.6093 94.8225 86.5031C93.6212 89.3969 93.0029 92.4994 93.0029 95.6327Z" fill="#DFE0E0"/>
<path d="M93.3564 95.6884C93.3564 100.361 94.742 104.929 97.338 108.814C99.9341 112.7 103.624 115.728 107.941 117.516C112.258 119.304 117.008 119.772 121.591 118.86C126.174 117.949 130.384 115.699 133.688 112.394C136.992 109.09 139.243 104.881 140.154 100.298C141.066 95.7147 140.598 90.9643 138.81 86.6473C137.021 82.3302 133.993 78.6403 130.108 76.0443C126.223 73.4482 121.655 72.0626 116.982 72.0626C110.716 72.0626 104.707 74.5518 100.276 78.9825C95.8456 83.4132 93.3564 89.4225 93.3564 95.6884Z" fill="#E0E1E1"/>
<path d="M93.709 95.7256C93.7053 100.362 95.0769 104.896 97.6503 108.753C100.224 112.61 103.883 115.618 108.166 117.395C112.449 119.172 117.162 119.638 121.71 118.736C126.258 117.834 130.437 115.603 133.717 112.325C136.997 109.048 139.231 104.871 140.137 100.324C141.043 95.7766 140.58 91.0626 138.806 86.7784C137.033 82.4942 134.028 78.8323 130.173 76.2559C126.318 73.6795 121.786 72.3043 117.149 72.3043C110.937 72.3092 104.981 74.7778 100.586 79.1685C96.1921 83.5593 93.7188 89.5137 93.709 95.7256Z" fill="#E1E2E2"/>
<path d="M94.0625 95.7814C94.0625 100.381 95.4264 104.877 97.9816 108.701C100.537 112.525 104.169 115.505 108.418 117.265C112.667 119.025 117.342 119.486 121.853 118.589C126.364 117.691 130.508 115.477 133.76 112.224C137.012 108.972 139.227 104.829 140.124 100.318C141.021 95.8072 140.561 91.1316 138.801 86.8825C137.04 82.6333 134.06 79.0015 130.236 76.4463C126.412 73.8912 121.916 72.5273 117.317 72.5273C111.149 72.5273 105.234 74.9773 100.874 79.3383C96.5125 83.6993 94.0625 89.6141 94.0625 95.7814Z" fill="#E2E3E3"/>
<path d="M94.415 95.8186C94.4114 100.382 95.7612 104.844 98.2937 108.64C100.826 112.436 104.428 115.395 108.643 117.144C112.857 118.893 117.496 119.352 121.972 118.464C126.448 117.576 130.56 115.381 133.788 112.155C137.016 108.93 139.215 104.82 140.107 100.344C140.998 95.8691 140.543 91.2299 138.797 87.0137C137.052 82.7974 134.095 79.1935 130.301 76.658C126.507 74.1224 122.047 72.769 117.483 72.769C111.368 72.769 105.504 75.1968 101.178 79.5189C96.8526 83.841 94.42 89.7037 94.415 95.8186Z" fill="#E3E3E4"/>
<path d="M94.7686 95.8743C94.7686 100.4 96.1106 104.824 98.625 108.587C101.139 112.35 104.713 115.283 108.894 117.015C113.075 118.747 117.676 119.2 122.115 118.317C126.554 117.434 130.631 115.255 133.831 112.055C137.031 108.854 139.211 104.777 140.094 100.338C140.976 95.8997 140.523 91.2988 138.791 87.1176C137.059 82.9364 134.127 79.3627 130.364 76.8484C126.601 74.3341 122.177 72.9921 117.651 72.9921C111.582 72.9921 105.762 75.4029 101.471 79.6941C97.1794 83.9854 94.7686 89.8056 94.7686 95.8743Z" fill="#E4E4E5"/>
<path d="M95.1221 95.9859C95.1184 100.476 96.4464 104.865 98.9381 108.6C101.43 112.335 104.973 115.247 109.12 116.968C113.267 118.689 117.831 119.141 122.235 118.267C126.639 117.393 130.685 115.233 133.861 112.06C137.037 108.886 139.2 104.842 140.077 100.439C140.955 96.0359 140.506 91.4715 138.789 87.3232C137.072 83.1749 134.163 79.6291 130.43 77.1344C126.697 74.6396 122.308 73.308 117.819 73.308C111.802 73.308 106.032 75.6967 101.776 79.9491C97.5204 84.2015 95.127 89.9696 95.1221 95.9859Z" fill="#E5E5E6"/>
<path d="M95.4746 95.9859C95.4746 100.438 96.7948 104.79 99.2683 108.492C101.742 112.194 105.257 115.079 109.371 116.783C113.484 118.487 118.01 118.932 122.377 118.064C126.743 117.195 130.754 115.051 133.903 111.903C137.051 108.755 139.195 104.744 140.063 100.377C140.932 96.0108 140.486 91.4847 138.782 87.3714C137.078 83.2582 134.193 79.7425 130.491 77.2691C126.789 74.7956 122.437 73.4753 117.985 73.4753C112.015 73.4753 106.289 75.847 102.068 80.0685C97.8462 84.2901 95.4746 90.0157 95.4746 95.9859Z" fill="#E6E6E7"/>
<path d="M95.8281 95.9859C95.8281 100.398 97.1364 104.71 99.5874 108.378C102.038 112.047 105.522 114.906 109.598 116.594C113.674 118.282 118.159 118.724 122.486 117.863C126.813 117.003 130.787 114.878 133.907 111.759C137.027 108.639 139.151 104.665 140.012 100.338C140.872 96.0106 140.431 91.5256 138.742 87.4497C137.054 83.3738 134.195 79.8901 130.527 77.4391C126.859 74.988 122.546 73.6798 118.134 73.6798C112.218 73.6798 106.545 76.0299 102.361 80.2131C98.1782 84.3963 95.8281 90.0699 95.8281 95.9859Z" fill="#E7E7E8"/>
<path d="M96.1816 95.9859C96.1816 100.364 97.4801 104.645 99.9127 108.286C102.345 111.926 105.803 114.764 109.848 116.439C113.894 118.115 118.345 118.553 122.639 117.699C126.934 116.845 130.879 114.736 133.975 111.64C137.071 108.544 139.18 104.599 140.034 100.305C140.888 96.0104 140.45 91.559 138.774 87.5137C137.098 83.4684 134.261 80.0108 130.62 77.5782C126.979 75.1455 122.699 73.8471 118.32 73.8471C112.45 73.852 106.822 76.1861 102.671 80.3368C98.5206 84.4876 96.1866 90.1158 96.1816 95.9859Z" fill="#E8E8E9"/>
<path d="M96.5527 96.0974C96.5491 100.441 97.834 104.688 100.245 108.301C102.656 111.914 106.084 114.73 110.096 116.394C114.108 118.058 118.524 118.494 122.784 117.648C127.044 116.802 130.957 114.71 134.029 111.639C137.1 108.568 139.191 104.654 140.038 100.394C140.884 96.134 140.448 91.7185 138.784 87.7064C137.12 83.6943 134.303 80.2659 130.69 77.8551C127.077 75.4443 122.83 74.1594 118.487 74.1631C112.67 74.1631 107.091 76.474 102.977 80.5875C98.8636 84.701 96.5527 90.2801 96.5527 96.0974Z" fill="#E9E9EA"/>
<path d="M96.9063 96.1532C96.9063 100.455 98.1811 104.661 100.57 108.239C102.958 111.816 106.353 114.606 110.326 116.256C114.299 117.906 118.672 118.341 122.893 117.507C127.113 116.673 130.991 114.608 134.039 111.571C137.086 108.534 139.165 104.663 140.013 100.445C140.861 96.2276 140.441 91.8533 138.805 87.8747C137.168 83.896 134.39 80.4914 130.82 78.0907C127.251 75.69 123.049 74.4009 118.748 74.3862C115.883 74.3764 113.044 74.9322 110.395 76.0217C107.745 77.1112 105.337 78.713 103.308 80.7352C101.279 82.7575 99.6688 85.1603 98.5703 87.8061C97.4717 90.4518 96.9062 93.2884 96.9063 96.1532Z" fill="#EAEAEB"/>
<path d="M97.2598 96.1903C97.2598 100.463 98.5279 104.639 100.903 108.19C103.279 111.741 106.655 114.507 110.604 116.137C114.553 117.768 118.897 118.19 123.085 117.35C127.274 116.509 131.119 114.445 134.134 111.417C137.148 108.39 139.196 104.536 140.019 100.343C140.841 96.1509 140.4 91.8088 138.752 87.867C137.105 83.9252 134.324 80.5612 130.763 78.201C127.202 75.8409 123.02 74.5908 118.748 74.6092C113.039 74.6289 107.571 76.9119 103.542 80.9575C99.5142 85.0032 97.2548 90.4812 97.2598 96.1903Z" fill="#EBEBEC"/>
<path d="M97.6123 96.2461C97.6123 100.479 98.8676 104.616 101.219 108.135C103.571 111.653 106.914 114.396 110.824 116.015C114.735 117.633 119.038 118.056 123.188 117.229C127.339 116.402 131.151 114.362 134.143 111.368C137.134 108.374 139.17 104.56 139.994 100.409C140.817 96.2572 140.391 91.9548 138.769 88.0457C137.147 84.1365 134.401 80.7963 130.881 78.4476C127.36 76.0989 123.221 74.8472 118.989 74.8509C113.318 74.8558 107.881 77.1121 103.872 81.124C99.8639 85.1358 97.6123 90.575 97.6123 96.2461Z" fill="#EBECEC"/>
<path d="M97.9658 96.2833C97.9658 100.478 99.2097 104.579 101.54 108.067C103.871 111.554 107.183 114.273 111.059 115.878C114.934 117.483 119.199 117.903 123.313 117.085C127.427 116.267 131.206 114.247 134.172 111.281C137.139 108.314 139.159 104.535 139.977 100.421C140.795 96.3068 140.375 92.0423 138.77 88.1668C137.165 84.2913 134.446 80.9789 130.958 78.6484C127.471 76.3178 123.37 75.0739 119.175 75.0739C113.55 75.0739 108.155 77.3085 104.178 81.286C100.2 85.2636 97.9658 90.6582 97.9658 96.2833Z" fill="#ECEDED"/>
<path d="M98.3008 96.339C98.3008 100.497 99.5338 104.562 101.844 108.019C104.154 111.476 107.437 114.171 111.279 115.762C115.12 117.353 119.348 117.77 123.426 116.959C127.504 116.147 131.25 114.145 134.19 111.205C137.13 108.265 139.133 104.519 139.944 100.441C140.755 96.3624 140.339 92.1352 138.747 88.2937C137.156 84.4522 134.462 81.1688 131.004 78.8587C127.547 76.5486 123.482 75.3156 119.324 75.3156C113.748 75.3156 108.401 77.5306 104.458 81.4732C100.516 85.4159 98.3008 90.7633 98.3008 96.339Z" fill="#EDEEEE"/>
<path d="M98.6719 96.3762C98.6719 100.497 99.894 104.526 102.184 107.953C104.473 111.38 107.728 114.05 111.535 115.628C115.343 117.205 119.533 117.617 123.575 116.813C127.617 116.009 131.33 114.025 134.244 111.111C137.158 108.196 139.143 104.484 139.947 100.441C140.751 96.3994 140.338 92.2096 138.761 88.402C137.184 84.5944 134.513 81.3401 131.086 79.0504C127.659 76.7607 123.631 75.5386 119.509 75.5386C113.983 75.5386 108.683 77.734 104.775 81.6418C100.867 85.5496 98.6719 90.8497 98.6719 96.3762Z" fill="#EEEFEF"/>
<path d="M99.0254 96.432C99.0254 100.516 100.237 104.509 102.506 107.905C104.775 111.302 108 113.949 111.774 115.512C115.548 117.075 119.7 117.484 123.706 116.687C127.712 115.89 131.392 113.923 134.28 111.035C137.168 108.147 139.135 104.467 139.932 100.461C140.729 96.4549 140.32 92.3025 138.757 88.5289C137.194 84.7553 134.547 81.53 131.15 79.2607C127.754 76.9915 123.762 75.7803 119.677 75.7803C116.964 75.7779 114.278 76.3104 111.771 77.3474C109.264 78.3843 106.987 79.9054 105.069 81.8236C103.15 83.7418 101.629 86.0193 100.592 88.526C99.5555 91.0327 99.023 93.7193 99.0254 96.432Z" fill="#EFF0F0"/>
<path d="M99.3789 96.4692C99.3789 100.513 100.578 104.467 102.825 107.829C105.072 111.192 108.265 113.812 112.001 115.36C115.738 116.908 119.849 117.312 123.815 116.523C127.782 115.735 131.425 113.787 134.284 110.928C137.144 108.068 139.091 104.425 139.88 100.458C140.669 96.4919 140.264 92.3806 138.717 88.6443C137.169 84.9081 134.549 81.7147 131.186 79.4679C127.823 77.2211 123.87 76.0219 119.826 76.0219C114.403 76.0219 109.202 78.1762 105.368 82.0108C101.533 85.8454 99.3789 91.0462 99.3789 96.4692Z" fill="#F0F1F1"/>
<path d="M99.7315 96.5249C99.7315 100.536 100.921 104.457 103.149 107.792C105.378 111.127 108.545 113.726 112.251 115.261C115.956 116.796 120.034 117.198 123.968 116.415C127.902 115.633 131.515 113.701 134.351 110.865C137.188 108.029 139.119 104.415 139.902 100.481C140.684 96.5474 140.282 92.4698 138.748 88.7642C137.213 85.0585 134.613 81.8912 131.278 79.6628C127.943 77.4344 124.022 76.245 120.011 76.245C117.347 76.2426 114.709 76.7654 112.248 77.7837C109.786 78.802 107.549 80.2957 105.666 82.1794C103.782 84.063 102.288 86.2997 101.27 88.7613C100.252 91.2228 99.729 93.8611 99.7315 96.5249Z" fill="#F1F2F2"/>
<path d="M100.159 96.5621C100.159 100.536 101.338 104.421 103.546 107.726C105.754 111.03 108.892 113.606 112.564 115.127C116.235 116.647 120.276 117.045 124.173 116.27C128.071 115.495 131.652 113.581 134.462 110.771C137.272 107.961 139.186 104.38 139.961 100.482C140.736 96.5844 140.339 92.5441 138.818 88.8724C137.297 85.2007 134.721 82.0625 131.417 79.8545C128.112 77.6465 124.227 76.4681 120.253 76.4681C114.924 76.4681 109.813 78.5851 106.045 82.3535C102.276 86.1218 100.159 91.2328 100.159 96.5621Z" fill="#F2F3F3"/>
<path d="M100.438 96.6179C100.438 100.555 101.606 104.404 103.794 107.678C105.981 110.952 109.09 113.504 112.728 115.011C116.366 116.517 120.369 116.912 124.23 116.143C128.092 115.375 131.64 113.479 134.424 110.695C137.208 107.911 139.104 104.364 139.872 100.502C140.64 96.6399 140.246 92.6371 138.739 88.9993C137.233 85.3616 134.681 82.2524 131.407 80.0649C128.133 77.8773 124.284 76.7097 120.347 76.7097C117.732 76.7073 115.142 77.2205 112.725 78.2201C110.309 79.2198 108.113 80.6861 106.264 82.5352C104.415 84.3843 102.949 86.58 101.949 88.9964C100.949 91.4129 100.436 94.0028 100.438 96.6179Z" fill="#F3F4F4"/>
<path d="M100.791 96.655C100.787 100.557 101.94 104.373 104.104 107.62C106.267 110.867 109.345 113.4 112.947 114.899C116.55 116.398 120.516 116.796 124.344 116.043C128.173 115.289 131.692 113.418 134.458 110.665C137.223 107.913 139.111 104.402 139.883 100.577C140.654 96.7521 140.275 92.7843 138.793 89.1748C137.311 85.5653 134.792 82.476 131.555 80.2971C128.318 78.1182 124.508 76.9475 120.606 76.9328C118.008 76.9205 115.434 77.4216 113.03 78.4073C110.627 79.3929 108.442 80.8437 106.6 82.6763C104.759 84.5089 103.298 86.6872 102.301 89.0861C101.304 91.485 100.791 94.0572 100.791 96.655Z" fill="#F4F5F5"/>
<path d="M101.145 96.7108C101.141 100.583 102.287 104.369 104.438 107.59C106.588 110.81 109.647 113.319 113.225 114.799C116.803 116.279 120.74 116.664 124.537 115.904C128.334 115.144 131.82 113.274 134.553 110.53C137.286 107.787 139.143 104.294 139.889 100.494C140.634 96.694 140.235 92.7583 138.741 89.1857C137.247 85.6131 134.726 82.5644 131.498 80.426C128.269 78.2877 124.479 77.156 120.607 77.1744C115.438 77.1941 110.488 79.2611 106.84 82.9227C103.193 86.5844 101.145 91.5423 101.145 96.7108Z" fill="#F5F5F6"/>
<path d="M101.498 96.748C101.494 100.58 102.628 104.328 104.755 107.516C106.882 110.704 109.906 113.189 113.446 114.658C116.986 116.126 120.882 116.511 124.641 115.764C128.4 115.018 131.853 113.173 134.563 110.463C137.273 107.753 139.118 104.3 139.865 100.541C140.612 96.7818 140.227 92.8858 138.758 89.3458C137.29 85.8058 134.805 82.7809 131.616 80.654C128.428 78.5271 124.681 77.3938 120.849 77.3975C115.717 77.3975 110.795 79.4362 107.166 83.0651C103.537 86.694 101.498 91.6159 101.498 96.748Z" fill="#F6F6F7"/>
<path d="M101.851 96.8038C101.851 100.599 102.976 104.308 105.085 107.463C107.194 110.618 110.191 113.077 113.697 114.529C117.203 115.98 121.061 116.359 124.783 115.617C128.505 114.875 131.923 113.046 134.605 110.362C137.287 107.677 139.113 104.257 139.851 100.535C140.589 96.8124 140.206 92.9547 138.751 89.4498C137.297 85.9448 134.835 82.9501 131.678 80.8445C128.521 78.7388 124.81 77.6169 121.015 77.6205C118.497 77.6205 116.003 78.1169 113.677 79.0812C111.351 80.0454 109.237 81.4587 107.457 83.2403C105.677 85.0219 104.266 87.1367 103.304 89.4641C102.342 91.7914 101.848 94.2855 101.851 96.8038Z" fill="#F7F7F8"/>
<path d="M102.204 96.8409C102.2 100.6 103.312 104.275 105.398 107.402C107.484 110.529 110.451 112.967 113.923 114.407C117.395 115.847 121.216 116.225 124.903 115.493C128.59 114.76 131.977 112.951 134.635 110.293C137.293 107.635 139.102 104.248 139.835 100.561C140.567 96.8743 140.189 93.053 138.749 89.581C137.309 86.1089 134.871 83.1421 131.744 81.0561C128.617 78.9701 124.942 77.8585 121.183 77.8622C116.149 77.8622 111.322 79.8617 107.763 83.4209C104.204 86.9801 102.204 91.8075 102.204 96.8409Z" fill="#F8F8F9"/>
<path d="M102.558 96.8967C102.558 100.617 103.661 104.254 105.728 107.348C107.795 110.441 110.733 112.852 114.17 114.276C117.608 115.7 121.39 116.073 125.039 115.347C128.688 114.621 132.04 112.829 134.671 110.198C137.302 107.568 139.093 104.216 139.819 100.567C140.545 96.9176 140.172 93.1352 138.749 89.6979C137.325 86.2605 134.914 83.3226 131.82 81.2556C128.727 79.1885 125.09 78.0853 121.369 78.0853C118.898 78.0828 116.451 78.5677 114.167 79.5122C111.884 80.4567 109.809 81.8423 108.062 83.5896C106.315 85.3368 104.929 87.4116 103.985 89.695C103.04 91.9784 102.555 94.4256 102.558 96.8967Z" fill="#F9F9F9"/>
<path d="M102.91 96.9339C102.91 100.61 104 104.204 106.043 107.261C108.085 110.318 110.988 112.7 114.385 114.107C117.782 115.514 121.519 115.882 125.125 115.165C128.731 114.448 132.043 112.677 134.643 110.078C137.242 107.478 139.013 104.166 139.73 100.56C140.447 96.9545 140.079 93.217 138.672 89.8204C137.265 86.4238 134.883 83.5207 131.826 81.4782C128.769 79.4357 125.175 78.3455 121.499 78.3455C116.569 78.3455 111.841 80.3039 108.355 83.7899C104.869 87.2759 102.91 92.0039 102.91 96.9339Z" fill="#FAFAFA"/>
<path d="M103.264 96.9896C103.264 100.637 104.345 104.202 106.371 107.234C108.397 110.267 111.277 112.63 114.647 114.026C118.016 115.421 121.724 115.786 125.301 115.075C128.878 114.363 132.163 112.607 134.742 110.028C137.321 107.45 139.077 104.164 139.789 100.587C140.5 97.0101 140.135 93.3025 138.739 89.9331C137.344 86.5637 134.98 83.6838 131.948 81.6576C128.916 79.6314 125.35 78.5499 121.703 78.5499C116.813 78.5499 112.123 80.4927 108.665 83.9508C105.206 87.4089 103.264 92.0991 103.264 96.9896Z" fill="#FBFBFB"/>
<path d="M103.617 97.0268C103.614 100.638 104.681 104.169 106.685 107.173C108.688 110.177 111.538 112.52 114.873 113.904C118.208 115.289 121.879 115.653 125.421 114.951C128.963 114.248 132.217 112.511 134.772 109.959C137.326 107.407 139.067 104.155 139.773 100.613C140.478 97.072 140.118 93.4008 138.737 90.0643C137.356 86.7277 135.016 83.8758 132.014 81.8692C129.012 79.8627 125.482 78.7916 121.871 78.7916C117.033 78.7916 112.393 80.7122 108.97 84.1315C105.547 87.5507 103.622 92.1888 103.617 97.0268Z" fill="#FCFCFC"/>
<path d="M103.97 97.0826C103.97 100.656 105.029 104.149 107.015 107.121C109 110.092 111.822 112.408 115.123 113.775C118.425 115.143 122.058 115.5 125.562 114.803C129.067 114.106 132.287 112.385 134.814 109.859C137.34 107.332 139.061 104.112 139.758 100.607C140.456 97.1026 140.098 93.4698 138.73 90.1683C137.363 86.8668 135.047 84.045 132.076 82.0597C129.104 80.0743 125.611 79.0147 122.038 79.0147C119.665 79.0147 117.315 79.482 115.123 80.39C112.931 81.298 110.939 82.6289 109.262 84.3066C107.584 85.9844 106.253 87.9762 105.345 90.1683C104.437 92.3604 103.97 94.7099 103.97 97.0826Z" fill="#FDFDFD"/>
<path d="M104.323 97.1197C104.32 100.657 105.365 104.116 107.328 107.06C109.291 110.003 112.082 112.298 115.349 113.654C118.616 115.01 122.213 115.367 125.683 114.679C129.153 113.991 132.34 112.29 134.843 109.789C137.346 107.289 139.051 104.103 139.742 100.634C140.434 97.1645 140.081 93.5681 138.728 90.2995C137.375 87.0309 135.083 84.237 132.142 82.2713C129.201 80.3056 125.743 79.2563 122.205 79.2563C117.466 79.2563 112.92 81.1378 109.567 84.4873C106.214 87.8368 104.328 92.3803 104.323 97.1197Z" fill="#FEFEFE"/>
<path d="M104.677 97.1755C104.677 100.676 105.715 104.097 107.659 107.007C109.604 109.917 112.367 112.185 115.601 113.525C118.834 114.864 122.393 115.214 125.825 114.532C129.258 113.849 132.411 112.163 134.886 109.689C137.361 107.214 139.046 104.061 139.729 100.628C140.412 97.1951 140.061 93.6371 138.722 90.4035C137.383 87.17 135.114 84.4062 132.204 82.4617C129.294 80.5173 125.873 79.4794 122.373 79.4794C117.68 79.4794 113.178 81.3438 109.86 84.6625C106.541 87.9811 104.677 92.4822 104.677 97.1755Z" fill="white"/>
<path d="M124.325 98.6626C124.265 100.068 124.628 101.459 125.366 102.656C126.104 103.854 127.183 104.803 128.465 105.381C129.747 105.96 131.173 106.142 132.56 105.903C133.946 105.664 135.229 105.016 136.243 104.041C137.258 103.067 137.957 101.811 138.252 100.436C138.547 99.0608 138.423 97.6287 137.897 96.3243C137.371 95.0199 136.466 93.9028 135.299 93.117C134.133 92.3312 132.758 91.9126 131.351 91.915C129.525 91.8801 127.76 92.571 126.443 93.836C125.125 95.1009 124.364 96.8367 124.325 98.6626Z" fill="url(#paint8_linear_2261_40245)"/>
<path d="M128.637 98.6626C128.611 99.1939 128.745 99.7208 129.022 100.175C129.298 100.629 129.705 100.99 130.189 101.211C130.673 101.432 131.212 101.502 131.736 101.413C132.261 101.325 132.746 101.08 133.13 100.712C133.515 100.344 133.78 99.8697 133.891 99.3496C134.002 98.8295 133.955 98.2879 133.756 97.7948C133.556 97.3018 133.213 96.88 132.771 96.584C132.329 96.2881 131.808 96.1315 131.276 96.1345C130.593 96.1245 129.932 96.3841 129.438 96.8572C128.944 97.3303 128.656 97.9789 128.637 98.6626Z" fill="#3C5AA8"/>
<path d="M122.465 96.748C122.443 97.3221 122.593 97.8897 122.895 98.378C123.198 98.8662 123.64 99.2528 124.164 99.4881C124.688 99.7233 125.271 99.7965 125.837 99.6983C126.403 99.6 126.927 99.3348 127.341 98.9367C127.755 98.5385 128.041 98.0256 128.161 97.4639C128.282 96.9022 128.232 96.3173 128.017 95.7843C127.803 95.2513 127.434 94.7945 126.958 94.4727C126.482 94.1509 125.921 93.9788 125.346 93.9784C124.975 93.9685 124.605 94.0325 124.258 94.1668C123.911 94.3011 123.595 94.503 123.327 94.7607C123.058 95.0184 122.844 95.3268 122.696 95.6679C122.549 96.0091 122.47 96.3762 122.465 96.748Z" fill="white"/>
<path d="M168.119 184.318C168.745 184.372 169.328 184.659 169.752 185.122C170.177 185.584 170.412 186.19 170.412 186.818C170.412 187.446 170.177 188.051 169.752 188.514C169.328 188.977 168.745 189.264 168.119 189.318C167.493 189.264 166.91 188.977 166.485 188.514C166.061 188.051 165.825 187.446 165.825 186.818C165.825 186.19 166.061 185.584 166.485 185.122C166.91 184.659 167.493 184.372 168.119 184.318Z" fill="#91C8EB"/>
<path d="M147.672 192.255C148.297 192.309 148.88 192.596 149.305 193.059C149.73 193.522 149.965 194.127 149.965 194.755C149.965 195.383 149.73 195.989 149.305 196.452C148.88 196.915 148.297 197.201 147.672 197.255C147.046 197.201 146.463 196.915 146.038 196.452C145.613 195.989 145.378 195.383 145.378 194.755C145.378 194.127 145.613 193.522 146.038 193.059C146.463 192.596 147.046 192.309 147.672 192.255Z" fill="#91C8EB"/>
<path d="M179.439 208.594V208.78C179.385 209.406 179.098 209.989 178.635 210.414C178.172 210.838 177.567 211.074 176.939 211.074C176.31 211.074 175.705 210.838 175.242 210.414C174.779 209.989 174.492 209.406 174.438 208.78V208.594C174.492 207.968 174.779 207.386 175.242 206.961C175.705 206.536 176.31 206.301 176.939 206.301C177.567 206.301 178.172 206.536 178.635 206.961C179.098 207.386 179.385 207.968 179.439 208.594Z" fill="#91C8EB"/>
<path d="M152.207 215.769C152.833 215.823 153.416 216.11 153.84 216.573C154.265 217.036 154.501 217.641 154.501 218.27C154.501 218.898 154.265 219.503 153.84 219.966C153.416 220.429 152.833 220.716 152.207 220.77C151.581 220.716 150.998 220.429 150.573 219.966C150.149 219.503 149.913 218.898 149.913 218.27C149.913 217.641 150.149 217.036 150.573 216.573C150.998 216.11 151.581 215.823 152.207 215.769Z" fill="#91C8EB"/>
<path d="M123.264 198.705C123.89 198.759 124.473 199.046 124.898 199.509C125.322 199.972 125.558 200.577 125.558 201.205C125.558 201.834 125.322 202.439 124.898 202.902C124.473 203.365 123.89 203.652 123.264 203.706C122.638 203.652 122.056 203.365 121.631 202.902C121.206 202.439 120.971 201.834 120.971 201.205C120.971 200.577 121.206 199.972 121.631 199.509C122.056 199.046 122.638 198.759 123.264 198.705Z" fill="#91C8EB"/>
<path d="M123.264 176.102C123.89 176.156 124.473 176.443 124.898 176.906C125.322 177.368 125.558 177.974 125.558 178.602C125.558 179.23 125.322 179.835 124.898 180.298C124.473 180.761 123.89 181.048 123.264 181.102C122.638 181.048 122.056 180.761 121.631 180.298C121.206 179.835 120.971 179.23 120.971 178.602C120.971 177.974 121.206 177.368 121.631 176.906C122.056 176.443 122.638 176.156 123.264 176.102Z" fill="#91C8EB"/>
<path d="M131.463 220.212H131.648C132.274 220.266 132.857 220.553 133.282 221.016C133.707 221.479 133.942 222.084 133.942 222.712C133.942 223.34 133.707 223.946 133.282 224.409C132.857 224.871 132.274 225.158 131.648 225.212H131.463C130.837 225.158 130.254 224.871 129.829 224.409C129.405 223.946 129.169 223.34 129.169 222.712C129.169 222.084 129.405 221.479 129.829 221.016C130.254 220.553 130.837 220.266 131.463 220.212Z" fill="#91C8EB"/>
<path d="M168.119 225.435C168.784 225.435 169.423 225.7 169.893 226.17C170.364 226.641 170.628 227.279 170.628 227.945C170.628 228.61 170.364 229.249 169.893 229.719C169.423 230.19 168.784 230.454 168.119 230.454C167.453 230.454 166.815 230.19 166.344 229.719C165.874 229.249 165.609 228.61 165.609 227.945C165.609 227.279 165.874 226.641 166.344 226.17C166.815 225.7 167.453 225.435 168.119 225.435Z" fill="#91C8EB"/>
<path d="M145.18 239.693C145.806 239.747 146.389 240.033 146.814 240.496C147.238 240.959 147.474 241.565 147.474 242.193C147.474 242.821 147.238 243.426 146.814 243.889C146.389 244.352 145.806 244.639 145.18 244.693C144.554 244.639 143.972 244.352 143.547 243.889C143.122 243.426 142.887 242.821 142.887 242.193C142.887 241.565 143.122 240.959 143.547 240.496C143.972 240.033 144.554 239.747 145.18 239.693Z" fill="#91C8EB"/>
<path d="M175.312 248.411C175.938 248.465 176.521 248.751 176.946 249.214C177.37 249.677 177.606 250.283 177.606 250.911C177.606 251.539 177.37 252.144 176.946 252.607C176.521 253.07 175.938 253.357 175.312 253.411C174.686 253.357 174.103 253.07 173.679 252.607C173.254 252.144 173.019 251.539 173.019 250.911C173.019 250.283 173.254 249.677 173.679 249.214C174.103 248.751 174.686 248.465 175.312 248.411Z" fill="#91C8EB"/>
<path d="M151.631 167.886C152.256 167.94 152.839 168.227 153.264 168.689C153.689 169.152 153.924 169.758 153.924 170.386C153.924 171.014 153.689 171.619 153.264 172.082C152.839 172.545 152.256 172.832 151.631 172.886C151.005 172.832 150.422 172.545 149.997 172.082C149.573 171.619 149.337 171.014 149.337 170.386C149.337 169.758 149.573 169.152 149.997 168.689C150.422 168.227 151.005 167.94 151.631 167.886Z" fill="#91C8EB"/>
<path d="M174.512 159.725C175.138 159.779 175.721 160.066 176.146 160.529C176.571 160.992 176.806 161.597 176.806 162.226C176.806 162.854 176.571 163.459 176.146 163.922C175.721 164.385 175.138 164.672 174.512 164.726C173.887 164.672 173.304 164.385 172.879 163.922C172.454 163.459 172.219 162.854 172.219 162.226C172.219 161.597 172.454 160.992 172.879 160.529C173.304 160.066 173.887 159.779 174.512 159.725Z" fill="#91C8EB"/>
<path d="M100.755 211.234C101.381 211.288 101.963 211.575 102.388 212.038C102.813 212.5 103.048 213.106 103.048 213.734C103.048 214.362 102.813 214.967 102.388 215.43C101.963 215.893 101.381 216.18 100.755 216.234C100.129 216.18 99.5459 215.893 99.1212 215.43C98.6966 214.967 98.4609 214.362 98.4609 213.734C98.4609 213.106 98.6966 212.5 99.1212 212.038C99.5459 211.575 100.129 211.288 100.755 211.234Z" fill="#91C8EB"/>
<path d="M91.125 190.787C91.233 190.477 91.4111 190.197 91.6454 189.969C91.8642 189.735 92.1395 189.563 92.4447 189.467C92.7408 189.306 93.0749 189.229 93.4113 189.244L94.0805 189.337C94.4961 189.445 94.8749 189.664 95.1773 189.969L95.5677 190.489C95.8044 190.868 95.9269 191.307 95.9207 191.753V192.051C95.9353 192.387 95.8582 192.721 95.6977 193.017C95.5967 193.324 95.4173 193.6 95.1773 193.816C94.9606 194.057 94.6851 194.236 94.378 194.337C94.078 194.487 93.7467 194.563 93.4113 194.56L92.7236 194.504C92.3106 194.38 91.9342 194.156 91.6268 193.854L91.2365 193.352C91.0161 192.967 90.9007 192.531 90.902 192.088V191.79C90.8805 191.441 90.9578 191.094 91.125 190.787Z" fill="#91C8EB"/>
<path d="M98.3005 166.975C98.9264 167.029 99.5093 167.316 99.9339 167.779C100.359 168.241 100.594 168.847 100.594 169.475C100.594 170.103 100.359 170.709 99.9339 171.171C99.5093 171.634 98.9264 171.921 98.3005 171.975C97.6747 171.921 97.0918 171.634 96.6671 171.171C96.2425 170.709 96.0068 170.103 96.0068 169.475C96.0068 168.847 96.2425 168.241 96.6671 167.779C97.0918 167.316 97.6747 167.029 98.3005 166.975Z" fill="#91C8EB"/>
<path d="M77.7047 208.817C78.3702 208.817 79.0085 209.082 79.4791 209.552C79.9497 210.023 80.2142 210.661 80.2142 211.327C80.2142 211.992 79.9497 212.631 79.4791 213.101C79.0085 213.572 78.3702 213.836 77.7047 213.836C77.0392 213.836 76.4009 213.572 75.9303 213.101C75.4597 212.631 75.1953 211.992 75.1953 211.327C75.1953 210.661 75.4597 210.023 75.9303 209.552C76.4009 209.082 77.0392 208.817 77.7047 208.817Z" fill="#91C8EB"/>
<path d="M71.2546 175.117C71.9202 175.117 72.5584 175.381 73.029 175.852C73.4997 176.322 73.764 176.961 73.764 177.626C73.764 178.292 73.4997 178.93 73.029 179.4C72.5584 179.871 71.9202 180.135 71.2546 180.135C70.5891 180.135 69.9508 179.871 69.4802 179.4C69.0096 178.93 68.7451 178.292 68.7451 177.626C68.7451 176.961 69.0096 176.322 69.4802 175.852C69.9508 175.381 70.5891 175.117 71.2546 175.117Z" fill="#91C8EB"/>
<path d="M54.6368 197.441C54.7267 197.133 54.9005 196.857 55.1387 196.642C55.3605 196.399 55.6426 196.22 55.9565 196.121C56.25 195.954 56.586 195.877 56.9231 195.898L57.5738 195.991C57.9973 196.104 58.3826 196.329 58.689 196.642L59.0794 197.144C59.3024 197.528 59.4179 197.964 59.414 198.408V198.705C59.4343 199.04 59.3635 199.374 59.2094 199.672C59.1084 199.979 58.9291 200.254 58.689 200.471C58.4672 200.714 58.185 200.893 57.8711 200.992C57.5806 201.149 57.2533 201.226 56.9231 201.215L56.2539 201.122C55.8304 201.009 55.4451 200.784 55.1387 200.471L54.7483 199.969C54.5278 199.585 54.4125 199.149 54.4137 198.705V198.408C54.392 198.071 54.4696 197.735 54.6368 197.441Z" fill="#91C8EB"/>
<path d="M37.2747 179.169C37.3905 178.869 37.5677 178.597 37.795 178.369C38.0223 178.142 38.2947 177.965 38.5945 177.849C38.888 177.682 39.2241 177.604 39.5612 177.626L40.2117 177.719C40.6352 177.832 41.0205 178.056 41.327 178.37L41.7174 178.871C41.9403 179.255 42.0559 179.692 42.0519 180.135V180.433C42.0722 180.768 42.0016 181.102 41.8475 181.399C41.7465 181.707 41.567 181.982 41.327 182.199C41.1103 182.439 40.8348 182.618 40.5277 182.719C40.2316 182.88 39.8976 182.957 39.5612 182.942H38.8919C38.475 182.827 38.0965 182.602 37.7952 182.292L37.4048 181.79C37.17 181.41 37.0475 180.972 37.0517 180.526V180.228C37.0106 179.86 37.0888 179.489 37.2747 179.169Z" fill="#91C8EB"/>
<path d="M26.4566 157.662C26.5576 157.355 26.7371 157.079 26.9771 156.863C27.1938 156.623 27.4692 156.443 27.7764 156.342C28.0743 156.188 28.4083 156.118 28.743 156.138H29.4122C29.827 156.258 30.2045 156.482 30.509 156.788L30.8992 157.29C31.1254 157.674 31.2472 158.109 31.2524 158.554V158.87C31.2534 159.199 31.177 159.524 31.0294 159.818C30.9313 160.132 30.7517 160.414 30.509 160.636C30.2923 160.876 30.0167 161.056 29.7096 161.157C29.4117 161.311 29.0778 161.381 28.743 161.361H28.0738C27.6602 161.248 27.2827 161.03 26.9771 160.729L26.5867 160.227C26.3688 159.841 26.2476 159.407 26.2335 158.963V158.647C26.2296 158.306 26.306 157.968 26.4566 157.662Z" fill="#91C8EB"/>
<path d="M54.1716 157.216C54.8371 157.216 55.4754 157.48 55.946 157.951C56.4166 158.422 56.681 159.06 56.681 159.725C56.681 160.391 56.4166 161.029 55.946 161.5C55.4754 161.97 54.8371 162.235 54.1716 162.235C53.5061 162.235 52.8678 161.97 52.3972 161.5C51.9266 161.029 51.6621 160.391 51.6621 159.725C51.6621 159.06 51.9266 158.422 52.3972 157.951C52.8678 157.48 53.5061 157.216 54.1716 157.216Z" fill="#91C8EB"/>
<path d="M55.7887 219.599C56.4542 219.599 57.0925 219.863 57.5631 220.334C58.0337 220.804 58.2981 221.442 58.2981 222.108C58.2981 222.774 58.0337 223.412 57.5631 223.882C57.0925 224.353 56.4542 224.617 55.7887 224.617C55.1231 224.617 54.4849 224.353 54.0143 223.882C53.5436 223.412 53.2793 222.774 53.2793 222.108C53.2793 221.442 53.5436 220.804 54.0143 220.334C54.4849 219.863 55.1231 219.599 55.7887 219.599Z" fill="#91C8EB"/>
<path d="M35.8991 206.326C36.5249 206.38 37.1078 206.667 37.5325 207.13C37.9571 207.593 38.1928 208.198 38.1928 208.827C38.1928 209.455 37.9571 210.06 37.5325 210.523C37.1078 210.986 36.5249 211.273 35.8991 211.327C35.2732 211.273 34.6903 210.986 34.2657 210.523C33.841 210.06 33.6055 209.455 33.6055 208.827C33.6055 208.198 33.841 207.593 34.2657 207.13C34.6903 206.667 35.2732 206.38 35.8991 206.326Z" fill="#91C8EB"/>
<path d="M80.3445 233.54C80.9704 233.594 81.5531 233.881 81.9778 234.344C82.4024 234.806 82.6381 235.412 82.6381 236.04C82.6381 236.668 82.4024 237.274 81.9778 237.736C81.5531 238.199 80.9704 238.486 80.3445 238.54C79.7186 238.486 79.1358 238.199 78.7111 237.736C78.2864 237.274 78.0508 236.668 78.0508 236.04C78.0508 235.412 78.2864 234.806 78.7111 234.344C79.1358 233.881 79.7186 233.594 80.3445 233.54Z" fill="#91C8EB"/>
<path d="M53.3728 241.105C53.9987 241.159 54.5814 241.446 55.0061 241.909C55.4308 242.372 55.6664 242.977 55.6664 243.605C55.6664 244.234 55.4308 244.839 55.0061 245.302C54.5814 245.765 53.9987 246.052 53.3728 246.106C52.7469 246.052 52.1641 245.765 51.7394 245.302C51.3147 244.839 51.0791 244.234 51.0791 243.605C51.0791 242.977 51.3147 242.372 51.7394 241.909C52.1641 241.446 52.7469 241.159 53.3728 241.105Z" fill="#91C8EB"/>
<path d="M108.394 234.637C109.02 234.691 109.603 234.977 110.028 235.44C110.452 235.903 110.688 236.509 110.688 237.137C110.688 237.765 110.452 238.37 110.028 238.833C109.603 239.296 109.02 239.583 108.394 239.637C107.768 239.583 107.185 239.296 106.761 238.833C106.336 238.37 106.101 237.765 106.101 237.137C106.101 236.509 106.336 235.903 106.761 235.44C107.185 234.977 107.768 234.691 108.394 234.637Z" fill="#91C8EB"/>
<path d="M68.8377 254.563C69.4635 254.617 70.0463 254.904 70.4709 255.367C70.8956 255.83 71.1312 256.435 71.1312 257.063C71.1312 257.692 70.8956 258.297 70.4709 258.76C70.0463 259.223 69.4635 259.51 68.8377 259.564C68.2118 259.51 67.6289 259.223 67.2043 258.76C66.7796 258.297 66.5439 257.692 66.5439 257.063C66.5439 256.435 66.7796 255.83 67.2043 255.367C67.6289 254.904 68.2118 254.617 68.8377 254.563Z" fill="#91C8EB"/>
<path d="M34.6912 232.778C35.317 232.832 35.8998 233.119 36.3245 233.581C36.7491 234.044 36.9848 234.65 36.9848 235.278C36.9848 235.906 36.7491 236.511 36.3245 236.974C35.8998 237.437 35.317 237.724 34.6912 237.778C34.0653 237.724 33.4824 237.437 33.0578 236.974C32.6331 236.511 32.3975 235.906 32.3975 235.278C32.3975 234.65 32.6331 234.044 33.0578 233.581C33.4824 233.119 34.0653 232.832 34.6912 232.778Z" fill="#91C8EB"/>
<path d="M182.655 265.753C179.197 276.795 174.123 280.996 169.643 281.368C168.992 281.368 168.36 281.368 167.784 281.368C157.114 282.148 152.411 270.754 152.411 270.754C151.965 269.155 151.538 267.687 151.092 266.311C161.594 267.466 172.2 267.279 182.655 265.753Z" fill="#5079E2"/>
<path d="M35.751 263.095C49.6178 265.587 63.7672 266.106 77.7794 264.638V264.75C69.2845 283.728 58.8749 281.628 58.8749 281.628C48.6513 280.531 41.216 273.282 35.751 263.095Z" fill="#5079E2"/>
<path d="M5.60024 67.2854C9.13203 63.5677 32.0701 40.5367 34.6911 13.3791C34.7245 13.0366 34.8687 12.7144 35.102 12.4614C35.3353 12.2085 35.6448 12.0386 35.9835 11.9776C36.3221 11.9166 36.6714 11.9678 36.9783 12.1235C37.2852 12.2791 37.533 12.5308 37.6838 12.8401C41.1273 19.8817 43.1966 27.5153 43.7807 35.332C44.5429 46.1318 41.9219 57.8425 34.7282 65.6496C34.1835 66.2311 33.774 66.9257 33.5289 67.6838C33.2838 68.4419 33.2092 69.2447 33.3105 70.035C33.4117 70.8253 33.6862 71.5834 34.1144 72.2553C34.5427 72.9271 35.1141 73.4961 35.7877 73.9215L47.9445 81.0966C41.7944 88.5314 36.7484 96.8141 32.9623 105.689C20.6196 101.153 8.64868 94.536 1.71522 84.5912C-1.83516 79.5537 0.841613 73.6798 5.60024 67.2854Z" fill="#6DB6E4"/>
<path d="M34.6911 13.4535C34.7245 13.111 34.8688 12.7888 35.102 12.5358C35.3353 12.2828 35.6448 12.1129 35.9835 12.0519C36.3221 11.9909 36.6715 12.0421 36.9783 12.1978C37.2852 12.3535 37.533 12.6051 37.6838 12.9144C41.1273 19.956 43.1966 27.5896 43.7807 35.4064C44.5429 46.2062 41.9219 57.9169 34.7282 65.724C34.1835 66.3054 33.774 67 33.5289 67.7581C33.2838 68.5162 33.2092 69.3191 33.3105 70.1094C33.4117 70.8997 33.6862 71.6578 34.1144 72.3297C34.5427 73.0015 35.1141 73.5704 35.7878 73.9958L36.4941 74.4233C34.7468 79.0704 29.0588 91.8964 16.9763 98.2537C10.9958 94.8403 5.79696 90.2115 1.71522 84.6656C-1.83516 79.5537 0.841613 73.5125 5.60024 67.2854C9.07627 63.6235 32.0701 40.5368 34.6911 13.4535Z" fill="#B9DCF2"/>
<path d="M153.378 74.888C154.268 74.1528 154.857 73.117 155.035 71.9765C155.214 70.8359 154.968 69.6697 154.344 68.6981C149.418 60.9282 148.898 50.4629 151.203 41.336C152.883 34.7201 155.824 28.4906 159.865 22.9893C160.04 22.7441 160.29 22.5631 160.578 22.4741C160.866 22.385 161.175 22.3927 161.457 22.4962C161.74 22.5996 161.981 22.7929 162.143 23.0465C162.306 23.3001 162.38 23.6 162.356 23.9001C160.497 47.5074 176.595 70.7986 179.085 74.4791C182.208 80.6133 183.584 86.134 179.755 89.9632C176.431 93.2517 172.579 95.9597 168.36 97.9748C166.724 91.6734 159.177 80.1114 153.378 74.888Z" fill="#A3D1EE"/>
<path d="M151.203 41.336C152.884 34.7201 155.825 28.4906 159.865 22.9893C160.04 22.7441 160.291 22.5631 160.578 22.4741C160.866 22.385 161.175 22.3927 161.458 22.4962C161.741 22.5996 161.982 22.7929 162.144 23.0465C162.306 23.3001 162.381 23.6 162.356 23.9001C161.872 32.2773 163.08 40.6663 165.907 48.5669C160.672 49.7155 155.245 49.6647 150.032 48.4182C150.221 46.0286 150.613 43.6594 151.203 41.336Z" fill="#6DB6E4"/>
<path d="M34.6913 13.4535C34.7248 13.111 34.869 12.7888 35.1023 12.5358C35.3356 12.2828 35.645 12.1129 35.9837 12.0519C36.3224 11.9909 36.6717 12.0421 36.9786 12.1978C37.2855 12.3535 37.5332 12.6051 37.684 12.9144C41.1276 19.956 43.1968 27.5897 43.781 35.4064C44.0439 39.2244 43.8693 43.0599 43.2606 46.8382C36.7927 46.8088 30.4052 45.4021 24.5234 42.7116C29.9485 33.7899 33.4145 23.8167 34.6913 13.4535Z" fill="#6DB6E4"/>
</g>
<g clip-path="url(#clip1_2261_40245)">
<path d="M263.644 192.701C265.782 183.407 269.463 174.113 276.285 167.384L288.441 170.488C280.151 185.006 282.363 203.557 285.077 213.873C287.159 221.755 291.23 236.96 279.5 239.897C277.553 240.298 275.537 240.221 273.627 239.67C271.716 239.12 269.968 238.113 268.533 236.737C264.92 233.05 262.604 228.287 261.934 223.168C260.094 213.241 261.377 202.553 263.644 192.701Z" fill="#B12238"/>
<path style="mix-blend-mode:multiply" opacity="0.5" d="M263.644 192.701C265.782 183.407 269.463 174.113 276.285 167.384L288.441 170.488C280.151 185.006 282.363 203.557 285.077 213.873C287.159 221.755 291.23 236.96 279.5 239.897C277.553 240.298 275.537 240.221 273.627 239.67C271.716 239.12 269.968 238.113 268.533 236.737C264.92 233.05 262.604 228.287 261.934 223.168C260.094 213.241 261.377 202.553 263.644 192.701Z" fill="url(#paint9_linear_2261_40245)"/>
<path d="M376.736 64.4785L347.738 57.5823L331.009 12.2452C331.009 12.2452 364.04 29.0863 376.736 64.4785Z" fill="#F7D43A"/>
<path d="M272.269 158.276L278.106 111.805C278.106 111.805 282.827 43.5666 337.83 45.5928C337.83 45.5928 405.083 38.4362 426.199 182.106C426.199 182.106 444.695 288.989 418.411 288.06C418.411 288.06 410.083 288.543 400.808 277.315C380.119 252.351 343.834 253.411 332.44 255.456C311.398 259.173 302.698 272.352 299.185 276.051C293.46 281.981 287.103 287.446 282.697 287.762C282.697 287.762 251.153 297.484 272.269 158.276Z" fill="#B12238"/>
<path d="M362.423 40.8899C337.57 4.4381 298.609 0.64604 291.099 0.887689C290.717 0.793567 290.315 0.823055 289.951 0.971929C289.587 1.1208 289.279 1.38142 289.072 1.71619C288.866 2.05096 288.771 2.44265 288.801 2.83491C288.831 3.22716 288.985 3.59971 289.24 3.899C290.247 5.32344 291.036 6.88958 291.582 8.54609C291.861 9.2029 291.933 9.92948 291.787 10.628C291.229 12.4869 288.682 12.3939 286.824 12.0593C276.351 10.087 265.615 9.94235 255.093 11.6318C254.61 11.6318 251.673 13.4906 254.703 15.052C259.35 17.5243 289.482 40.2393 295.95 74.9252C295.997 75.1168 296.093 75.2924 296.231 75.4336C296.368 75.5748 296.541 75.6764 296.731 75.7278C296.921 75.7791 297.122 75.7783 297.311 75.7254C297.501 75.6725 297.673 75.5695 297.809 75.4271C329.911 36.2428 354.597 48.1394 360.545 51.2622C364.653 53.2512 364.281 43.5481 362.423 40.8899Z" fill="#F7D43A"/>
<path d="M255.149 11.6318C258.216 11.1485 261.302 10.8325 264.444 10.6466C269.778 13.1374 298.944 31.986 309.056 63.4934C305.063 67.2049 301.336 71.1927 297.903 75.4271C297.766 75.5695 297.594 75.6725 297.405 75.7254C297.215 75.7783 297.014 75.7791 296.824 75.7278C296.634 75.6764 296.461 75.5748 296.324 75.4336C296.187 75.2924 296.09 75.1168 296.044 74.9252C289.575 40.2393 259.443 17.5243 254.796 15.052C251.729 13.4349 254.61 11.7619 255.149 11.6318Z" fill="#F7E93A"/>
<path d="M383.187 94.3873C383.187 94.3873 386.049 118.143 360.434 123.255C360.434 123.255 351.717 125.671 330.358 123.032C327.812 122.716 321.864 121.508 315.395 120.095L315.581 116.6C315.581 116.6 337.887 122.939 359.17 120.56C371.03 119.24 380.77 110.466 383.187 94.3873Z" fill="#52101A"/>
<path style="mix-blend-mode:multiply" opacity="0.5" d="M271.099 166.362C271.47 163.722 271.842 161.045 272.27 158.276V157.997C275.107 159.26 278.083 160.183 281.136 160.748C281.136 160.748 302.643 164.465 319.651 158.09L314.075 160.655C294.78 170.079 274.909 167.068 271.099 166.362Z" fill="url(#paint10_linear_2261_40245)"/>
<path d="M278.106 111.879C278.106 111.879 278.106 110.968 278.366 109.351C286.234 110.132 294.032 111.505 301.694 113.459L301.378 117.047C296.452 115.578 281.117 113.013 278.013 112.567L278.106 111.879Z" fill="#52101A"/>
<path d="M297.735 116.154C293.274 115.132 288.311 114.816 282.697 113.478L283.924 103.644C283.959 103.347 284.051 103.06 284.197 102.799C284.343 102.538 284.539 102.309 284.774 102.124C285.009 101.939 285.278 101.803 285.566 101.722C285.854 101.642 286.155 101.619 286.452 101.655L297.159 102.919C297.465 102.953 297.761 103.049 298.029 103.201C298.296 103.353 298.53 103.557 298.716 103.803C298.903 104.048 299.037 104.328 299.111 104.627C299.185 104.926 299.198 105.237 299.148 105.54C298.72 108.106 298.014 113.347 297.735 116.154Z" fill="white"/>
<path d="M315.19 120.058C310.729 119.054 305.673 118.199 300.133 116.693L301.565 105.968C301.599 105.671 301.692 105.384 301.838 105.123C301.984 104.862 302.18 104.632 302.415 104.448C302.65 104.263 302.919 104.126 303.207 104.046C303.495 103.965 303.796 103.943 304.093 103.979L314.8 105.243C315.105 105.277 315.401 105.372 315.669 105.524C315.937 105.676 316.171 105.881 316.357 106.126C316.543 106.371 316.677 106.652 316.752 106.951C316.826 107.249 316.838 107.56 316.788 107.864C316.361 110.429 315.469 117.27 315.19 120.058Z" fill="white"/>
<path d="M319.669 158.09C302.661 164.428 281.154 160.748 281.154 160.748C245.316 153.982 253.736 112.139 253.736 112.139C267.324 110.28 284.946 113.292 297.4 116.154C306.527 118.236 325.283 122.474 330.358 123.106C351.716 125.746 360.434 123.329 360.434 123.329C386.048 118.218 383.186 94.4616 383.186 94.4616L388.93 110.857L381.16 147.03L319.669 158.09Z" fill="#B12238"/>
<path d="M405.177 103.905C402.797 98.6069 400.344 93.8111 397.853 89.4242C401.812 87.0635 410.01 81.0966 413.318 76.5239C413.518 76.2135 413.806 75.9698 414.145 75.8237C414.484 75.6776 414.859 75.6358 415.222 75.7036C415.585 75.7714 415.92 75.9457 416.183 76.2044C416.447 76.463 416.627 76.7942 416.701 77.1559C418.021 82.3978 416.33 94.1085 405.177 103.905Z" fill="#F7D43A"/>
<path d="M413.02 124.296C411.162 118.627 409.191 113.366 407.146 108.477C411.496 107.046 421.887 102.455 426.274 98.5697C426.537 98.3037 426.875 98.1234 427.242 98.0524C427.609 97.9813 427.99 98.0228 428.333 98.1715C428.677 98.3201 428.967 98.5689 429.167 98.8854C429.367 99.2018 429.466 99.5712 429.452 99.9452C429.564 105.447 426.107 116.229 413.02 124.296Z" fill="#F7D43A"/>
<path d="M394.841 84.4053C391.966 79.8016 388.773 75.4041 385.286 71.2447C389.5 67.5175 393.503 63.5582 397.276 59.3853C397.656 58.9505 398.154 58.6349 398.709 58.4765C399.264 58.3181 399.853 58.3238 400.405 58.4928C400.958 58.6618 401.449 58.9869 401.821 59.4289C402.192 59.8709 402.428 60.411 402.499 60.984C403.178 65.2224 402.842 69.5613 401.521 73.6453C400.199 77.7292 397.929 81.442 394.897 84.4797L394.841 84.4053Z" fill="#F7D43A"/>
<path d="M426.962 187.05C426.497 183.965 426.2 182.18 426.2 182.18C425.512 177.514 424.787 173.035 424.006 168.685C431.304 168.131 438.539 166.93 445.625 165.097C446.261 164.904 446.941 164.905 447.577 165.1C448.213 165.295 448.776 165.675 449.195 166.192C449.614 166.709 449.87 167.338 449.929 168.001C449.988 168.664 449.849 169.329 449.528 169.912C446.405 175.47 439.974 182.775 426.962 187.05Z" fill="#F7D43A"/>
<path d="M418.746 144.055C417.296 138.33 415.772 132.902 414.173 127.846C421.254 126.563 428.199 124.621 434.918 122.047C435.438 121.831 436.01 121.774 436.563 121.883C437.115 121.993 437.622 122.264 438.02 122.662C438.419 123.06 438.69 123.568 438.799 124.12C438.909 124.672 438.852 125.244 438.636 125.764C436.591 130.728 429.843 138.906 418.746 144.055Z" fill="#F7D43A"/>
<path d="M427.482 190.21C434.581 191.699 441.81 192.484 449.063 192.553C449.635 192.519 450.203 192.659 450.694 192.954C451.184 193.248 451.575 193.684 451.814 194.204C452.052 194.724 452.129 195.304 452.033 195.869C451.937 196.433 451.673 196.955 451.275 197.367C445.421 203.048 437.827 206.596 429.713 207.442C428.858 200.49 428.059 194.523 427.482 190.21Z" fill="#F7D43A"/>
<path d="M423.208 164.373C422.055 158.313 420.816 152.563 419.49 147.123C427.156 146.38 434.752 145.031 442.205 143.089C442.789 142.933 443.406 142.953 443.979 143.147C444.552 143.34 445.055 143.699 445.424 144.178C445.794 144.657 446.014 145.234 446.056 145.837C446.098 146.441 445.961 147.043 445.662 147.569C442.855 152.792 435.178 160.339 423.208 164.373Z" fill="#F7D43A"/>
<path d="M352.478 86.5616C352.478 86.5616 353.203 74.4791 341.102 77.0443C341.102 77.0443 334.782 78.6243 331.678 86.9891C331.678 86.9891 349.82 77.7507 352.478 86.5616Z" fill="#52101A"/>
<path style="mix-blend-mode:multiply" opacity="0.5" d="M406.552 151.732C412.423 153.853 417.855 157.035 422.575 161.12C423.895 167.756 425.103 174.745 426.2 182.18C429.32 201.015 431.362 220.012 432.315 239.079C431.683 239.079 431.033 239.172 430.457 239.172C412.686 239.172 408.857 218.465 407.203 209.431C406.18 203.854 401.793 185.154 388.428 175.767L378.818 169.02L401.812 149.967L406.552 151.732Z" fill="url(#paint11_linear_2261_40245)"/>
<path d="M403.577 160.172C413.002 163.517 420.623 170.674 426.72 178.407C433.244 186.66 439.193 196.177 441.888 206.419C443.528 211.537 443.463 217.049 441.702 222.127C440.962 224.059 439.763 225.783 438.209 227.15C436.654 228.516 434.791 229.484 432.78 229.971C420.418 232.35 417.5 216.216 415.957 207.869C413.931 196.939 407.76 178.5 393.521 168.499L403.577 160.172Z" fill="#B12238"/>
<path d="M282.103 230.027C288.154 235.384 295.54 239.006 303.48 240.511C312.704 242.544 322.206 243.009 331.585 241.886C340.024 240.938 349.263 239.098 356.698 234.451C364.134 229.804 371.959 220.695 371.996 211.364C372.164 179.541 339.987 173.853 330.6 173.611C280.244 172.384 272.734 197.069 272.511 206.568C272.396 210.93 273.189 215.268 274.84 219.306C276.491 223.345 278.965 226.996 282.103 230.027Z" fill="#BD4356"/>
<path d="M369.022 56.1881C372.011 51.7673 374.748 47.181 377.219 42.4513C377.479 41.9336 377.884 41.5025 378.384 41.2101C378.884 40.9178 379.458 40.7768 380.037 40.8044C380.615 40.8319 381.173 41.0268 381.643 41.3654C382.113 41.7039 382.475 42.1715 382.684 42.7115C384.346 46.5676 385.092 50.7564 384.863 54.949C384.634 59.1417 383.436 63.2243 381.365 66.8764C377.628 62.8996 373.492 59.318 369.022 56.1881Z" fill="#F7D43A"/>
</g>
<defs>
<linearGradient id="paint0_linear_2261_40245" x1="153.508" y1="73.3824" x2="135.923" y2="91.6176" gradientUnits="userSpaceOnUse">
<stop offset="0.2" stop-color="#6DB6E4"/>
<stop offset="0.8" stop-color="#5079E2"/>
</linearGradient>
<linearGradient id="paint1_linear_2261_40245" x1="16021.6" y1="19508.2" x2="16148" y2="19518.4" gradientUnits="userSpaceOnUse">
<stop offset="0.2" stop-color="#6DB6E4"/>
<stop offset="0.8" stop-color="#5079E2"/>
</linearGradient>
<linearGradient id="paint2_linear_2261_40245" x1="13239.6" y1="7066.46" x2="13487.4" y2="7420.72" gradientUnits="userSpaceOnUse">
<stop offset="0.2" stop-color="#6DB6E4"/>
<stop offset="0.8" stop-color="#5079E2"/>
</linearGradient>
<linearGradient id="paint3_linear_2261_40245" x1="19245.9" y1="3984.44" x2="19238.6" y2="4078.7" gradientUnits="userSpaceOnUse">
<stop offset="0.2" stop-color="#6DB6E4"/>
<stop offset="0.8" stop-color="#5079E2"/>
</linearGradient>
<linearGradient id="paint4_linear_2261_40245" x1="6626.8" y1="4813.36" x2="6830.42" y2="4579.8" gradientUnits="userSpaceOnUse">
<stop offset="0.2" stop-color="#6DB6E4"/>
<stop offset="0.8" stop-color="#5079E2"/>
</linearGradient>
<linearGradient id="paint5_linear_2261_40245" x1="52.796" y1="150.208" x2="189.644" y2="150.208" gradientUnits="userSpaceOnUse">
<stop offset="0.2" stop-color="#5079E2"/>
<stop offset="0.8" stop-color="#6DB6E4"/>
</linearGradient>
<linearGradient id="paint6_linear_2261_40245" x1="11036.8" y1="12341.8" x2="11485.6" y2="12701.2" gradientUnits="userSpaceOnUse">
<stop offset="0.2" stop-color="#6DB6E4"/>
<stop offset="0.8" stop-color="#5079E2"/>
</linearGradient>
<linearGradient id="paint7_linear_2261_40245" x1="115.625" y1="101.841" x2="115.625" y2="130.709" gradientUnits="userSpaceOnUse">
<stop offset="0.06" stop-color="#594884"/>
<stop offset="1" stop-color="white"/>
</linearGradient>
<linearGradient id="paint8_linear_2261_40245" x1="11504.4" y1="3761.7" x2="11504.4" y2="3887.39" gradientUnits="userSpaceOnUse">
<stop offset="0.2" stop-color="#6DB6E4"/>
<stop offset="0.8" stop-color="#5079E2"/>
</linearGradient>
<linearGradient id="paint9_linear_2261_40245" x1="263.403" y1="222.443" x2="277.883" y2="205.155" gradientUnits="userSpaceOnUse">
<stop stop-color="white"/>
<stop offset="1" stop-color="#B12238"/>
</linearGradient>
<linearGradient id="paint10_linear_2261_40245" x1="-21091.7" y1="4710.44" x2="-22360.8" y2="4710.44" gradientUnits="userSpaceOnUse">
<stop stop-color="white"/>
<stop offset="1" stop-color="#B12238"/>
</linearGradient>
<linearGradient id="paint11_linear_2261_40245" x1="-20712.5" y1="43920.5" x2="-19257.5" y2="45375.2" gradientUnits="userSpaceOnUse">
<stop stop-color="white"/>
<stop offset="1" stop-color="#B12238"/>
</linearGradient>
<clipPath id="clip0_2261_40245">
<rect width="191.312" height="269.662" fill="white" transform="translate(0.0791016 12.0222)"/>
</clipPath>
<clipPath id="clip1_2261_40245">
<rect width="199.119" height="287.246" fill="white" transform="matrix(-1 0 0 1 452 0.869129)"/>
</clipPath>
</defs>
</svg>
