<svg width="33" height="33" viewBox="0 0 33 33" fill="none" xmlns="http://www.w3.org/2000/svg">
<path d="M16.154 29.7977C14.6671 29.7977 13.4617 28.5923 13.4617 27.1054H18.8463C18.8463 28.5923 17.6409 29.7977 16.154 29.7977ZM26.9232 25.7592H5.38477V23.0669L8.07707 21.7208V14.3169C8.07707 9.65653 9.98996 6.63441 13.4617 5.80922V2.8746H18.8463V5.80922C22.318 6.63307 24.2309 9.65383 24.2309 14.3169V21.7208L26.9232 23.0669V25.7592ZM16.154 7.92268C14.5112 7.81661 12.927 8.55171 11.9473 9.8746C11.1093 11.2 10.6982 12.7505 10.7694 14.3169V23.0669H21.5386V14.3169C21.6097 12.7505 21.1986 11.2 20.3607 9.8746C19.381 8.55171 17.7967 7.81661 16.154 7.92268Z" fill="#FCFCFC"/>
</svg>
