<svg width="217" height="58" viewBox="0 0 217 58" fill="none" xmlns="http://www.w3.org/2000/svg">
<rect width="217" height="58" rx="10" fill="white"/>
<path d="M87.5585 22.176C88.5665 22.176 89.4545 22.384 90.2225 22.8C90.9905 23.216 91.5825 23.808 91.9985 24.576C92.4305 25.328 92.6465 26.2 92.6465 27.192C92.6465 28.168 92.4305 29.032 91.9985 29.784C91.5665 30.536 90.9505 31.12 90.1505 31.536C89.3665 31.936 88.4545 32.136 87.4145 32.136H83.5745C83.4945 32.136 83.4545 32.176 83.4545 32.256V38.712C83.4545 38.792 83.4225 38.864 83.3585 38.928C83.3105 38.976 83.2465 39 83.1665 39H80.9585C80.8785 39 80.8065 38.976 80.7425 38.928C80.6945 38.864 80.6705 38.792 80.6705 38.712V22.464C80.6705 22.384 80.6945 22.32 80.7425 22.272C80.8065 22.208 80.8785 22.176 80.9585 22.176H87.5585ZM87.1505 29.88C87.9665 29.88 88.6225 29.64 89.1185 29.16C89.6145 28.68 89.8625 28.048 89.8625 27.264C89.8625 26.464 89.6145 25.816 89.1185 25.32C88.6225 24.824 87.9665 24.576 87.1505 24.576H83.5745C83.4945 24.576 83.4545 24.616 83.4545 24.696V29.76C83.4545 29.84 83.4945 29.88 83.5745 29.88H87.1505ZM95.1119 39C95.0319 39 94.9599 38.976 94.8959 38.928C94.8479 38.864 94.8239 38.792 94.8239 38.712V22.488C94.8239 22.408 94.8479 22.344 94.8959 22.296C94.9599 22.232 95.0319 22.2 95.1119 22.2H97.3199C97.3999 22.2 97.4639 22.232 97.5119 22.296C97.5759 22.344 97.6079 22.408 97.6079 22.488V38.712C97.6079 38.792 97.5759 38.864 97.5119 38.928C97.4639 38.976 97.3999 39 97.3199 39H95.1119ZM105.246 26.544C106.254 26.544 107.142 26.72 107.91 27.072C108.678 27.424 109.27 27.912 109.686 28.536C110.102 29.144 110.31 29.84 110.31 30.624V38.712C110.31 38.792 110.278 38.864 110.214 38.928C110.166 38.976 110.102 39 110.022 39H107.814C107.734 39 107.662 38.976 107.598 38.928C107.55 38.864 107.526 38.792 107.526 38.712V37.944C107.526 37.896 107.51 37.872 107.478 37.872C107.446 37.856 107.414 37.864 107.382 37.896C106.598 38.76 105.462 39.192 103.974 39.192C102.774 39.192 101.782 38.888 100.998 38.28C100.23 37.672 99.8461 36.768 99.8461 35.568C99.8461 34.32 100.278 33.352 101.142 32.664C102.022 31.96 103.254 31.608 104.838 31.608H107.406C107.486 31.608 107.526 31.568 107.526 31.488V30.912C107.526 30.288 107.342 29.808 106.974 29.472C106.606 29.12 106.054 28.944 105.318 28.944C104.71 28.944 104.214 29.056 103.83 29.28C103.462 29.488 103.23 29.784 103.134 30.168C103.086 30.36 102.974 30.44 102.798 30.408L100.47 30.12C100.39 30.104 100.318 30.08 100.254 30.048C100.206 30 100.19 29.944 100.206 29.88C100.334 28.904 100.854 28.104 101.766 27.48C102.694 26.856 103.854 26.544 105.246 26.544ZM104.67 36.984C105.454 36.984 106.126 36.776 106.686 36.36C107.246 35.944 107.526 35.416 107.526 34.776V33.648C107.526 33.568 107.486 33.528 107.406 33.528H105.39C104.542 33.528 103.87 33.688 103.374 34.008C102.894 34.328 102.654 34.784 102.654 35.376C102.654 35.888 102.838 36.288 103.206 36.576C103.59 36.848 104.078 36.984 104.67 36.984ZM112.607 43.776C112.559 43.776 112.519 43.744 112.487 43.68C112.455 43.632 112.439 43.568 112.439 43.488V41.76C112.439 41.68 112.463 41.608 112.511 41.544C112.575 41.496 112.647 41.472 112.727 41.472H112.751C113.407 41.456 113.919 41.384 114.287 41.256C114.655 41.144 114.959 40.92 115.199 40.584C115.439 40.248 115.655 39.744 115.847 39.072C115.863 39.04 115.863 38.992 115.847 38.928L111.887 27.048C111.871 27.016 111.863 26.976 111.863 26.928C111.863 26.784 111.943 26.712 112.103 26.712H114.455C114.631 26.712 114.743 26.792 114.791 26.952L117.191 35.4C117.207 35.448 117.231 35.472 117.263 35.472C117.295 35.472 117.319 35.448 117.335 35.4L119.735 26.952C119.783 26.792 119.895 26.712 120.071 26.712H122.351C122.447 26.712 122.511 26.744 122.543 26.808C122.591 26.856 122.599 26.936 122.567 27.048L118.343 39.672C117.943 40.808 117.551 41.656 117.167 42.216C116.783 42.776 116.255 43.176 115.583 43.416C114.927 43.656 113.991 43.776 112.775 43.776H112.607ZM135.082 39.192C133.834 39.192 132.746 38.992 131.818 38.592C130.89 38.192 130.17 37.632 129.658 36.912C129.162 36.192 128.914 35.344 128.914 34.368V33.768C128.914 33.688 128.938 33.624 128.986 33.576C129.05 33.512 129.122 33.48 129.202 33.48H131.338C131.418 33.48 131.482 33.512 131.53 33.576C131.594 33.624 131.626 33.688 131.626 33.768V34.224C131.626 34.96 131.954 35.576 132.61 36.072C133.266 36.552 134.162 36.792 135.298 36.792C136.274 36.792 137.01 36.584 137.506 36.168C138.002 35.752 138.25 35.216 138.25 34.56C138.25 34.112 138.114 33.736 137.842 33.432C137.57 33.112 137.178 32.824 136.666 32.568C136.17 32.312 135.418 31.992 134.41 31.608C133.274 31.192 132.354 30.8 131.65 30.432C130.946 30.064 130.354 29.568 129.874 28.944C129.41 28.304 129.178 27.512 129.178 26.568C129.178 25.16 129.69 24.048 130.714 23.232C131.738 22.416 133.106 22.008 134.818 22.008C136.018 22.008 137.074 22.216 137.986 22.632C138.914 23.048 139.634 23.632 140.146 24.384C140.658 25.12 140.914 25.976 140.914 26.952V27.36C140.914 27.44 140.882 27.512 140.818 27.576C140.77 27.624 140.706 27.648 140.626 27.648H138.466C138.386 27.648 138.314 27.624 138.25 27.576C138.202 27.512 138.178 27.44 138.178 27.36V27.096C138.178 26.344 137.866 25.712 137.242 25.2C136.634 24.672 135.786 24.408 134.698 24.408C133.818 24.408 133.13 24.592 132.634 24.96C132.154 25.328 131.914 25.848 131.914 26.52C131.914 27 132.042 27.392 132.298 27.696C132.554 28 132.938 28.28 133.45 28.536C133.962 28.776 134.754 29.088 135.826 29.472C136.962 29.904 137.866 30.296 138.538 30.648C139.226 31 139.81 31.496 140.29 32.136C140.786 32.76 141.034 33.544 141.034 34.488C141.034 35.928 140.498 37.072 139.426 37.92C138.37 38.768 136.922 39.192 135.082 39.192ZM150.078 28.704C150.078 28.784 150.046 28.856 149.982 28.92C149.934 28.968 149.87 28.992 149.79 28.992H147.342C147.262 28.992 147.222 29.032 147.222 29.112V34.896C147.222 35.504 147.35 35.944 147.606 36.216C147.878 36.488 148.302 36.624 148.878 36.624H149.598C149.678 36.624 149.742 36.656 149.79 36.72C149.854 36.768 149.886 36.832 149.886 36.912V38.712C149.886 38.888 149.79 38.992 149.598 39.024L148.35 39.048C147.086 39.048 146.142 38.832 145.518 38.4C144.894 37.968 144.574 37.152 144.558 35.952V29.112C144.558 29.032 144.518 28.992 144.438 28.992H143.07C142.99 28.992 142.918 28.968 142.854 28.92C142.806 28.856 142.782 28.784 142.782 28.704V27.024C142.782 26.944 142.806 26.88 142.854 26.832C142.918 26.768 142.99 26.736 143.07 26.736H144.438C144.518 26.736 144.558 26.696 144.558 26.616V23.808C144.558 23.728 144.582 23.664 144.63 23.616C144.694 23.552 144.766 23.52 144.846 23.52H146.934C147.014 23.52 147.078 23.552 147.126 23.616C147.19 23.664 147.222 23.728 147.222 23.808V26.616C147.222 26.696 147.262 26.736 147.342 26.736H149.79C149.87 26.736 149.934 26.768 149.982 26.832C150.046 26.88 150.078 26.944 150.078 27.024V28.704ZM157.524 39.192C156.26 39.192 155.172 38.872 154.26 38.232C153.364 37.592 152.732 36.704 152.364 35.568C152.092 34.704 151.956 33.792 151.956 32.832C151.956 31.808 152.084 30.896 152.34 30.096C152.708 28.976 153.348 28.104 154.26 27.48C155.172 26.856 156.268 26.544 157.548 26.544C158.764 26.544 159.812 26.856 160.692 27.48C161.588 28.104 162.22 28.968 162.588 30.072C162.876 30.84 163.02 31.752 163.02 32.808C163.02 33.816 162.884 34.728 162.612 35.544C162.244 36.68 161.612 37.576 160.716 38.232C159.82 38.872 158.756 39.192 157.524 39.192ZM157.524 36.792C158.116 36.792 158.62 36.624 159.036 36.288C159.468 35.952 159.78 35.48 159.972 34.872C160.132 34.344 160.212 33.672 160.212 32.856C160.212 31.992 160.132 31.32 159.972 30.84C159.796 30.232 159.492 29.768 159.06 29.448C158.628 29.112 158.1 28.944 157.476 28.944C156.884 28.944 156.372 29.112 155.94 29.448C155.508 29.768 155.196 30.232 155.004 30.84C154.844 31.4 154.764 32.072 154.764 32.856C154.764 33.64 154.844 34.312 155.004 34.872C155.18 35.48 155.484 35.952 155.916 36.288C156.364 36.624 156.9 36.792 157.524 36.792ZM171.364 26.592C171.876 26.592 172.324 26.696 172.708 26.904C172.836 26.968 172.884 27.088 172.852 27.264L172.444 29.424C172.428 29.616 172.316 29.672 172.108 29.592C171.868 29.512 171.588 29.472 171.268 29.472C171.06 29.472 170.9 29.48 170.788 29.496C170.116 29.528 169.556 29.768 169.108 30.216C168.66 30.648 168.436 31.216 168.436 31.92V38.712C168.436 38.792 168.404 38.864 168.34 38.928C168.292 38.976 168.228 39 168.148 39H165.94C165.86 39 165.788 38.976 165.724 38.928C165.676 38.864 165.652 38.792 165.652 38.712V27.024C165.652 26.944 165.676 26.88 165.724 26.832C165.788 26.768 165.86 26.736 165.94 26.736H168.148C168.228 26.736 168.292 26.768 168.34 26.832C168.404 26.88 168.436 26.944 168.436 27.024V28.104C168.436 28.168 168.444 28.208 168.46 28.224C168.492 28.224 168.524 28.2 168.556 28.152C169.228 27.112 170.164 26.592 171.364 26.592ZM184.785 31.488C184.849 31.888 184.881 32.336 184.881 32.832L184.857 33.576C184.857 33.768 184.761 33.864 184.569 33.864H177.057C176.977 33.864 176.937 33.904 176.937 33.984C176.985 34.512 177.057 34.872 177.153 35.064C177.537 36.216 178.473 36.8 179.961 36.816C181.049 36.816 181.913 36.368 182.553 35.472C182.617 35.376 182.697 35.328 182.793 35.328C182.857 35.328 182.913 35.352 182.961 35.4L184.449 36.624C184.593 36.736 184.617 36.864 184.521 37.008C184.025 37.712 183.361 38.256 182.529 38.64C181.713 39.024 180.801 39.216 179.793 39.216C178.545 39.216 177.481 38.936 176.601 38.376C175.737 37.816 175.105 37.032 174.705 36.024C174.337 35.16 174.153 33.96 174.153 32.424C174.153 31.496 174.249 30.744 174.441 30.168C174.761 29.048 175.361 28.168 176.241 27.528C177.137 26.872 178.209 26.544 179.457 26.544C182.609 26.544 184.385 28.192 184.785 31.488ZM179.457 28.944C178.865 28.944 178.369 29.096 177.969 29.4C177.585 29.688 177.313 30.096 177.153 30.624C177.057 30.896 176.993 31.248 176.961 31.68C176.929 31.76 176.961 31.8 177.057 31.8H181.929C182.009 31.8 182.049 31.76 182.049 31.68C182.017 31.28 181.969 30.976 181.905 30.768C181.761 30.192 181.473 29.744 181.041 29.424C180.625 29.104 180.097 28.944 179.457 28.944Z" fill="#4B008B"/>
<path d="M35.1001 44.5C34.8442 44.5041 34.5899 44.4603 34.3501 44.371L46.4311 32.2855L50.4301 36.289L36.5476 44.089C36.1078 44.3467 35.6097 44.4882 35.1001 44.5ZM33.3541 43.5025C33.1085 43.0577 32.9863 42.5554 33.0001 42.0475V19.99C32.998 19.6552 33.0487 19.3221 33.1501 19.003L45.4996 31.3555L33.3496 43.5055L33.3541 43.5025ZM51.6226 35.6155L47.3611 31.357L52.0606 26.659L56.2351 29.0035C57.0364 29.3621 57.5726 30.1358 57.6271 31.012C57.5729 31.8891 57.036 32.6636 56.2336 33.022L51.6226 35.6155ZM46.4311 30.421L33.9211 17.9125C34.2646 17.6585 34.6804 17.5213 35.1076 17.521C35.6121 17.5389 36.1043 17.6817 36.5401 17.9365L50.8666 25.9885L46.4326 30.421H46.4311Z" fill="#4B008B"/>
</svg>
