<svg width="22" height="22" viewBox="0 0 22 22" fill="none" xmlns="http://www.w3.org/2000/svg">
<rect width="22" height="22" fill="white"/>
<path d="M20.1233 10.4752C20.3395 10.81 20.504 11.0892 20.615 11.286C20.504 11.4827 20.3395 11.762 20.1233 12.0967C19.6784 12.7857 19.0191 13.7026 18.1621 14.6169C16.4352 16.459 13.9884 18.2053 10.9345 18.2053C7.88066 18.2053 5.43383 16.459 3.70698 14.6169C2.84994 13.7026 2.19066 12.7857 1.74573 12.0967C1.52954 11.762 1.36504 11.4827 1.25403 11.286C1.36504 11.0892 1.52954 10.81 1.74573 10.4752C2.19066 9.78618 2.84994 8.86927 3.70698 7.95504C5.43383 6.11295 7.88066 4.36663 10.9345 4.36663C13.9884 4.36663 16.4352 6.11295 18.1621 7.95504C19.0191 8.86927 19.6784 9.78618 20.1233 10.4752Z" stroke="#03C5CC" stroke-width="1.4" stroke-linecap="round" stroke-linejoin="round"/>
<path d="M13.0845 11.336C13.0845 11.7724 12.9551 12.1991 12.7127 12.562C12.4702 12.9249 12.1256 13.2077 11.7224 13.3748C11.3192 13.5418 10.8755 13.5856 10.4475 13.5005C10.0194 13.4154 9.62616 13.2053 9.3175 12.8968C9.00883 12.5882 8.79858 12.1951 8.71334 11.767C8.6281 11.339 8.67168 10.8953 8.83859 10.492C9.0055 10.0888 9.28823 9.74403 9.65104 9.50144C10.0139 9.25885 10.4404 9.12929 10.8769 9.12913C11.1668 9.12902 11.4538 9.18602 11.7217 9.29688C11.9895 9.40774 12.2329 9.57028 12.4379 9.77521L12.8974 9.31551L12.4379 9.77521C12.6429 9.98015 12.8055 10.2235 12.9165 10.4913L13.517 10.2425L12.9165 10.4913C13.0274 10.7591 13.0845 11.0461 13.0845 11.336Z" stroke="#03C5CC" stroke-width="1.3" stroke-linecap="round" stroke-linejoin="round"/>
</svg>
