<svg width="509" height="205" viewBox="0 0 509 205" fill="none" xmlns="http://www.w3.org/2000/svg">
<g clip-path="url(#clip0_2232_20203)">
<path d="M90.0804 43.0811C90.0804 43.0811 44.8779 35.9189 29.4719 115.892C29.4719 115.892 10.7221 202.865 31.0558 204.622C31.0558 204.622 40.3292 207.095 46.8544 193.811C46.8544 193.811 52.5809 178.743 75.0806 180.392C75.0806 180.392 85.1256 180.392 98.4603 186.284C105.879 189.527 114.069 196.838 116.276 198.824C118.713 201.013 122.016 203.513 125.224 204.351C125.224 204.351 143.636 211.108 143.636 180.027C143.636 172.676 142.648 140.324 140.089 122.095C135.676 90.7973 123.532 47.3919 90.0804 43.0811Z" fill="#AD79CF"/>
<path d="M33.1674 109.514C24.7334 111.554 18.1676 116.5 11.8049 121.757C6.38976 126.27 -0.568645 134.797 0.0270166 142.027C0.116173 143.089 0.437236 144.118 0.967632 145.043C1.49803 145.968 2.22488 146.766 3.09712 147.38C3.96936 147.994 4.96581 148.411 6.01645 148.599C7.06708 148.788 8.1464 148.745 9.17853 148.473C13.2399 147.324 15.2164 143.284 17.0575 139.77C21.2542 131.743 27.4139 124.014 36.3488 120.784L33.1674 109.514Z" fill="#AD79CF"/>
<path d="M19.9139 134.838C13.145 131.189 10.1667 127 8.93474 124.365C4.21006 129.108 -0.541693 136 0.026893 141.932C0.116049 142.994 0.437112 144.024 0.967509 144.949C1.4979 145.873 2.22475 146.671 3.097 147.285C3.96924 147.9 4.96569 148.316 6.01632 148.505C7.06695 148.694 8.14627 148.65 9.17841 148.378C13.2397 147.23 15.2163 143.189 17.0574 139.676C17.9238 138.095 18.885 136.459 19.9139 134.838Z" fill="#7AD5BE"/>
<path d="M155.468 126.014C149.457 120.405 143.284 115.095 134.958 112.5L131.032 123.554C139.737 127.284 145.369 135.365 149.024 143.608C150.635 147.23 152.381 151.378 156.321 152.757C157.338 153.087 158.416 153.191 159.478 153.062C160.54 152.933 161.561 152.574 162.47 152.01C163.379 151.447 164.154 150.692 164.74 149.799C165.326 148.905 165.71 147.895 165.865 146.838C166.961 139.743 160.612 130.784 155.468 126.014Z" fill="#AD79CF"/>
<path d="M146.492 138.635C153.572 135.392 156.754 131.378 158.148 128.811C162.561 133.824 166.772 140.973 165.865 146.905C165.71 147.962 165.326 148.973 164.74 149.866C164.154 150.76 163.379 151.514 162.47 152.078C161.561 152.642 160.54 153.001 159.478 153.129C158.416 153.258 157.338 153.154 156.321 152.824C152.381 151.473 150.635 147.297 149.024 143.676C148.267 141.953 147.422 140.271 146.492 138.635Z" fill="#7AD5BE"/>
<path d="M59.9315 85.473C66.4658 89.9807 74.2455 92.3426 82.1876 92.2297C82.1876 92.2297 91.5151 92.3378 107.72 84.7973C107.72 84.7973 114.367 81.2162 119.904 83.7432C121.894 84.6486 126.794 87.8919 125.739 97.3514C124.615 107.446 118.347 123.351 81.5242 121.203C81.5242 121.203 45.4732 118.649 44.6338 94.1757C44.6338 94.1757 44.1736 88.1486 47.2466 85.2838C49.2638 83.2838 52.743 81.5405 59.9315 85.473Z" fill="#533B63"/>
<path d="M52.4995 110.365C63.3297 119.824 81.4703 121.176 81.4703 121.176C98.3519 122.162 108.79 119.351 115.315 115.054C108.938 100.257 80.3196 108.878 80.3196 108.878C75.5019 106.347 70.1125 105.095 64.67 105.243C60.105 105.328 55.7475 107.162 52.4995 110.365Z" fill="#E9BCD4"/>
<path d="M66.3755 95.0676C66.4245 95.7268 66.5611 96.3766 66.7816 97C67.2141 97.88 67.8969 98.6133 68.7446 99.1081C70.1172 99.9721 71.7715 100.272 73.361 99.9459C74.1282 99.7891 74.8422 99.4384 75.4348 98.9274C76.0274 98.4163 76.4787 97.762 76.7454 97.027C76.9214 96.3573 76.9899 95.664 76.9485 94.973C76.9485 94.3243 76.9485 93.054 76.9485 91.9459C73.0511 91.4562 69.2523 90.3714 65.6851 88.7297C65.9287 91.0405 66.213 93.8108 66.3755 95.0676Z" fill="white"/>
<path d="M54.0019 91C54.3743 92.5983 55.2814 94.0222 56.5734 95.0368C57.8655 96.0514 59.4654 96.5961 61.1092 96.5811C61.6384 96.6074 62.1673 96.5251 62.6633 96.3391C63.1593 96.1531 63.6118 95.8676 63.9928 95.5C64.438 94.8848 64.7092 94.1613 64.778 93.4054C64.954 92.2703 65.1706 90.1487 65.2653 88.5271C63.3993 87.6707 61.6141 86.6485 59.9314 85.473C58.1585 84.4392 56.229 83.6998 54.2185 83.2838C54.0831 85.0676 53.9613 87.5135 53.9207 88.6892C53.8731 89.4603 53.9003 90.2342 54.0019 91Z" fill="white"/>
<path d="M89.2677 95.9865C89.2053 94.4179 89.0334 92.8556 88.7533 91.3108C86.5966 91.8029 84.3984 92.0924 82.1875 92.1757C80.6423 92.2317 79.0951 92.1775 77.5576 92.0135C77.693 93.3649 77.8554 95.0946 77.9637 95.8784C78.221 97.6622 78.6136 99.6487 80.1975 100.676C80.7631 101.033 81.3931 101.276 82.0521 101.392C82.9935 101.595 83.9686 101.586 84.9057 101.364C85.8428 101.142 86.7181 100.712 87.4672 100.108C88.5872 99.0241 89.2341 97.5433 89.2677 95.9865Z" fill="white"/>
<path d="M102.143 87.1486C102.576 88.6486 103.05 90.4189 103.496 91.6081C103.69 92.3853 104.02 93.1219 104.471 93.7838C105.101 94.4669 105.891 94.9836 106.769 95.2878C107.648 95.592 108.589 95.6742 109.507 95.527C110.449 95.4694 111.357 95.1563 112.133 94.6216C112.566 94.2812 112.925 93.8564 113.188 93.3732C113.451 92.89 113.613 92.3584 113.663 91.8108C113.769 90.7332 113.663 89.6453 113.352 88.6081C112.898 86.804 112.305 85.0375 111.578 83.3243C110.264 83.6612 108.988 84.1369 107.774 84.7432C105.757 85.6621 103.902 86.4459 102.143 87.1486Z" fill="white"/>
<path d="M92.5033 97.9865C93.5792 98.8497 94.89 99.3704 96.2658 99.4812C97.6417 99.5921 99.0192 99.2879 100.22 98.6081C100.891 98.1567 101.462 97.5722 101.898 96.8911C102.333 96.2099 102.624 95.4467 102.751 94.6487C103.009 93.0946 101.641 88.3649 101.492 87.4054C97.4995 88.9998 93.3842 90.2697 89.1865 91.2027C90.08 94.1216 90.6757 96.527 92.5033 97.9865Z" fill="white"/>
<path d="M81.4701 121.149C84.6109 121.338 87.5215 121.392 90.229 121.324C90.1478 119.973 90.1613 115.635 89.5386 114.297C89.1997 113.549 88.7151 112.876 88.1132 112.317C87.5112 111.758 86.8039 111.324 86.0323 111.041C84.7146 110.651 83.3095 110.672 82.0036 111.099C80.6978 111.526 79.5532 112.34 78.7219 113.432C77.3682 115.257 77.3682 117.676 77.3682 120.622C79.8591 121.041 81.4701 121.149 81.4701 121.149Z" fill="white"/>
<path d="M90.2156 39.2567C89.7799 40.4796 89.4093 41.7246 89.1055 42.9865C89.7282 42.9865 90.0802 43.0811 90.0802 43.0811C90.9872 43.2027 91.8536 43.3649 92.7877 43.527C93.2578 42.7547 93.842 42.0576 94.5206 41.4595C102.467 34.0676 115.017 32.4054 121.948 24.0946C123.64 22.0676 124.886 19.027 123.302 16.946C122.508 16.0559 121.442 15.4525 120.269 15.2297C115.328 14 110.157 16.1757 105.974 19.0541C98.7512 23.9963 93.2448 31.0557 90.2156 39.2567Z" fill="#AD79CF"/>
<path d="M85.8024 42.9459C87.2424 36.0222 90.2321 29.5131 94.5478 23.9054C98.9476 18.5 104.728 13.9459 107.49 7.58107C108.316 5.68917 108.844 3.33783 107.49 1.67567C107.014 1.10087 106.406 0.649506 105.718 0.360071C105.03 0.0706361 104.281 -0.0482511 103.537 0.0135314C102.046 0.143746 100.602 0.605482 99.3131 1.36488C93.8466 4.3993 89.4608 9.05579 86.7636 14.6892C84.1374 20.2418 82.3927 26.1686 81.5922 32.2568C80.9695 36.3108 80.4144 40.6081 78.3296 44.0135C80.7804 43.4189 83.2829 43.0614 85.8024 42.9459Z" fill="#AD79CF"/>
<path d="M77.0028 29.5946C76.7591 23.5811 76.5154 16.8784 73.9568 11.2703C72.9082 8.52251 70.8979 6.24699 68.298 4.86487C67.0361 4.32539 65.6346 4.20221 64.2978 4.51334C62.9609 4.82448 61.7585 5.55367 60.8658 6.5946C56.5607 11.3784 60.0264 19.1216 62.5309 23.9189C64.4262 27.527 66.9036 30.8784 68.4334 34.6216C69.9588 38.4045 70.5844 42.489 70.261 46.5541C70.261 47.3108 70.8295 47.6622 71.4658 47.6487C71.1274 48.8784 73.0227 49.8378 73.6454 48.5676C76.6372 42.6216 77.2735 36.0946 77.0028 29.5946Z" fill="#AD79CF"/>
<path d="M70.1931 50.3784C66.3484 46.5135 64.4666 41.4865 62.9098 36.5C62.0705 33.7973 61.3259 31.1757 60.4595 28.5405C59.8982 26.2656 58.5267 24.2722 56.6012 22.9324C55.6819 22.3313 54.6068 22.0111 53.5078 22.0111C52.4088 22.0111 51.3338 22.3313 50.4144 22.9324C49.5429 23.6334 48.8812 24.56 48.5015 25.611C48.1219 26.6621 48.0391 27.797 48.2619 28.8919C48.9118 33.4865 51.6328 38.1351 54.5841 41.7838C58.0646 46.0668 62.4705 49.5085 67.472 51.8513C67.7617 51.9961 68.0958 52.0251 68.4061 51.9324C69.4891 53.0946 71.2761 51.4595 70.1931 50.3784Z" fill="#AD79CF"/>
<path d="M128.311 34.5675C127.689 33.9324 126.945 33.4281 126.124 33.0846C125.303 32.7411 124.422 32.5653 123.532 32.5676C118.333 32.1351 113.27 34.2027 108.803 36.4595C106.063 37.8318 103.417 39.3848 100.883 41.1081C98.7014 42.4705 96.8217 44.264 95.3599 46.3784C94.7236 47.3784 95.9014 48.2838 96.822 48.027C96.8535 48.2574 96.9439 48.4757 97.0846 48.6609C97.2254 48.8461 97.4116 48.9919 97.6253 49.0843C97.839 49.1767 98.0729 49.2125 98.3045 49.1883C98.5361 49.1641 98.7576 49.0806 98.9474 48.9459C103.009 45.7162 109.182 45.1216 114.191 44.2297C116.854 43.8032 119.493 43.2394 122.097 42.5405C124.166 42.097 126.078 41.1077 127.634 39.6756C128.354 39.0546 128.82 38.1915 128.945 37.25C129.07 36.3085 128.844 35.354 128.311 34.5675Z" fill="#AD79CF"/>
<path d="M76.9621 28.4189C73.5896 29.5331 70.1364 30.387 66.6328 30.973C66.8223 31.3244 67.0254 31.6757 67.2014 32.0405C70.5252 31.4774 73.8017 30.6643 77.0027 29.6081L76.9621 28.4189Z" fill="#DCC5EA"/>
<path d="M67.9053 33.4865C68.0813 33.8649 68.2573 34.2433 68.4197 34.6216C71.3223 34.5335 74.2079 34.1441 77.0297 33.4595C77.0297 33.0676 77.0297 32.6622 77.0297 32.2703C74.044 33.0181 70.983 33.4261 67.9053 33.4865Z" fill="#DCC5EA"/>
<path d="M76.7047 38.027C76.7047 37.6351 76.813 37.2432 76.8537 36.8513C74.3661 37.2519 71.8425 37.3833 69.3267 37.2432C69.435 37.6216 69.5297 38.0135 69.6245 38.4054C71.9913 38.5161 74.3633 38.3893 76.7047 38.027Z" fill="#DCC5EA"/>
<path d="M74.62 12.9324C69.5978 14.3675 64.4388 15.2734 59.2275 15.6351C59.3088 16.0135 59.4035 16.3919 59.5118 16.7703C64.7534 16.4015 69.943 15.4958 74.999 14.0676C74.9043 13.6487 74.7553 13.2973 74.62 12.9324Z" fill="#DCC5EA"/>
<path d="M76.5154 21.7838C76.5154 21.3919 76.4342 21 76.3801 20.6081C71.8952 22.1477 67.2837 23.2917 62.5986 24.027C62.7882 24.3784 62.9777 24.7297 63.1807 25.0811C67.7108 24.3591 72.1716 23.2561 76.5154 21.7838Z" fill="#DCC5EA"/>
<path d="M76.7318 24.3649C72.5662 25.4772 68.3061 26.201 64.0063 26.527L64.6562 27.6216C68.7704 27.2834 72.8472 26.587 76.8401 25.5405L76.7318 24.3649Z" fill="#DCC5EA"/>
<path d="M75.7436 16.8784C75.6624 16.5 75.5947 16.1216 75.4999 15.7432H75.3781C70.7417 17.8751 65.8644 19.4405 60.8521 20.4054L61.3394 21.4729C66.3023 20.5013 71.1359 18.9596 75.7436 16.8784Z" fill="#DCC5EA"/>
<path d="M58.8351 11.8649C58.8147 12.2475 58.8147 12.6309 58.8351 13.0135C63.8362 12.7471 68.7821 11.8387 73.5507 10.3108C73.3747 9.97298 73.1851 9.62161 72.9685 9.28378C68.3857 10.7372 63.6366 11.6045 58.8351 11.8649Z" fill="#DCC5EA"/>
<path d="M60.5005 28.6622V28.5405C60.3922 28.2072 60.2704 27.8694 60.135 27.527C56.7408 29.6825 53.0194 31.2751 49.1152 32.2432C49.2371 32.6081 49.386 32.973 49.5214 33.3379C53.4027 32.3596 57.1071 30.782 60.5005 28.6622Z" fill="#DCC5EA"/>
<path d="M61.7864 32.8108L61.4209 31.6487C58.2432 33.8455 54.7067 35.4734 50.9697 36.4595C51.1593 36.8108 51.3623 37.1621 51.5654 37.5C55.207 36.5071 58.6601 34.9229 61.7864 32.8108Z" fill="#DCC5EA"/>
<path d="M58.6589 24.8243C55.2949 26.1728 51.7819 27.1164 48.1943 27.6352C48.1605 28.0173 48.1605 28.4016 48.1943 28.7838C51.9812 28.2316 55.6893 27.2337 59.2411 25.8108C59.0921 25.473 58.8891 25.1351 58.6589 24.8243Z" fill="#DCC5EA"/>
<path d="M64.1692 40.2432C64.0338 39.8649 63.912 39.5 63.7766 39.1351C60.973 40.5088 58.0204 41.5563 54.9771 42.2567L55.8164 43.2432C58.6976 42.5359 61.497 41.5305 64.1692 40.2432Z" fill="#DCC5EA"/>
<path d="M62.8289 36.1892C62.707 35.8108 62.5852 35.4324 62.4769 35.0405C59.3242 36.7862 55.9301 38.0567 52.4048 38.8108L53.1087 39.8108C56.5001 39.0553 59.771 37.8366 62.8289 36.1892Z" fill="#DCC5EA"/>
<path d="M65.8611 44.1757C65.6851 43.8243 65.5091 43.4594 65.3467 43.1081C63.3615 44.3617 61.3047 45.4988 59.187 46.5135L60.1753 47.3378C62.124 46.3825 64.0218 45.3271 65.8611 44.1757Z" fill="#DCC5EA"/>
<path d="M116.005 14.9459C115.586 14.9459 115.179 15.0405 114.76 15.1081C116.094 18.8018 118.574 21.9739 121.84 24.1622V24.0946C122.072 23.8178 122.289 23.5292 122.49 23.2297C119.521 21.2056 117.255 18.311 116.005 14.9459Z" fill="#DCC5EA"/>
<path d="M99.6918 18.2162C99.9626 17.9054 100.247 17.6081 100.531 17.3108C96.4488 15.6445 92.7293 13.203 89.5791 10.1216L88.8887 11.1216C92.0287 14.1211 95.6894 16.5252 99.6918 18.2162Z" fill="#DCC5EA"/>
<path d="M91.9893 7.09458C95.7148 9.66804 99.7664 11.7357 104.038 13.2432C104.295 12.9189 104.525 12.5946 104.769 12.2702C100.529 10.8212 96.5108 8.79288 92.8286 6.24323C92.5037 6.52701 92.26 6.79729 91.9893 7.09458Z" fill="#DCC5EA"/>
<path d="M91.5695 18.8378C92.8658 19.5152 94.1991 20.1198 95.5631 20.6486C96.0099 20.8378 96.4701 21 96.9169 21.1621L97.7698 20.2432L97.5667 20.1756C96.8763 19.9324 96.2129 19.6756 95.5225 19.4054C94.277 18.8919 93.0451 18.3108 91.8537 17.6756C90.1187 16.7585 88.4536 15.7151 86.8719 14.554C86.8463 14.5881 86.8237 14.6243 86.8042 14.6622C86.6417 14.973 86.5063 15.2973 86.3574 15.6216C88.0121 16.8218 89.7543 17.8969 91.5695 18.8378Z" fill="#DCC5EA"/>
<path d="M106.326 9.87837C106.529 9.54054 106.718 9.1892 106.894 8.83785C103.072 7.85304 99.6569 5.69241 97.1334 2.66216C96.795 2.87838 96.4836 3.12161 96.1587 3.36485C98.7902 6.5345 102.343 8.81043 106.326 9.87837Z" fill="#DCC5EA"/>
<path d="M93.8573 37.973C93.1299 37.2188 92.4559 36.415 91.8402 35.5676C91.6507 35.973 91.4611 36.3784 91.2852 36.7838C91.9546 37.673 92.6924 38.5088 93.4918 39.2838C94.0556 39.8051 94.6574 40.2839 95.2923 40.7162C95.6037 40.4459 95.9151 40.1756 96.2264 39.9324C95.8546 39.6976 95.4974 39.4404 95.1569 39.1622C94.7001 38.7922 94.2661 38.3951 93.8573 37.973Z" fill="#DCC5EA"/>
<path d="M81.0234 36.1892C83.0947 36.7297 85.1795 37.2297 87.2779 37.6621L87.657 36.5676C85.5044 36.1216 83.3519 35.6081 81.2265 35.054L81.0234 36.1892Z" fill="#DCC5EA"/>
<path d="M81.6735 32.1351V32.3378C81.6735 32.6487 81.5787 32.973 81.5381 33.2973C83.7689 34.0528 86.0909 34.5072 88.4424 34.6486C88.5913 34.2703 88.7402 33.8919 88.9026 33.527C86.4388 33.4089 84.0045 32.9402 81.6735 32.1351Z" fill="#DCC5EA"/>
<path d="M96.565 35.473L94.778 33.3243C94.382 32.9232 94.0448 32.4682 93.7762 31.973C93.5461 32.3649 93.2889 32.7432 93.0723 33.1351L93.3565 33.527C94.047 34.3919 94.7103 35.2432 95.482 36.0946C96.2245 37.0724 97.0585 37.9774 97.9729 38.7973L99.0018 38.1351C98.0824 37.3517 97.2639 36.4575 96.565 35.473Z" fill="#DCC5EA"/>
<path d="M103.022 21.2297C102.657 21.5135 102.332 21.8378 101.98 22.1351C103.148 26.3431 105.547 30.1074 108.871 32.9459L110.035 32.3784C106.552 29.5162 104.092 25.6047 103.022 21.2297Z" fill="#DCC5EA"/>
<path d="M106.664 18.527L105.879 19.0541L105.608 19.2568C107.106 23.7534 109.986 27.6641 113.839 30.4324C114.218 30.2297 114.583 30 114.949 29.7838C111.011 27.0551 108.095 23.0942 106.664 18.527Z" fill="#DCC5EA"/>
<path d="M111.538 16.0135L110.414 16.4865C112.404 20.5406 114.719 24.5946 118.537 27.2973L119.484 26.5135C115.707 24.027 113.474 19.973 111.538 16.0135Z" fill="#DCC5EA"/>
<path d="M99.5568 24.446C99.2454 24.7703 98.9341 25.0676 98.6362 25.3919C100.266 28.9217 102.689 32.0291 105.716 34.473L106.908 33.9054C103.697 31.4219 101.168 28.1677 99.5568 24.446Z" fill="#DCC5EA"/>
<path d="M99.5975 32.8514C98.4468 31.3243 97.3638 29.7433 96.3484 28.1352C96.0777 28.473 95.8475 28.8379 95.5903 29.1892C96.5786 30.7162 97.5939 32.2297 98.704 33.6622C99.5282 34.7645 100.525 35.7272 101.655 36.5135L102.833 35.8919C101.559 35.1079 100.458 34.0734 99.5975 32.8514Z" fill="#DCC5EA"/>
<path d="M86.8583 26.5541L90.0532 27.7568C90.5406 27.9324 91.0415 28.0946 91.5424 28.2297C91.7454 27.8784 91.9755 27.554 92.1921 27.2162C91.5055 27.047 90.8315 26.8303 90.175 26.5676L87.3863 25.527C86.0047 25.0423 84.6866 24.3935 83.4603 23.5946C83.352 24 83.2437 24.4054 83.1489 24.7973C84.3254 25.5015 85.5677 26.0898 86.8583 26.5541Z" fill="#DCC5EA"/>
<path d="M82.2148 29.0811C84.5697 30.3384 87.1339 31.158 89.7824 31.5C89.9584 31.1486 90.1209 30.7838 90.3104 30.4459C87.543 30.1215 84.8661 29.2583 82.4315 27.9054C82.3502 28.2973 82.2825 28.6892 82.2148 29.0811Z" fill="#DCC5EA"/>
<path d="M94.1415 24.4459C90.634 23.6609 87.3773 22.0169 84.6651 19.6621C84.5162 20.054 84.3673 20.4594 84.2319 20.8649C86.8913 23.0548 90.0095 24.6204 93.3564 25.4459C93.6407 25.1081 93.8572 24.7703 94.1415 24.4459Z" fill="#DCC5EA"/>
<path d="M114.272 44.2162L115.545 43.9865C113.827 41.1689 112.836 37.9697 112.661 34.6757L111.457 35.1892C111.691 38.3736 112.655 41.4617 114.272 44.2162Z" fill="#DCC5EA"/>
<path d="M123.64 42.0676C123.073 41.3072 122.617 40.47 122.286 39.5811C121.493 37.3243 121.104 34.9456 121.136 32.5541C120.73 32.5541 120.323 32.5541 119.904 32.6622C119.91 34.7247 120.183 36.7777 120.716 38.7703C121.001 39.712 121.392 40.6187 121.88 41.473C122.066 41.786 122.269 42.0883 122.49 42.3784L123.64 42.0676Z" fill="#DCC5EA"/>
<path d="M118.063 40.5676C117.19 38.2474 116.665 35.8112 116.506 33.3379L115.288 33.7027C115.445 35.6797 115.822 37.6332 116.411 39.527C116.763 40.6245 117.183 41.6987 117.67 42.7433L118.049 43.5135L119.281 43.2432C118.835 42.3649 118.415 41.473 118.063 40.5676Z" fill="#DCC5EA"/>
<path d="M127.228 40.0675C126.305 39.003 125.65 37.7334 125.319 36.3649C125.085 35.3757 124.945 34.3667 124.9 33.3513V32.7432C124.493 32.6622 124.087 32.6216 123.681 32.5811V32.6622C123.697 33.8746 123.829 35.0827 124.074 36.2703C124.438 37.941 125.226 39.4905 126.362 40.7703C126.667 40.5572 126.957 40.3224 127.228 40.0675Z" fill="#DCC5EA"/>
<path d="M108.532 36.6081C108.099 36.8108 107.706 37.0541 107.287 37.2838C107.335 39.9985 108.007 42.666 109.25 45.0811L110.509 44.8514C109.153 42.3181 108.472 39.4795 108.532 36.6081Z" fill="#DCC5EA"/>
<path d="M105.337 43.2702C104.743 41.8994 104.391 40.4365 104.295 38.9459C103.889 39.1892 103.51 39.4595 103.104 39.7027C103.302 41.1303 103.689 42.5253 104.254 43.8514C104.525 44.5926 104.889 45.2964 105.337 45.9459C105.757 45.8378 106.177 45.7162 106.61 45.6216C106.063 44.9105 105.633 44.1167 105.337 43.2702Z" fill="#DCC5EA"/>
<path d="M112.323 168.622C106.041 173.081 98.379 174.027 91.1227 174.027C84.0072 174.025 76.9143 173.227 69.9767 171.649C64.2909 170.378 58.4155 168.784 53.4336 165.446C48.4517 162.108 43.5104 155.257 46.3398 148.338C48.8307 142.257 54.4625 138.068 59.7557 135.365C66.2538 132.014 73.4559 130.257 80.4685 128.824C86.1381 127.634 91.9092 126.992 97.7021 126.905C102.828 126.812 107.832 128.466 111.89 131.595C114.977 133.967 117.443 137.049 119.079 140.579C120.715 144.108 121.472 147.98 121.285 151.865C121.19 155.159 120.331 158.387 118.776 161.294C117.221 164.202 115.012 166.71 112.323 168.622Z" fill="#B98DD6"/>
<path d="M60.4597 56.8514C56.7233 48.3514 51.8903 38.1487 41.0601 35.973C38.867 35.5405 35.7533 35.1757 33.8445 36.5406C33.0695 37.1532 32.5369 38.0199 32.3412 38.9871C32.1454 39.9543 32.2991 40.9595 32.775 41.8244C34.8463 46.0946 40.654 48.1892 44.959 49.9325C49.7919 51.9865 55.4913 54.6622 56.6285 60C56.9399 61.446 59.3361 60.8379 59.0111 59.3919C58.9036 58.8967 58.7634 58.4092 58.5915 57.9324C59.4308 58.5541 60.9471 57.973 60.4597 56.8514Z" fill="#AD79CF"/>
<path d="M141.388 49.2162C141.131 47.2297 139.181 45.9054 137.246 45.4054C134.843 44.9956 132.392 44.9501 129.976 45.2702C127.417 45.4189 124.872 45.6351 122.341 45.9729C116.548 46.6583 110.9 48.2546 105.608 50.7027C105.451 50.7703 105.314 50.8763 105.209 51.011C105.104 51.1457 105.035 51.3046 105.008 51.473C104.981 51.6415 104.997 51.814 105.054 51.9746C105.112 52.1352 105.209 52.2787 105.337 52.3919C105.107 52.5483 104.942 52.7835 104.874 53.053C104.806 53.3225 104.84 53.6075 104.968 53.8541C105.097 54.1006 105.311 54.2916 105.571 54.3907C105.832 54.4898 106.119 54.4902 106.379 54.3919C111.483 52.5811 116.912 53.8243 122.151 54.3919C125.079 54.689 128.022 54.7974 130.964 54.7162C133.487 54.848 136.012 54.5089 138.41 53.7162C139.325 53.3861 140.11 52.7698 140.646 51.9591C141.183 51.1483 141.443 50.1864 141.388 49.2162Z" fill="#AD79CF"/>
<path d="M45.4192 37.4189L44.2955 36.9459C42.7717 40.6614 40.1871 43.8475 36.8633 46.1081C37.2153 46.3378 37.5808 46.5676 37.9463 46.7703C41.2687 44.4167 43.8588 41.1755 45.4192 37.4189Z" fill="#DCC5EA"/>
<path d="M33.2217 42.6081C33.4383 42.9324 33.6684 43.2433 33.9121 43.5406L35.2659 42.7433C36.4166 42 37.5673 41.2568 38.6503 40.4189C40.142 39.3037 41.3903 37.8967 42.319 36.2838L41.1006 35.973C40.2445 37.39 39.1175 38.6252 37.7839 39.6081C36.8043 40.3525 35.7876 41.0471 34.7379 41.6892C34.2099 42 33.7226 42.3243 33.2217 42.6081Z" fill="#DCC5EA"/>
<path d="M52.4048 42.8378C52.134 42.5135 51.8497 42.2162 51.5519 41.9054C49.6849 45.0054 47.1679 47.6654 44.1738 49.7027L44.9184 50.0135L45.4464 50.2432C48.2285 48.2525 50.5926 45.7366 52.4048 42.8378Z" fill="#DCC5EA"/>
<path d="M48.3841 39.1487C48.0322 38.9054 47.6802 38.6757 47.3146 38.4594C46.1633 42.305 43.8457 45.6996 40.6812 48.1757L41.8725 48.7027C44.9154 46.2067 47.1756 42.8904 48.3841 39.1487Z" fill="#DCC5EA"/>
<path d="M55.0716 52.9189C55.8716 52.5187 56.6448 52.0673 57.3865 51.5676L57.8468 51.2433C57.6708 50.8919 57.4948 50.5405 57.3053 50.2027C56.9943 50.4432 56.6688 50.6643 56.3306 50.8648C55.6358 51.3049 54.9172 51.7065 54.1781 52.0676C53.271 52.5135 52.3369 52.9054 51.4028 53.2838C51.7819 53.536 52.1474 53.8063 52.4994 54.0946C53.3793 53.7568 54.2322 53.3378 55.0716 52.9189Z" fill="#DCC5EA"/>
<path d="M55.2748 46.6892C55.0312 46.3108 54.801 45.946 54.5438 45.5811C52.9587 47.9586 50.9487 50.0246 48.6143 51.6757L49.765 52.2838C51.887 50.7223 53.7469 48.8338 55.2748 46.6892Z" fill="#DCC5EA"/>
<path d="M137.882 45.6487C137.674 45.5689 137.462 45.5012 137.246 45.446L136.691 45.3378C135.945 46.716 135.496 48.2345 135.372 49.796C135.249 51.3574 135.453 52.9275 135.973 54.4054C136.375 54.3361 136.772 54.2459 137.165 54.1351C136.666 52.7523 136.471 51.2783 136.595 49.8137C136.719 48.3491 137.158 46.9284 137.882 45.6487Z" fill="#DCC5EA"/>
<path d="M117.589 53.3919C117.451 52.6114 117.388 51.8196 117.4 51.0271C117.364 49.5989 117.45 48.1704 117.657 46.7568L116.303 47.0405C116.119 48.5104 116.056 49.9928 116.114 51.473C116.134 52.2127 116.215 52.9494 116.357 53.6757L117.643 53.8243C117.67 53.6757 117.616 53.5406 117.589 53.3919Z" fill="#DCC5EA"/>
<path d="M133.55 45.0676H132.196C130.665 48.0043 130.187 51.3761 130.843 54.6216H130.978H132.102C131.374 51.3681 131.891 47.9605 133.55 45.0676Z" fill="#DCC5EA"/>
<path d="M129.231 45.3243L127.878 45.4189C126.665 48.3416 126.331 51.5533 126.916 54.6622H128.175C127.517 51.517 127.887 48.244 129.231 45.3243Z" fill="#DCC5EA"/>
<path d="M121.312 46.1216L120.067 46.3108C119.762 48.9532 119.978 51.6296 120.703 54.1892L122.057 54.3378C121.215 51.6852 120.961 48.8819 121.312 46.1216Z" fill="#DCC5EA"/>
<path d="M124.859 45.6486L123.627 45.7973C123.37 48.7032 123.543 51.631 124.141 54.4865L125.427 54.554C124.771 51.6338 124.579 48.6285 124.859 45.6486Z" fill="#DCC5EA"/>
<path d="M55.2613 62.1757C55.336 62.1704 55.4088 62.1504 55.4758 62.117C55.5427 62.0836 55.6024 62.0373 55.6515 61.9808C55.7005 61.9244 55.7379 61.8588 55.7615 61.7879C55.7852 61.717 55.7946 61.6421 55.7893 61.5676C55.7839 61.4931 55.764 61.4203 55.7304 61.3535C55.6969 61.2867 55.6506 61.2271 55.594 61.1781C55.5375 61.1292 55.4718 61.0919 55.4008 61.0683C55.3297 61.0447 55.2547 61.0353 55.1801 61.0406C52.3507 60.9325 49.8868 58.9595 47.6802 57.4865C45.4735 56.0136 43.0909 54.3514 40.6947 52.9054C36.8635 50.6081 31.0422 47.4324 26.8997 50.9189C26.1403 51.5082 25.6093 52.3421 25.397 53.2785C25.1847 54.2149 25.3043 55.1959 25.7354 56.0541C26.9314 57.9378 28.6944 59.3948 30.7715 60.2162C35.5637 62.5694 40.7408 64.0433 46.0556 64.5676C47.5719 64.7162 49.1016 64.7973 50.6314 64.7973C52.08 64.8654 53.5317 64.7839 54.9635 64.5541C55.2051 64.5335 55.4348 64.4407 55.6227 64.2877C55.8106 64.1348 55.9479 63.9288 56.0167 63.6967C56.0854 63.4645 56.0824 63.2171 56.008 62.9867C55.9336 62.7564 55.7913 62.5538 55.5998 62.4054C55.4946 62.3182 55.3813 62.2413 55.2613 62.1757Z" fill="#AD79CF"/>
<path d="M124.439 62.7027C129.502 63.2432 134.24 65.4865 139.412 65.3243C141.621 65.4112 143.794 64.7439 145.572 63.4324C145.914 63.1727 146.19 62.8351 146.376 62.4478C146.562 62.0605 146.652 61.6346 146.64 61.2053C146.629 60.7759 146.514 60.3556 146.307 59.9792C146.1 59.6027 145.806 59.281 145.45 59.0405C144.528 58.5173 143.526 58.1476 142.485 57.9459C141.305 57.6524 140.106 57.4402 138.897 57.3108C136.426 57.0743 133.937 57.0743 131.465 57.3108C128.758 57.5135 126.05 57.9054 123.343 58.3108C120.473 58.6412 117.646 59.2708 114.908 60.1892C114.792 60.2301 114.692 60.306 114.62 60.4064C114.549 60.5069 114.511 60.6269 114.511 60.75C114.511 60.873 114.549 60.9931 114.62 61.0935C114.692 61.194 114.792 61.2699 114.908 61.3108C114.903 61.3827 114.903 61.4551 114.908 61.527C115.152 62.3378 116.086 62.6622 116.899 62.7703C119.362 63.0405 121.908 62.4324 124.439 62.7027Z" fill="#AD79CF"/>
<path d="M49.3585 70.6216C49.402 70.4944 49.3938 70.3551 49.3355 70.2338C49.2773 70.1125 49.1737 70.0188 49.0471 69.973L48.5597 69.7568C48.2929 69.5886 48.0002 69.4654 47.6933 69.3919C43.7827 67.8053 39.631 66.8915 35.4146 66.6892C33.0864 66.565 30.7517 66.6645 28.4426 66.9865C26.301 67.2184 24.2214 67.8462 22.31 68.8378C21.5275 69.1827 20.8792 69.7733 20.4638 70.5197C20.0484 71.2661 19.8885 72.1276 20.0086 72.973C20.3117 73.7964 20.8179 74.5303 21.4805 75.1066C22.1431 75.683 22.9406 76.0832 23.7992 76.2703C28.1042 77.6216 32.4363 75.5135 36.2675 73.8649C38.4152 72.8084 40.7352 72.1447 43.1176 71.9054C45.1753 71.7973 47.3143 72.5135 49.196 71.4189C49.306 71.3496 49.3889 71.2447 49.4308 71.1217C49.4727 70.9987 49.471 70.8652 49.4261 70.7433C49.4261 70.7433 49.372 70.6622 49.3585 70.6216Z" fill="#AD79CF"/>
<path d="M144.569 77.1892C145.355 76.9914 146.093 76.64 146.742 76.1551C147.39 75.6703 147.936 75.0618 148.347 74.3649C148.537 74.0211 148.654 73.6412 148.688 73.2496C148.723 72.8581 148.675 72.4637 148.548 72.0918C148.42 71.72 148.216 71.3789 147.948 71.0908C147.68 70.8026 147.355 70.5737 146.993 70.4189C145.168 69.6128 143.225 69.1063 141.239 68.9189C139 68.5376 136.74 68.2983 134.47 68.2027C129.428 67.9675 124.376 68.4222 119.457 69.5541C119.313 69.5887 119.183 69.666 119.085 69.7759C118.986 69.8857 118.923 70.0229 118.904 70.1693C118.884 70.3157 118.91 70.4645 118.978 70.5959C119.045 70.7273 119.151 70.8352 119.281 70.9054C123.867 71.9999 128.387 73.3534 132.819 74.9595C136.46 76.2703 140.495 78.3514 144.569 77.1892Z" fill="#AD79CF"/>
<path d="M47.2061 73.0946C46.6652 74.4582 45.9847 75.7624 45.1754 76.9865C42.1971 79.4054 37.662 79.8108 33.8308 79.8108C30.7948 79.6776 27.7531 79.7815 24.7334 80.1216C22.3237 80.5 19.589 81.3649 18.4654 83.5811C18.2254 84.0143 18.0769 84.4919 18.0291 84.9846C17.9813 85.4773 18.0352 85.9746 18.1874 86.4457C18.3397 86.9168 18.587 87.3517 18.9143 87.7236C19.2415 88.0956 19.6416 88.3966 20.0899 88.6081C22.0977 89.4351 24.2987 89.6787 26.4391 89.3108C31.0106 88.8606 35.3956 87.2715 39.1917 84.6892C41.9213 82.8366 44.2696 80.4787 46.1095 77.7432C46.8143 77.1652 47.4301 76.4868 47.9371 75.7297C47.9814 75.6664 48.0108 75.5938 48.0231 75.5176C48.0354 75.4413 48.0303 75.3632 48.0082 75.2892C47.986 75.2151 47.9475 75.147 47.8953 75.0899C47.8432 75.0329 47.7788 74.9883 47.707 74.9595C47.9507 74.446 48.1808 73.9324 48.3974 73.3919C48.614 72.8514 47.4768 72.4054 47.2061 73.0946Z" fill="#AD79CF"/>
<path d="M148.577 82.7027C148.266 81.4189 146.546 80.9189 145.084 80.7297C143.153 80.5473 141.208 80.5473 139.277 80.7297C134.98 80.9942 130.678 80.3162 126.673 78.7432C126.389 78.473 125.712 78.6622 125.888 79.0541C128.176 84.1216 134.728 87.4054 141.591 86.7973C144.272 86.6081 149.254 85.5811 148.577 82.7027Z" fill="#AD79CF"/>
<path d="M31.895 49.4054C30.8226 52.4173 28.8645 55.036 26.2769 56.9189C26.513 57.2335 26.7757 57.5274 27.062 57.7973C29.8843 55.7428 32.0024 52.8687 33.127 49.5675C32.7202 49.487 32.3087 49.4328 31.895 49.4054Z" fill="#DCC5EA"/>
<path d="M36.7007 50.7568C36.3352 50.5946 35.9562 50.4325 35.5771 50.2973C34.1602 53.8106 31.7642 56.8448 28.6729 59.0406C29.0248 59.2703 29.3903 59.4865 29.7559 59.6892C32.8578 57.4142 35.2628 54.3209 36.7007 50.7568Z" fill="#DCC5EA"/>
<path d="M40.0314 52.5135L38.9348 51.8919C37.8826 55.4565 35.999 58.7214 33.4385 61.4189C33.8311 61.5811 34.2237 61.7567 34.6163 61.9054C37.098 59.2153 38.9479 56.0069 40.0314 52.5135Z" fill="#DCC5EA"/>
<path d="M40.0042 62.1216C40.6859 61.199 41.2839 60.2176 41.7912 59.1892C42.5097 57.7413 43.0506 56.2123 43.4022 54.6351L42.2921 53.9324C41.909 55.8718 41.2286 57.7406 40.275 59.473C39.7133 60.4817 39.0657 61.4402 38.3391 62.3378C38.1631 62.554 37.96 62.7567 37.7705 62.973L39.1243 63.3243C39.395 62.9324 39.7064 62.5405 40.0042 62.1216Z" fill="#DCC5EA"/>
<path d="M47.5579 57.4054L46.5426 56.7162C45.4231 59.3893 43.8423 61.8455 41.8721 63.973L43.2258 64.2162C45.0195 62.1873 46.4815 59.8889 47.5579 57.4054Z" fill="#DCC5EA"/>
<path d="M25.8027 67.4865C27.6304 70.1371 28.7956 73.1861 29.2007 76.3784C29.5933 76.2973 29.9994 76.2027 30.392 76.0946C29.974 72.9185 28.84 69.8783 27.0753 67.2027C26.6421 67.2703 26.1683 67.3784 25.8027 67.4865Z" fill="#DCC5EA"/>
<path d="M39.5033 69.8919C39.5033 70.5135 39.5033 71.1351 39.5033 71.7703C39.4899 72.0359 39.4899 72.302 39.5033 72.5676C39.8959 72.4325 40.302 72.3244 40.6946 72.2298C40.6946 72.2298 40.6946 72.1081 40.6946 72.0541C40.6946 71.3108 40.6946 70.5676 40.6946 69.8244C40.6516 68.9321 40.4689 68.052 40.1531 67.2162L38.7993 66.9865C39.2151 67.9021 39.4539 68.8878 39.5033 69.8919Z" fill="#DCC5EA"/>
<path d="M22.2832 68.8243C22.9837 70.1534 23.4984 71.572 23.813 73.0405C24.0038 73.9296 24.1126 74.8343 24.1379 75.7432C24.1379 75.9459 24.1379 76.1622 24.1379 76.3649C24.544 76.4595 24.9366 76.5406 25.3427 76.5946C25.3427 76.1081 25.3427 75.6216 25.3427 75.1216C25.2768 74.2108 25.1364 73.3069 24.9231 72.4189C24.5817 71.0081 24.0632 69.6459 23.3798 68.3649C23.0142 68.527 22.6487 68.6892 22.3103 68.8784L22.2832 68.8243Z" fill="#DCC5EA"/>
<path d="M36.7821 73.6216C36.6214 71.1648 35.894 68.7784 34.6566 66.6486C34.1557 66.6486 33.6684 66.6486 33.1675 66.6486C34.68 68.8653 35.5256 71.4677 35.6043 74.1486L36.2676 73.8648L36.7821 73.6216Z" fill="#DCC5EA"/>
<path d="M32.4094 75.4459L33.5601 74.9865C32.9895 72.1508 32.1462 69.3767 31.0421 66.7027C30.6089 66.7027 30.1892 66.7027 29.7695 66.8108C30.9301 69.5961 31.8143 72.4883 32.4094 75.4459Z" fill="#DCC5EA"/>
<path d="M34.061 87.4189C34.5349 87.2297 35.0087 87.0135 35.4148 86.7973C35.9083 84.4874 35.9908 82.1088 35.6585 79.7703H34.4266C34.8241 82.3183 34.6998 84.9203 34.061 87.4189Z" fill="#DCC5EA"/>
<path d="M23.231 80.4324C22.8384 80.527 22.4458 80.6486 22.0532 80.7838C22.5777 82.1801 22.8527 83.6575 22.8655 85.1486C22.8769 86.0191 22.7998 86.8883 22.6353 87.7432C22.5406 88.1621 22.4458 88.581 22.3104 89C22.285 89.0965 22.2533 89.1913 22.2157 89.2838C22.6283 89.3496 23.044 89.3947 23.4611 89.4189C23.4611 89.2568 23.5694 89.1081 23.6101 88.9459C23.7319 88.473 23.8402 87.9865 23.9214 87.5C24.0605 86.6061 24.1194 85.7016 24.0974 84.7973C24.0342 83.3066 23.742 81.8345 23.231 80.4324Z" fill="#DCC5EA"/>
<path d="M26.5747 88.8108C26.5747 88.973 26.507 89.1486 26.4664 89.3108C26.9132 89.3108 27.3464 89.2027 27.8202 89.1486C27.8202 88.9189 27.8202 88.7162 27.8202 88.5405C28.0463 85.637 27.8594 82.7161 27.2651 79.8649C26.859 79.8649 26.4393 79.9324 26.0332 79.9865C26.4505 81.5514 26.6599 83.1643 26.6559 84.7838C26.6559 85.6892 26.6559 86.5946 26.6559 87.4865C26.6563 87.9292 26.6292 88.3715 26.5747 88.8108Z" fill="#DCC5EA"/>
<path d="M30.0809 88.7027L31.4347 88.3514C31.4347 88.1216 31.5565 87.8919 31.5971 87.6622C31.7572 86.7199 31.8432 85.7665 31.8543 84.8108C31.8383 83.1181 31.611 81.4339 31.1775 79.7973H29.9185C30.3815 81.4654 30.6183 83.188 30.6224 84.9189C30.6178 85.8679 30.5181 86.8141 30.3246 87.7432C30.2642 88.068 30.1828 88.3885 30.0809 88.7027Z" fill="#DCC5EA"/>
<path d="M124.886 62.7703C124.64 62.195 124.467 61.5911 124.371 60.973C124.229 60.008 124.284 59.0241 124.534 58.0811L123.288 58.2567C123.035 59.4955 123.067 60.7756 123.383 62C123.383 62.2162 123.518 62.4189 123.586 62.6352H124.479L124.886 62.7703Z" fill="#DCC5EA"/>
<path d="M137.977 65.2027C137.977 65.2027 137.977 65.2027 137.977 65.054C137.919 64.9592 137.869 64.8598 137.828 64.7568C137.765 64.6158 137.711 64.4715 137.665 64.3243C137.544 63.9716 137.449 63.6102 137.381 63.2432C137.264 62.5607 137.227 61.8667 137.273 61.1757C137.386 59.8385 137.635 58.5164 138.017 57.2297C137.611 57.2297 137.191 57.1622 136.772 57.1487C136.329 58.6378 136.079 60.1773 136.027 61.7297C136.02 62.5784 136.129 63.4242 136.352 64.2433C136.449 64.5657 136.567 64.8816 136.704 65.1892C137.178 65.1892 137.665 65.2703 138.139 65.2973L137.977 65.2027Z" fill="#DCC5EA"/>
<path d="M142.024 64.7973C141.828 64.5222 141.668 64.2223 141.551 63.9054C141.093 62.8859 140.801 61.8003 140.684 60.6892C140.594 59.653 140.626 58.6098 140.779 57.5811L139.561 57.4054C139.351 58.7759 139.351 60.1701 139.561 61.5406C139.701 62.4739 139.97 63.3834 140.359 64.2433C140.504 64.5962 140.671 64.9392 140.86 65.2703C141.348 65.2027 141.835 65.1216 142.322 65.0135C142.248 64.9125 142.144 64.837 142.024 64.7973Z" fill="#DCC5EA"/>
<path d="M133.685 64.6351C133.63 64.5136 133.54 64.4105 133.428 64.3378C133.217 63.8679 133.089 63.365 133.049 62.8514C132.979 62.2143 132.957 61.5728 132.981 60.9324C133.026 59.6483 133.222 58.3738 133.564 57.1351L132.277 57.2027C131.933 58.5728 131.756 59.9794 131.749 61.3919C131.734 62.1257 131.793 62.8591 131.925 63.5811C131.925 63.7973 132.02 64.0676 132.088 64.3243L133.685 64.7027V64.6351Z" fill="#DCC5EA"/>
<path d="M128.974 57.4865L127.729 57.6351C127.448 59.5163 127.494 61.4316 127.864 63.2973L129.218 63.6216C128.704 61.6167 128.621 59.5258 128.974 57.4865Z" fill="#DCC5EA"/>
<path d="M133.97 68.1892H132.616C131.679 70.1457 131.26 72.3089 131.398 74.473L132.67 74.9189C132.418 72.5964 132.871 70.2519 133.97 68.1892Z" fill="#DCC5EA"/>
<path d="M129.8 68.2027L128.446 68.2838C127.989 69.969 127.942 71.7391 128.311 73.446L129.665 73.8919C129.161 72.022 129.208 70.0466 129.8 68.2027Z" fill="#DCC5EA"/>
<path d="M144.285 76.5676C144.068 74.2639 144.426 71.9423 145.328 69.8108C144.942 69.6805 144.548 69.5722 144.15 69.4865C143.635 70.6883 143.298 71.9582 143.148 73.2567C143.054 74.1137 143.013 74.9758 143.026 75.8378C143.02 76.2627 143.047 76.6875 143.108 77.1081C143.126 77.2404 143.153 77.3714 143.189 77.5C143.6 77.4496 144.006 77.3729 144.407 77.2703C144.337 77.042 144.296 76.806 144.285 76.5676Z" fill="#DCC5EA"/>
<path d="M136.298 71.9459C136.585 70.6835 137.144 69.4985 137.936 68.473C137.462 68.473 136.975 68.3919 136.501 68.3513C135.877 69.3718 135.421 70.4848 135.147 71.6486C134.751 72.9388 134.577 74.2868 134.633 75.6351L135.987 76.1216C135.79 74.7235 135.896 73.2996 136.298 71.9459Z" fill="#DCC5EA"/>
<path d="M142.255 69.0811L141.199 68.9189H141.009C139.901 71.5734 139.495 74.4681 139.832 77.3243C140.251 77.4054 140.671 77.4595 141.091 77.5C140.684 74.6403 141.087 71.7239 142.255 69.0811Z" fill="#DCC5EA"/>
<path d="M144.015 84.0135C143.78 82.893 143.653 81.7527 143.636 80.6081H142.404C142.435 81.8567 142.575 83.1002 142.824 84.3243C143.002 85.096 143.27 85.8442 143.622 86.554C144.034 86.4837 144.441 86.3889 144.841 86.2703C144.478 85.5529 144.201 84.7955 144.015 84.0135Z" fill="#DCC5EA"/>
<path d="M140.441 80.7027L139.276 80.7702H139.195C138.94 82.836 139.153 84.9327 139.818 86.9054H141.09C140.357 84.9248 140.134 82.792 140.441 80.7027Z" fill="#DCC5EA"/>
<path d="M136.826 84.3919C136.667 83.7008 136.594 82.9927 136.609 82.2838C136.581 81.7843 136.626 81.2835 136.745 80.7973H135.499C135.426 81.2124 135.385 81.6326 135.377 82.0541C135.352 82.8648 135.416 83.6759 135.567 84.473C135.717 85.1943 135.935 85.9001 136.217 86.5811C136.704 86.6757 137.191 86.7703 137.679 86.8243C137.291 86.0536 137.004 85.2361 136.826 84.3919Z" fill="#DCC5EA"/>
<path d="M53.677 78.8784C53.677 78.8784 53.1084 70.0946 62.5577 71.9459C64.2602 72.5045 65.8099 73.4492 67.0853 74.7059C68.3607 75.9626 69.3271 77.4972 69.9087 79.1892C69.9087 79.1892 55.7482 72.4595 53.677 78.8784Z" fill="#533B63"/>
<path d="M117.007 78.8784C117.007 78.8784 117.575 70.0946 108.126 71.9459C106.423 72.5045 104.874 73.4492 103.598 74.7059C102.323 75.9626 101.357 77.4972 100.775 79.1892C100.775 79.1892 114.935 72.4595 117.007 78.8784Z" fill="#533B63"/>
</g>
<g clip-path="url(#clip1_2232_20203)">
<path d="M406.721 40.7802C406.196 40.1449 405.88 39.3658 405.813 38.5471L403.888 15.0852C403.859 14.9504 403.789 14.8279 403.687 14.7341C403.586 14.6402 403.457 14.5797 403.32 14.5606C403.182 14.5415 403.042 14.5648 402.919 14.6274C402.795 14.6899 402.693 14.7887 402.628 14.9103L388.723 46.1614C388.183 47.4101 388.119 48.8112 388.543 50.1034C388.967 51.3956 389.85 52.4906 391.027 53.1838L404.403 61.6995L414.364 50.2376L406.721 40.7802Z" fill="#DBDA22"/>
<path style="mix-blend-mode:multiply" opacity="0.5" d="M398.129 57.7309L404.404 61.7668L414.365 50.3049L408.754 43.3094C404.953 47.9229 401.406 52.7371 398.129 57.7309Z" fill="url(#paint0_linear_2232_20203)"/>
<path d="M389.889 154.646C388.452 146.735 386.831 138.852 385.024 130.996L381.202 125.224C375.334 134.103 370.74 146.48 372.325 156.839C372.652 160.306 374.037 163.591 376.296 166.256C378.749 168.812 382.923 170.13 386.149 168.543C387.3 167.903 388.284 167.004 389.021 165.917C389.758 164.83 390.227 163.587 390.39 162.287C390.652 159.73 390.482 157.148 389.889 154.646Z" fill="#DBDA22"/>
<path style="mix-blend-mode:multiply" opacity="0.5" d="M389.889 154.646C388.452 146.735 386.831 138.852 385.024 130.996L381.202 125.224C375.334 134.103 370.74 146.48 372.325 156.839C372.652 160.306 374.037 163.591 376.296 166.256C378.749 168.812 382.923 170.13 386.149 168.543C387.3 167.903 388.284 167.004 389.021 165.917C389.758 164.83 390.227 163.587 390.39 162.287C390.652 159.73 390.482 157.148 389.889 154.646Z" fill="url(#paint1_linear_2232_20203)"/>
<path d="M435.14 32.4394C419.962 37.9686 392.098 54.2736 388.466 106.256C388.466 106.256 380.592 108.354 378.383 109.242C378.383 109.242 381.202 120.448 381.202 142.565C381.202 157.78 380.43 173.197 380.281 176.749C380.281 176.749 378.763 204.395 390.919 202.861C394.196 202.36 397.221 200.816 399.538 198.462C400.636 197.426 406.708 191.991 411.356 190.229C416.912 188.13 427.117 186.704 445.237 190.484C445.237 190.484 456.268 192.166 469.495 200.439C469.495 200.439 474.713 205 480.757 205.013C487.533 205.013 489.783 198.61 491.301 192.287C499.73 157.309 522.254 41.9776 456.065 30.9462C452.596 30.3812 443.245 29.4932 435.14 32.4394Z" fill="#DBDA22"/>
<path d="M381.825 93.6771C380.771 98.9967 380.199 104.4 380.118 109.821L391.474 107.036C389.496 103.175 386.853 97.8475 384.576 93.3408C384.438 93.0742 384.221 92.8562 383.954 92.7161C383.687 92.576 383.383 92.5205 383.083 92.5572C382.783 92.5938 382.502 92.7208 382.277 92.9211C382.052 93.1213 381.894 93.3852 381.825 93.6771Z" fill="#D785B1"/>
<path d="M456.241 99.1255C463.139 99.7713 470.146 100.928 476.149 104.197C477.645 104.901 478.943 105.959 479.93 107.278C480.399 107.933 480.666 108.709 480.697 109.512C480.729 110.315 480.523 111.109 480.107 111.798C478.941 113.48 476.502 113.749 474.374 113.803C467.212 114.065 460.043 113.528 453.002 112.202C447.961 111.206 443.041 109.713 438.094 108.543C422.679 104.842 406.721 103.904 390.973 105.771C398.549 103.915 405.108 102.126 413.551 100.767C422.607 99.2948 431.764 98.5256 440.94 98.4663C446.009 98.4394 451.145 98.6278 456.241 99.1255Z" fill="#222221"/>
<path style="mix-blend-mode:multiply" opacity="0.5" d="M488.427 126.475L488.089 130.013C487.146 139.755 484.866 149.324 481.312 158.453L481.001 159.26C479.117 164.09 476.935 169.578 478.954 175.242C479.765 177.686 481.441 179.755 483.671 181.067C485.309 181.973 487.137 182.489 489.01 182.574C489.607 182.574 491.883 182.655 493.455 182.641C497.493 164.18 500.143 145.447 501.383 126.596L488.427 126.475Z" fill="url(#paint2_linear_2232_20203)"/>
<path d="M501.126 128.48L490.84 129.004C490.545 139.113 488.858 149.135 485.825 158.789C484.335 163.538 482.532 168.61 484.47 173.144C485.073 174.677 486.214 175.943 487.682 176.708C490.207 177.698 493.017 177.698 495.542 176.708C499.881 175.202 503.513 172.167 505.747 168.179C507.64 164.551 508.652 160.534 508.702 156.448C509.096 146.578 506.454 136.823 501.126 128.48Z" fill="#DBDA22"/>
<path d="M489.81 43.5516C490.539 42.8829 491.057 42.0182 491.301 41.0628L498.402 13.5381C498.45 13.3844 498.546 13.2499 498.677 13.1544C498.807 13.0589 498.965 13.0073 499.127 13.0073C499.289 13.0073 499.447 13.0589 499.578 13.1544C499.708 13.2499 499.804 13.3844 499.852 13.5381L508.837 53.2377C509.182 54.8193 508.965 56.4704 508.224 57.9117C507.483 59.3531 506.264 60.4963 504.772 61.148L487.98 68.8834L479.239 53.4798L489.81 43.5516Z" fill="#DBDA22"/>
<path style="mix-blend-mode:multiply" opacity="0.5" d="M473.086 57.4619L485.189 47.7758C484.048 46.3661 482.831 45.0188 481.543 43.7399L473.086 57.4619Z" fill="url(#paint3_linear_2232_20203)"/>
<path d="M442.851 58.4574C442.83 57.9425 442.964 57.4329 443.236 56.9942C443.509 56.5555 443.907 56.2078 444.38 55.9957C444.853 55.7836 445.38 55.7168 445.891 55.804C446.403 55.8912 446.877 56.1283 447.251 56.4849C447.626 56.8415 447.885 57.3012 447.995 57.8049C448.104 58.3087 448.059 58.8334 447.866 59.3117C447.673 59.79 447.34 60.1999 446.91 60.4888C446.48 60.7777 445.973 60.9323 445.453 60.9327C445.119 60.9399 444.786 60.8815 444.474 60.7609C444.162 60.6404 443.877 60.46 443.636 60.2301C443.394 60.0003 443.2 59.7254 443.066 59.4212C442.931 59.1171 442.858 58.7895 442.851 58.4574Z" fill="#222221"/>
<path d="M437.986 31.5784C437.037 31.8206 436.102 32.1031 435.167 32.4394C422.685 36.9865 401.612 48.852 392.518 81.8655C431.21 83.5605 437.064 43.6861 437.986 31.5784Z" fill="#C2C11E"/>
<path d="M408.293 66.1794C408.404 65.9214 408.462 65.6436 408.461 65.3629C408.461 65.0823 408.404 64.8045 408.292 64.5466C408.181 64.2887 408.018 64.056 407.813 63.8626C407.608 63.6692 407.365 63.5191 407.1 63.4215C406.56 63.2056 405.956 63.2039 405.414 63.4166C404.872 63.6293 404.432 64.0404 404.187 64.565C404.078 64.8241 404.022 65.1023 404.024 65.3831C404.026 65.6639 404.086 65.9413 404.198 66.1989C404.311 66.4564 404.475 66.6887 404.68 66.8818C404.885 67.075 405.128 67.225 405.393 67.3229C405.931 67.5416 406.534 67.5446 407.075 67.3314C407.616 67.1182 408.052 66.7053 408.293 66.1794Z" fill="#222221"/>
<path d="M378.356 109.242C378.356 109.242 386.013 106.861 390.892 105.771L392.559 108.704L384.007 111.287H379.847L378.356 109.242Z" fill="#DBDA22"/>
<path d="M467.313 113.762C467.077 106.75 466.114 99.7806 464.44 92.9641C464.353 92.6888 464.186 92.4451 463.96 92.2635C463.734 92.0819 463.46 91.9705 463.17 91.9432C462.881 91.916 462.59 91.974 462.334 92.1101C462.077 92.2463 461.867 92.4544 461.73 92.7085C458.487 99.0308 455.662 105.556 453.273 112.242C457.905 113.119 462.6 113.627 467.313 113.762Z" fill="#D785B1"/>
<path d="M448.042 98.6278C446.145 104.278 444.058 109.619 441.971 114.677C441.876 114.893 441.718 115.076 441.517 115.202C441.317 115.328 441.082 115.39 440.845 115.381C440.608 115.373 440.379 115.293 440.188 115.153C439.997 115.013 439.853 114.819 439.775 114.596C438.081 109.417 436.631 103.578 435.425 98.6143C439.192 98.3587 443.746 98.4125 448.042 98.6278Z" fill="#D785B1"/>
<path d="M405.46 33.9193L403.915 15.0852C403.886 14.9504 403.816 14.8279 403.714 14.7341C403.613 14.6402 403.484 14.5797 403.347 14.5606C403.209 14.5415 403.069 14.5648 402.945 14.6274C402.822 14.6899 402.72 14.7887 402.655 14.9103L394.429 33.4484C398.045 34.2793 401.785 34.4389 405.46 33.9193Z" fill="#D785B1"/>
<path d="M398.007 25.2825L402.628 14.8699C402.693 14.7483 402.795 14.6495 402.919 14.587C403.042 14.5245 403.182 14.5012 403.32 14.5202C403.457 14.5393 403.586 14.5998 403.687 14.6937C403.789 14.7875 403.859 14.9101 403.889 15.0448L404.756 25.6054C402.501 25.7509 400.237 25.6426 398.007 25.2825Z" fill="#7D4D67"/>
<path d="M499.852 13.5516C499.804 13.3978 499.708 13.2633 499.578 13.1678C499.447 13.0723 499.289 13.0208 499.127 13.0208C498.965 13.0208 498.807 13.0723 498.677 13.1678C498.546 13.2633 498.45 13.3978 498.402 13.5516L492.683 35.6951C496.691 36.3325 500.791 36.0844 504.69 34.9686L499.852 13.5516Z" fill="#D785B1"/>
<path d="M495.041 26.5874L498.402 13.5381C498.45 13.3844 498.546 13.2499 498.677 13.1544C498.807 13.0589 498.965 13.0073 499.127 13.0073C499.289 13.0073 499.447 13.0589 499.578 13.1544C499.708 13.2499 499.804 13.3844 499.852 13.5381L502.725 26.2511C500.19 26.7035 497.606 26.8166 495.041 26.5874Z" fill="#7D4D67"/>
</g>
<g clip-path="url(#clip2_2232_20203)">
<path d="M203.781 21.1436C198.896 20.6544 187.788 20.3609 180.996 29.8654C175.598 37.4271 174.958 48.0358 180.041 55.8491C180.041 41.8719 193.214 42.389 197.344 42.6127C203.298 43.0241 209.032 44.9933 213.948 48.3154L224.843 33.4576C222.467 30.0144 219.349 27.1263 215.709 24.9983C212.069 22.8702 207.997 21.5542 203.781 21.1436Z" fill="#E09D1B"/>
<path d="M181.01 29.8654C175.613 37.4271 174.972 48.0358 180.056 55.8491C180.056 44.3179 189.056 42.6546 194.496 42.5568C195.35 32.3674 191.334 26.0636 188.913 23.2542C185.741 24.7505 183.018 27.0283 181.01 29.8654Z" fill="#A21C26"/>
<g style="mix-blend-mode:soft-light" opacity="0.5">
<path d="M181.01 36.0015C187.788 26.4969 198.896 26.7904 203.795 27.2796C211.027 27.9528 217.72 31.325 222.492 36.7003L224.871 33.4576C222.494 30.0127 219.373 27.1236 215.731 24.9954C212.088 22.8673 208.013 21.5522 203.795 21.1436C198.91 20.6544 187.802 20.3609 181.01 29.8654C177.502 34.8212 175.98 40.8733 176.737 46.8617C177.244 42.9554 178.71 39.2284 181.01 36.0015Z" fill="white"/>
</g>
<path d="M347.284 33.6532C341.004 23.8691 329.896 23.5476 324.997 23.7852C320.769 23.9796 316.636 25.0816 312.888 27.0135C309.141 28.9455 305.871 31.6604 303.309 34.967L313.405 50.342C318.514 47.2834 324.368 45.6322 330.352 45.5618C334.496 45.5618 347.625 45.7015 346.956 59.6508C352.353 52.159 352.268 41.4665 347.284 33.6532Z" fill="#E09D1B"/>
<path d="M347.283 33.6532C352.268 41.4665 352.353 52.159 346.885 59.6508C347.44 48.1336 338.582 46.023 333.142 45.6736C332.815 35.4562 337.173 29.3482 339.736 26.6785C342.83 28.3149 345.433 30.72 347.283 33.6532Z" fill="#A21C26"/>
<g style="mix-blend-mode:soft-light" opacity="0.5">
<g style="mix-blend-mode:soft-light" opacity="0.5">
<path d="M326.293 28.9568C331.192 28.7052 342.299 28.9568 348.565 38.8247C349.47 40.2318 350.215 41.7316 350.787 43.2975C350.331 39.8749 349.136 36.5872 347.284 33.6532C341.004 23.8691 329.896 23.5476 324.997 23.7852C320.769 23.9796 316.636 25.0816 312.888 27.0135C309.141 28.9455 305.871 31.6604 303.309 34.967L305.786 38.7549C308.337 35.8288 311.474 33.4491 315.002 31.7635C318.53 30.0779 322.373 29.1226 326.293 28.9568Z" fill="white"/>
</g>
<g style="mix-blend-mode:soft-light" opacity="0.5">
<path d="M347.44 58.8401C347.292 58.3608 347.107 57.8934 346.885 57.4424C346.885 58.1133 346.885 58.8402 346.885 59.5949C347.07 59.3853 347.241 59.1057 347.44 58.8401Z" fill="white"/>
</g>
</g>
<path d="M266.268 16.0699C266.268 16.0699 192.046 9.9898 202.186 115.224C202.186 115.224 209.377 177.395 227.064 182.455C227.064 182.455 232.248 184.537 236.676 177.325C237.203 176.473 239.909 170.658 244.594 167.346C248.966 164.257 255.987 161.489 266.511 162.356C286.846 164.019 287.174 182.259 291.247 182.734C291.247 182.734 307.766 189.01 317.62 134.289C317.535 134.331 346.287 20.9759 266.268 16.0699Z" fill="#EF9F95"/>
<path d="M194.367 70.1339C190.409 69.8823 186.507 69.1135 182.576 68.5684C180.44 68.2749 178.005 68.1211 176.382 69.5189C175.559 70.3899 175.07 71.5149 175 72.7008C174.93 73.8867 175.282 75.0596 175.997 76.0183C177.498 77.9036 179.566 79.2776 181.907 79.9459C186.13 81.4497 190.614 82.1189 195.101 81.915C199.588 81.7111 203.99 80.6381 208.053 78.7578L206.059 68.5265C202.342 69.9478 198.339 70.4982 194.367 70.1339Z" fill="#EF9F95"/>
<path d="M343.795 68.5543C342.171 67.1566 339.736 67.3103 337.6 67.6039C333.684 68.149 329.768 68.9177 325.809 69.1693C321.842 69.5315 317.844 68.9811 314.131 67.5619L312.124 77.7793C316.189 79.6578 320.593 80.7309 325.082 80.9372C329.57 81.1434 334.057 80.4788 338.284 78.9813C340.619 78.3095 342.681 76.9359 344.179 75.0537C344.899 74.0971 345.255 72.9231 345.185 71.7358C345.115 70.5484 344.623 69.4227 343.795 68.5543Z" fill="#EF9F95"/>
<path d="M230.468 73.111C232.817 67.6039 235.281 62.1249 237.744 56.6598L239.838 51.9774L225.327 52.3268C226.081 59.4412 226.907 66.8212 230.468 73.111Z" fill="white"/>
<path d="M286.433 52.173L288.498 56.8694C290.919 62.3484 293.326 67.8415 295.618 73.3765C299.235 67.1147 300.118 59.7347 300.93 52.5783L286.433 52.173Z" fill="white"/>
<path d="M216.825 49.8668C216.809 50.0179 216.83 50.1707 216.887 50.3119C216.944 50.4531 217.035 50.5786 217.153 50.6775C217.426 50.9197 217.77 51.0713 218.135 51.1108C219.084 51.1608 220.035 51.1608 220.983 51.1108H226.936H238.855H262.68H286.49H298.41L304.362 51.1807C305.313 51.2241 306.265 51.196 307.21 51.0968C307.607 51.093 307.995 50.9879 308.337 50.7918C308.679 50.5957 308.963 50.3155 309.161 49.9787C309.21 49.8479 309.308 49.741 309.436 49.6809C309.564 49.6207 309.711 49.6122 309.845 49.6572C309.975 49.7047 310.081 49.7993 310.142 49.9215C310.203 50.0438 310.214 50.1843 310.173 50.3141C309.969 50.8954 309.566 51.3894 309.033 51.7118C308.548 52.007 308.012 52.2153 307.453 52.3268C306.436 52.4942 305.407 52.583 304.377 52.5924L298.424 52.858L286.505 53.2074C278.558 53.3751 270.612 53.431 262.652 53.445C254.691 53.459 246.759 53.3192 238.813 53.0816L226.893 52.6763L220.941 52.3967C219.91 52.4304 218.878 52.4071 217.85 52.3268C217.524 52.2847 217.209 52.1778 216.925 52.0127C216.642 51.8476 216.395 51.6277 216.201 51.3663C216.006 51.1049 215.868 50.8075 215.794 50.4921C215.72 50.1767 215.713 49.8498 215.771 49.5314C215.821 49.4134 215.911 49.3168 216.027 49.259C216.143 49.2012 216.276 49.1863 216.402 49.2168C216.528 49.2473 216.639 49.3212 216.714 49.4252C216.789 49.5291 216.823 49.6561 216.811 49.783L216.825 49.8668Z" fill="#A21C26"/>
<path d="M229.542 41.1451C229.955 39.0904 231.421 36.1412 236.434 37.1895C238.635 37.939 240.45 39.5043 241.49 41.5504C241.577 41.6718 241.621 41.8183 241.615 41.9669C241.608 42.1155 241.552 42.2579 241.454 42.3715C241.356 42.4851 241.223 42.5636 241.074 42.5946C240.926 42.6256 240.772 42.6074 240.635 42.5428C237.915 41.4106 232.561 39.5796 230.282 41.6203C230.208 41.6884 230.112 41.73 230.011 41.7385C229.909 41.747 229.808 41.7219 229.722 41.6672C229.637 41.6125 229.573 41.5313 229.54 41.4367C229.508 41.3421 229.508 41.2394 229.542 41.1451Z" fill="#A21C26"/>
<path d="M299.15 41.145C298.737 39.0903 297.285 36.1411 292.272 37.1894C290.071 37.9389 288.256 39.5042 287.217 41.5503C287.147 41.6717 287.117 41.8114 287.132 41.95C287.147 42.0887 287.205 42.2193 287.299 42.3238C287.393 42.4283 287.518 42.5015 287.656 42.5332C287.795 42.5649 287.94 42.5536 288.071 42.5008C290.791 41.3686 296.145 39.5376 298.438 41.5783C298.509 41.6365 298.598 41.6713 298.69 41.6776C298.782 41.684 298.875 41.6616 298.953 41.6136C299.032 41.5657 299.094 41.4946 299.129 41.4105C299.164 41.3264 299.172 41.2335 299.15 41.145Z" fill="#A21C26"/>
<path d="M284.554 172.531C287.971 177.549 289.082 182.581 291.19 182.832C291.19 182.832 299.606 186.019 308.008 167.946C300.326 170.082 292.483 171.615 284.554 172.531Z" fill="#A21C26"/>
<path d="M232.632 172.601C226.437 171.555 220.381 169.834 214.575 167.471C217.95 175.201 222.065 181.085 227.007 182.497C227.007 182.497 232.19 184.579 236.619 177.367C236.876 176.948 237.645 175.368 238.898 173.481C236.804 173.244 234.711 172.964 232.632 172.601Z" fill="#A21C26"/>
<path d="M299.321 132.291C298.357 136.574 296.408 140.585 293.625 144.018C289.481 148.896 283.656 151.328 277.832 152.809C267.335 155.486 256.315 155.486 245.819 152.809C236.819 150.517 227.306 145.653 223.86 135.17C221.781 128.894 220.841 121.472 222.649 115.029C229.499 90.6105 253.665 88.8214 265.186 88.8075C300.845 88.7935 301.87 121.738 299.321 132.291Z" fill="#F2B2AA"/>
</g>
<defs>
<linearGradient id="paint0_linear_2232_20203" x1="398.129" y1="52.4977" x2="414.365" y2="52.4977" gradientUnits="userSpaceOnUse">
<stop stop-color="white"/>
<stop offset="1" stop-color="#B0B0AF"/>
</linearGradient>
<linearGradient id="paint1_linear_2232_20203" x1="799.189" y1="22575.2" x2="1052.46" y2="22575.2" gradientUnits="userSpaceOnUse">
<stop stop-color="white"/>
<stop offset="1" stop-color="#B0B0AF"/>
</linearGradient>
<linearGradient id="paint2_linear_2232_20203" x1="3043.87" y1="28311.3" x2="2823.54" y2="30258.8" gradientUnits="userSpaceOnUse">
<stop stop-color="white"/>
<stop offset="1" stop-color="#B0B0AF"/>
</linearGradient>
<linearGradient id="paint3_linear_2232_20203" x1="1659.83" y1="6127.78" x2="1796.44" y2="5982.21" gradientUnits="userSpaceOnUse">
<stop stop-color="white"/>
<stop offset="1" stop-color="#B0B0AF"/>
</linearGradient>
<clipPath id="clip0_2232_20203">
<rect width="166" height="205" fill="white"/>
</clipPath>
<clipPath id="clip1_2232_20203">
<rect width="137" height="192" fill="white" transform="translate(372 13)"/>
</clipPath>
<clipPath id="clip2_2232_20203">
<rect width="176" height="167" fill="white" transform="translate(175 16)"/>
</clipPath>
</defs>
</svg>
